<svg
      xmlns="http://www.w3.org/2000/svg"
      viewBox="0 0 640 430"
      style="background-color: #fffc"
    >
      <style>
        text {
          font-size: 12px;
          font-family: Open Sans, Helvetica Neue, Helvetica, Arial, sans-serif;
        }
        #labels text {
          dominant-baseline: hanging;
          font-size: 10px;
          fill: rgba(0,0,0,0.5);
        }
        #legend {
          font-weight: 600;
        }
        #legend tspan {
          font-size: 15px;
        }
        #branding-text {
          font-size: 9px;
          dominant-baseline: hanging;
          opacity: 0.5;
        }
        #branding-logo {
          opacity: 0.5;
        }
      </style>

      
      
      <polygon
        fill="#178600"
        fillRule="evenodd"
        points="15 267.4617033392758 24.242424242424242 248.64036410001526 33.484848484848484 250.74936185963924 42.72727272727273 252.86319448159452 51.96969696969697 252.82190647606438 61.21212121212121 254.80732006182103 70.45454545454545 256.7972906405992 79.6969696969697 258.66521242463534 88.93939393939394 260.53741893433045 98.18181818181817 214.2122923258899 107.42424242424242 215.29148261527436 116.66666666666666 218.4876470731059 125.9090909090909 220.37028428105552 135.15151515151513 206.13448953278368 144.3939393939394 171.77430508237092 153.63636363636363 156.25425058435832 162.87878787878788 105.29406126417538 172.12121212121212 98.75402396222037 181.36363636363635 65.09654858839775 190.60606060606062 49.07821897144356 199.84848484848484 15 209.0909090909091 24.309960423975838 218.33333333333331 32.76181051116174 227.5757575757576 41.52959749427498 236.8181818181818 49.759633200864755 246.06060606060606 58.00857802538599 255.30303030303028 65.75159381605391 264.54545454545456 72.18225991159204 273.7878787878788 79.74679193716926 283.030303030303 86.84734829296309 292.27272727272725 93.96419192811052 301.51515151515156 93.99133699052962 310.75757575757575 95.96168483970115 320 102.80033705312991 329.24242424242425 108.79754351299394 338.48484848484844 114.23599152188302 347.7272727272727 117.88850555334648 356.96969696969694 123.79951141503491 366.21212121212125 129.5981193000723 375.4545454545455 135.32249692943273 384.6969696969697 115.3571489255711 393.93939393939394 60.520566239223115 403.1818181818182 38.19568077436139 412.42424242424244 24.17134743544773 421.66666666666663 23.04665469384736 430.9090909090909 31.14607240901131 440.1515151515152 37.849980160361895 449.39393939393943 44.613733576649565 458.6363636363636 51.716531475200554 467.8787878787879 59.284481325117156 477.1212121212121 44.55084344441832 486.3636363636364 47.73009422335247 495.60606060606057 54.56205834848299 504.8484848484848 59.91500721209991 514.0909090909091 66.17439886656331 523.3333333333334 72.09636996684853 532.5757575757576 77.46283543769135 541.8181818181819 45.97991734719392 551.060606060606 52.573651349541365 560.3030303030303 59.356043335176935 569.5454545454545 66.33337340513543 578.7878787878788 72.940953893005 588.0303030303031 80.24262982715464 597.2727272727273 87.5611163134476 606.5151515151515 94.6562161180947 615.7575757575758 101.31612598564553 625 107.99130115914821 625 320 15 320"
      />
      
      <polygon
        fill="#555555"
        fillRule="evenodd"
        points="15 273.44750671744737 24.242424242424242 254.4434542430067 33.484848484848484 256.38094457148185 42.72727272727273 258.3228763528188 51.96969696969697 258.1149348760183 61.21212121212121 259.9439159976923 70.45454545454545 261.7770948875276 79.6969696969697 263.4978409795177 88.93939393939394 265.22253421619325 98.18181818181817 218.75439753633043 107.42424242424242 219.7081725153767 116.66666666666666 222.7695201950852 125.9090909090909 224.52560903522942 135.15151515151513 210.16297512716895 144.3939393939394 175.6837308391049 153.63636363636363 160.04434340851805 162.87878787878788 108.96846369457057 172.12121212121212 102.31983156514502 181.36363636363635 68.55351207720423 190.60606060606062 52.433013511756656 199.84848484848484 18.252391201258718 209.0909090909091 27.463074490975828 218.33333333333331 35.82479733333457 227.5757575757576 44.49908845529427 236.8181818181818 52.641362657528475 246.06060606060606 60.802344180280215 255.30303030303028 68.46279172622377 264.54545454545456 74.81069987473663 273.7878787878788 82.29500055876503 283.030303030303 89.32024586503519 292.27272727272725 96.36160568151647 301.51515151515156 96.31789648896981 310.75757575757575 98.21722743573315 320 104.98703038200378 329.24242424242425 110.92385873731865 338.48484848484844 116.29740226837077 347.7272727272727 119.88899238739003 356.96969696969694 125.73893454258979 366.21212121212125 131.48022375011737 375.4545454545455 137.14715124718575 384.6969696969697 117.12610671146186 393.93939393939394 69.03872027249469 403.1818181818182 46.45382234096303 412.42424242424244 32.185423623761324 421.66666666666663 30.816105945744084 430.9090909090909 38.67836586539249 440.1515151515152 45.174294326799384 449.39393939393943 51.71447785230646 458.6363636363636 58.60741662569791 467.8787878787879 65.96502609226891 477.1212121212121 51.033948221265234 486.3636363636364 54.01530639802911 495.60606060606057 60.65541783854036 504.8484848484848 65.82828065286807 514.0909090909091 71.90717311444072 523.3333333333334 77.65971523328236 532.5757575757576 82.85636276930654 541.8181818181819 51.20881045484805 551.060606060606 57.65816604652622 560.3030303030303 64.28535608669492 569.5454545454545 71.11700319254425 578.7878787878788 77.57856593630476 588.0303030303031 84.74317941177227 597.2727272727273 91.92428934839239 606.5151515151515 98.88620591543369 615.7575757575758 105.42110069357426 625 111.97097367787586 625 320 15 320"
      />
      
      <polygon
        fill="#f34b7d"
        fillRule="evenodd"
        points="15 280.31084938557126 24.242424242424242 267.9036473148662 33.484848484848484 269.44332937218206 42.72727272727273 270.9865400196101 51.96969696969697 270.39204763905866 61.21212121212121 271.858185551905 70.45454545454545 273.32768794327586 79.6969696969697 274.7070621986007 88.93939393939394 276.08960059918127 98.18181818181817 229.289753531712 107.42424242424242 229.95262767146951 116.66666666666666 232.70127084240804 125.9090909090909 234.1638316573726 135.15151515151513 219.506996853891 144.3939393939394 184.75159439628544 153.63636363636363 168.83541539417953 162.87878787878788 117.49119350011833 172.12121212121212 110.59067682005252 181.36363636363635 76.57189476238045 190.60606060606062 60.21441728177484 199.84848484848484 25.796272412612552 209.0909090909091 34.77668257253009 218.33333333333331 42.92935666230966 227.5757575757576 51.38678495201708 236.8181818181818 59.325497126943105 246.06060606060606 67.28244873248363 255.30303030303028 74.75138098380594 264.54545454545456 80.90733332094538 273.7878787878788 88.20553795762396 283.030303030303 95.05609991066885 292.27272727272725 101.92237596202145 301.51515151515156 101.71432219164419 310.75757575757575 103.4489297925602 320 110.05903803175897 329.24242424242425 115.85582025495569 338.48484848484844 121.07881794983169 347.7272727272727 124.52909602399652 356.96969696969694 130.23740185799267 366.21212121212125 135.84574094530558 375.4545454545455 141.37941371628366 384.6969696969697 121.22918185004275 393.93939393939394 79.82200762627457 403.1818181818182 56.90795519551824 412.42424242424244 42.33059063267655 421.66666666666663 40.65159668026854 430.9090909090909 48.21363456619952 440.1515151515152 54.44627883283215 449.39393939393943 60.70344053038349 458.6363636363636 67.33071523634425 467.8787878787879 74.42205078714841 477.1212121212121 59.24102994945582 486.3636363636364 61.971870959949115 495.60606060606057 68.36911443837317 504.8484848484848 73.31400283098282 514.0909090909091 79.16439759804791 523.3333333333334 84.70245580241638 532.5757575757576 89.68412798042297 541.8181818181819 57.828162225117524 551.060606060606 64.09474728897433 560.3030303030303 70.52546367471956 569.5454545454545 77.17268767834173 578.7878787878788 83.44940526408499 588.0303030303031 90.44050861230181 597.2727272727273 97.44771055610738 606.5151515151515 104.24102824841745 615.7575757575758 110.61766356380642 625 117.00891486854715 625 320 15 320"
      />
      
      <polygon
        fill="#3572A5"
        fillRule="evenodd"
        points="15 287.1797029691925 24.242424242424242 281.36474433728665 33.484848484848484 282.5065907502924 42.72727272727273 283.65105225407586 51.96969696969697 284.76058561745197 61.21212121212121 285.8020672908938 70.45454545454545 286.84594137771455 79.6969696969697 287.825791128984 88.93939393939394 288.8078864334956 98.18181818181817 245.74319173021195 107.42424242424242 245.95175750582598 116.66666666666666 248.21203820328418 125.9090909090909 249.21618722782642 135.15151515151513 234.09988708590953 144.3939393939394 198.91320090348387 153.63636363636363 182.56474510411056 162.87878787878788 130.80144281780213 172.12121212121212 123.50754849749546 181.36363636363635 89.09448739536117 190.60606060606062 72.36691027462913 199.84848484848484 37.57781719766592 209.0909090909091 46.19860272202078 218.33333333333331 54.024799788673874 227.5757575757576 62.143544539757386 236.8181818181818 69.7643468511692 246.06060606060606 77.40265843031275 255.30303030303028 84.57249381173204 264.54545454545456 90.42866176727412 273.7878787878788 97.43623420349266 283.030303030303 104.0139870601659 292.27272727272725 110.60682888877301 301.51515151515156 110.14211045172581 310.75757575757575 111.61946486322987 320 117.9801728243688 329.24242424242425 123.55823911666329 338.48484848484844 128.54612499989906 347.7272727272727 131.77571054704072 356.96969696969694 137.26281713243162 366.21212121212125 142.6635245051574 375.4545454545455 147.9890887594566 384.6969696969697 127.6371002206898 393.93939393939394 92.84134973882055 403.1818181818182 69.52988817563852 412.42424242424244 54.579489952856704 421.66666666666663 52.52660422406052 430.9090909090909 59.726164937482565 440.1515151515152 65.64092989667625 449.39393939393943 71.55637918463961 458.6363636363636 77.86290231208324 467.8787878787879 84.63274911905364 477.1212121212121 69.14995648169946 486.3636363636364 71.5783324515728 495.60606060606057 77.68234518996647 504.8484848484848 82.35198509285968 514.0909090909091 87.92650178774016 523.3333333333334 93.20559980028179 532.5757575757576 97.92771848933279 541.8181818181819 65.82012154417811 551.060606060606 71.86603572489847 560.3030303030303 78.05953829565678 569.5454545454545 84.48409699564422 578.7878787878788 90.5376381000764 588.0303030303031 97.31925281554666 597.2727272727273 104.11648423183479 606.5151515151515 110.70624244317631 615.7575757575758 116.89180043435667 625 123.09153771764602 625 320 15 320"
      />
      
      <polygon
        fill="#b07219"
        fillRule="evenodd"
        points="15 289.56633978581567 24.242424242424242 283.67853044137416 33.484848484848484 284.7519941402965 42.72727272727273 285.8279160754767 51.96969696969697 286.87100181555473 61.21212121212121 287.8501111549246 70.45454545454545 288.83147005802147 79.6969696969697 289.75263845813976 88.93939393939394 290.67591796476887 98.18181818181817 251.82937436208323 107.42424242424242 251.8698899991516 116.66666666666666 253.94952381602184 125.9090909090909 254.78410444702706 135.15151515151513 239.49784695819793 144.3939393939394 213.2107367482387 153.63636363636363 198.67206317916057 162.87878787878788 150.73239473891758 172.12121212121212 143.51138238746523 181.36363636363635 108.48771604968897 190.60606060606062 93.30355621184418 199.84848484848484 57.875382819984 209.0909090909091 65.87659808352086 218.33333333333331 73.14032910141225 227.5757575757576 80.67558076783342 236.8181818181818 87.74867879777781 246.06060606060606 94.83803138661196 255.30303030303028 101.4925722970986 264.54545454545456 106.83226428012978 273.7878787878788 113.33912640552236 283.030303030303 119.44687780704592 292.27272727272725 125.56864044226427 301.51515151515156 124.66173167126956 310.75757575757575 125.6958848520016 320 131.62691710178305 329.24242424242425 136.828175422253 338.48484848484844 141.41100360546451 347.7272727272727 144.2603741783857 356.96969696969694 149.36639303165532 366.21212121212125 154.40938552352463 375.4545454545455 159.3764156121984 384.6969696969697 138.67683516568803 393.93939393939394 110.33905899848625 403.1818181818182 86.49349251709998 412.42424242424244 71.04174230591084 421.66666666666663 68.4863555529592 430.9090909090909 75.19875566519602 440.1515151515152 80.68629512832032 449.39393939393943 86.14249042403594 458.6363636363636 92.01793162407336 467.8787878787879 98.35570406777524 477.1212121212121 87.98302989046005 486.3636363636364 93.17342107006652 495.60606060606057 98.61825396186492 504.8484848484848 102.66914416187893 514.0909090909091 107.62349156954858 523.3333333333334 112.32045624277868 532.5757575757576 116.45910476422375 541.8181818181819 83.78584738726869 551.060606060606 89.33569960011809 560.3030303030303 94.99595218619564 569.5454545454545 100.91996354109205 578.7878787878788 106.47180571834534 588.0303030303031 112.78249656714283 597.2727272727273 119.10772319559453 606.5151515151515 125.23988253543371 615.7575757575758 130.99590550051997 625 136.76512359745652 625 320 15 320"
      />
      
      <polygon
        fill="#00ADD8"
        fillRule="evenodd"
        points="15 303.38566859603304 24.242424242424242 303.89280975119834 33.484848484848484 304.36884997804606 42.72727272727273 304.84598105678197 51.96969696969697 305.3085503831998 61.21212121212121 305.7427475024828 70.45454545454545 306.1779439327451 79.6969696969697 306.58644632099146 88.93939393939394 306.99588658977405 98.18181818181817 267.87545169638327 107.42424242424242 267.47291060745243 116.66666666666666 269.0762719713026 125.9090909090909 269.46378857435 135.15151515151513 256.22246523230507 144.3939393939394 233.82193629328378 153.63636363636363 218.65411440695095 162.87878787878788 176.94872880287855 172.12121212121212 170.5159505186354 181.36363636363635 135.0760276792375 190.60606060606062 119.1060674382642 199.84848484848484 82.8902793763045 209.0909090909091 90.12793460343681 218.33333333333331 96.69847240682984 227.5757575757576 103.514628219087 236.8181818181818 109.9127291773741 246.06060606060606 116.32553270055976 255.30303030303028 122.34502860784372 264.54545454545456 127.7390938537012 273.7878787878788 133.60778343426716 283.030303030303 139.11650716976288 292.27272727272725 144.63786265947058 301.51515151515156 143.16737699906002 310.75757575757575 143.63665656693064 320 149.02005455958394 329.24242424242425 153.74106177139586 338.48484848484844 157.8076355136424 347.7272727272727 160.17240901277907 356.96969696969694 164.79272186136475 366.21212121212125 169.3797998853826 375.4545454545455 173.8898651411165 384.6969696969697 155.23280809436613 393.93939393939394 133.20720028951962 403.1818181818182 108.66360127520937 412.42424242424244 92.55662377308201 421.66666666666663 89.34451184491752 430.9090909090909 95.42022456490429 440.1515151515152 100.34941859333804 449.39393939393943 105.20540663120227 458.6363636363636 110.51745809778501 467.8787878787879 116.29053962849235 477.1212121212121 105.38781112270487 486.3636363636364 110.0469340064308 495.60606060606057 114.97671241980458 504.8484848484848 118.54413675740511 514.0909090909091 123.01391064493163 523.3333333333334 127.25601949100246 532.5757575757576 130.9387656397092 541.8181818181819 97.82352609206959 551.060606060606 102.98577512632494 560.3030303030303 108.22936570619825 569.5454545454545 113.76227330212407 578.7878787878788 118.92210776984575 588.0303030303031 124.86483917695764 597.2727272727273 130.8212577960492 606.5151515151515 136.59586904027626 615.7575757575758 142.01627171328744 625 147.44910116017218 625 320 15 320"
      />
      
      <polygon
        fill="#2b7489"
        fillRule="evenodd"
        points="15 303.38566859603304 24.242424242424242 303.89280975119834 33.484848484848484 304.36884997804606 42.72727272727273 304.84598105678197 51.96969696969697 305.3085503831998 61.21212121212121 305.7427475024828 70.45454545454545 306.1779439327451 79.6969696969697 306.58644632099146 88.93939393939394 306.99588658977405 98.18181818181817 274.9487763505528 107.42424242424242 274.35092910390887 116.66666666666666 275.74434285729814 125.9090909090909 275.93478741611403 135.15151515151513 273.2722561670743 144.3939393939394 257.22386930274956 153.63636363636363 243.3331755054995 162.87878787878788 217.7029260633373 172.12121212121212 210.0656693053765 181.36363636363635 173.41852431133293 190.60606060606062 156.35006743406484 199.84848484848484 118.99742594912038 209.0909090909091 125.13292990603506 218.33333333333331 130.70291093348828 227.5757575757576 136.48109023609146 236.8181818181818 141.90488908955527 246.06060606060606 147.34114590955286 255.30303030303028 152.4440002992742 264.54545454545456 156.91931056569413 273.7878787878788 161.89728991468374 283.030303030303 166.56993131539022 292.27272727272725 171.25328643999876 301.51515151515156 168.996198279483 310.75757575757575 168.67706299003223 320 173.29611922002118 329.24242424242425 177.3468267201683 338.48484848484844 180.69284619224018 347.7272727272727 182.38126032802913 356.96969696969694 186.3236592729362 366.21212121212125 190.27440066298502 375.4545454545455 194.1466740516638 384.6969696969697 174.87128681148465 393.93939393939394 159.06673679146803 403.1818181818182 133.73378714003033 412.42424242424244 116.88587382891833 421.66666666666663 112.93112831983538 430.9090909090909 118.28686988141777 440.1515151515152 122.58467608691129 449.39393939393943 126.76194748753537 458.6363636363636 131.43691305971942 467.8787878787879 136.57143563856457 477.1212121212121 125.06931915969466 486.3636363636364 129.12767395427045 495.60606060606057 133.47502301635328 504.8484848484848 136.49573932785813 514.0909090909091 140.41754984386213 523.3333333333334 144.14530445490064 532.5757575757576 147.3125186865063 541.8181818181819 113.69747468835638 551.060606060606 118.4214171931518 560.3030303030303 123.19384836993868 569.5454545454545 128.2844816027099 578.7878787878788 133.00103781288644 588.0303030303031 138.52767504752674 597.2727272727273 144.06704334362377 606.5151515151515 149.43733341655832 615.7575757575758 154.47821562947715 625 159.530650585199 625 320 15 320"
      />
      
      <polygon
        fill="#dea584"
        fillRule="evenodd"
        points="15 318.67483375006094 24.242424242424242 318.71528369156744 33.484848484848484 318.75325292536905 42.72727272727273 318.79130911666823 51.96969696969697 318.8282036678382 61.21212121212121 318.8628355416321 70.45454545454545 318.8975468612218 79.6969696969697 318.93012931358203 88.93939393939394 318.9627864373512 98.18181818181817 303.521246729699 107.42424242424242 302.1344734480573 116.66666666666666 302.6798077875927 125.9090909090909 303.19169780246904 135.15151515151513 301.0449263679254 144.3939393939394 286.49801093412003 153.63636363636363 274.27288869661754 162.87878787878788 248.7011554118244 172.12121212121212 240.14776385788298 181.36363636363635 224.1325252425794 190.60606060606062 205.99824699545545 199.84848484848484 177.6798656604654 209.0909090909091 182.02412155650904 218.33333333333331 185.96795918329482 227.5757575757576 190.05919486123287 236.8181818181818 193.89951423416676 246.06060606060606 197.7486821372396 255.30303030303028 201.36175597816828 264.54545454545456 204.41305764787853 273.7878787878788 207.9413167359634 283.030303030303 211.25314968903882 292.27272727272725 214.57257709999607 301.51515151515156 213.02079318174071 310.75757575757575 211.35784626154447 320 214.6740932943309 329.24242424242425 217.58229322439297 338.48484848484844 219.70012843757854 347.7272727272727 220.23570895958582 356.96969696969694 223.02262418776385 366.21212121212125 225.8887522216474 375.4545454545455 228.67392066085412 384.6969696969697 210.94558051067395 393.93939393939394 200.73549648319926 403.1818181818182 188.30204228771723 412.42424242424244 177.57131520296258 421.66666666666663 172.06965310378564 430.9090909090909 175.62021430733003 440.1515151515152 178.33497391002697 449.39393939393943 180.81049472116354 458.6363636363636 183.88808098148067 467.8787878787879 187.42155433649847 477.1212121212121 179.15855690026382 486.3636363636364 181.56587782450086 495.60606060606057 184.3125659795466 504.8484848484848 185.8308082393113 514.0909090909091 188.2467166938774 523.3333333333334 190.56088296646843 532.5757575757576 192.31129219611634 541.8181818181819 178.21247078464032 551.060606060606 181.15504502624498 560.3030303030303 184.01255879323355 569.5454545454545 187.30574362818743 578.7878787878788 190.2207009069851 588.0303030303031 194.05623507121004 597.2727272727273 197.9006285875173 606.5151515151515 201.62768295516355 615.7575757575758 205.12610721864257 625 208.632544812869 625 320 15 320"
      />
      
      <polygon
        fill="#f1e05a"
        fillRule="evenodd"
        points="15 318.67483375006094 24.242424242424242 318.71528369156744 33.484848484848484 318.75325292536905 42.72727272727273 318.79130911666823 51.96969696969697 318.8282036678382 61.21212121212121 318.8628355416321 70.45454545454545 318.8975468612218 79.6969696969697 318.93012931358203 88.93939393939394 318.9627864373512 98.18181818181817 315.0440063837736 107.42424242424242 315.18084941163994 116.66666666666666 315.3279515144713 125.9090909090909 315.4660312358269 135.15151515151513 312.9445939376542 144.3939393939394 298.04598826250566 153.63636363636363 294.7716393382194 162.87878787878788 288.54762716285904 172.12121212121212 281.1558884699328 181.36363636363635 276.1843602723409 190.60606060606062 265.12207558035624 199.84848484848484 246.71294034323068 209.0909090909091 248.94999517687796 218.33333333333331 250.98086016074126 227.5757575757576 253.08761879663066 236.8181818181818 255.06516979494472 246.06060606060606 257.04727874115764 255.30303030303028 258.9078152491108 264.54545454545456 260.7726054173797 273.7878787878788 262.58050017344016 283.030303030303 264.27750183955817 292.27272727272725 265.97839940527695 301.51515151515156 262.9073457792249 310.75757575757575 259.7563396358112 320 261.59524498879165 329.24242424242425 263.2078927895349 338.48484848484844 264.08713749043994 347.7272727272727 263.3457834451747 356.96969696969694 264.8167942881295 366.21212121212125 266.4477127121474 375.4545454545455 267.9948425581836 384.6969696969697 249.24111500137303 393.93939393939394 244.53087625976474 403.1818181818182 230.760581038215 412.42424242424244 221.28323869886532 421.66666666666663 214.44728445956852 430.9090909090909 216.70429622989604 440.1515151515152 218.2846564444058 449.39393939393943 219.54074030979558 458.6363636363636 221.47366670647375 467.8787878787879 223.85986701682953 477.1212121212121 218.8065478446787 486.3636363636364 220.1058621907688 495.60606060606057 221.67613253458055 504.8484848484848 222.09012279395074 514.0909090909091 223.39923418168388 523.3333333333334 224.67449198432433 532.5757575757576 225.38359663845017 541.8181818181819 210.2752661575564 551.060606060606 212.33253031730902 560.3030303030303 214.23837002640363 569.5454545454545 216.63824418045613 578.7878787878788 218.65784797740164 588.0303030303031 221.65293538074872 597.2727272727273 224.65495519367948 606.5151515151515 227.5653513416537 615.7575757575758 230.29720452214136 625 233.0353026005184 625 320 15 320"
      />
      

      
        <g id="labels">
        
          
          <text x="15" y="330">
            Apr 2018
          </text>
          
        
          
        
          
        
          
        
          
        
          
        
          
        
          
        
          
        
          
          <text x="96.94029850746269" y="330">
            Jan 2019
          </text>
          
        
          
        
          
        
          
        
          
        
          
        
          
        
          
        
          
        
          
          <text x="178.88059701492537" y="330">
            Oct 2019
          </text>
          
        
          
        
          
        
          
        
          
        
          
        
          
        
          
        
          
        
          
          <text x="260.82089552238807" y="330">
            Jul 2020
          </text>
          
        
          
        
          
        
          
        
          
        
          
        
          
        
          
        
          
        
          
          <text x="342.76119402985074" y="330">
            Apr 2021
          </text>
          
        
          
        
          
        
          
        
          
        
          
        
          
        
          
        
          
        
          
          <text x="424.7014925373134" y="330">
            Jan 2022
          </text>
          
        
          
        
          
        
          
        
          
        
          
        
          
        
          
        
          
        
          
          <text x="506.64179104477614" y="330">
            Oct 2022
          </text>
          
        
          
        
          
        
          
        
          
        
          
        
          
        
          
        
          
        
          
          <text x="588.5820895522388" y="330">
            Jul 2023
          </text>
          
        
          
        
          
        
          
        
        </g>
      

      
        <text text-anchor="middle" y="370" x="320" id="legend">
          
          <tspan xml:space="preserve" fill="#f1e05a">   ◉</tspan> JavaScript
          
          <tspan xml:space="preserve" fill="#dea584">   ◉</tspan> Rust
          
          <tspan xml:space="preserve" fill="#2b7489">   ◉</tspan> TypeScript
          
          <tspan xml:space="preserve" fill="#00ADD8">   ◉</tspan> Go
          
          <tspan xml:space="preserve" fill="#b07219">   ◉</tspan> Java
          
          <tspan xml:space="preserve" fill="#3572A5">   ◉</tspan> Python
          
          <tspan xml:space="preserve" fill="#f34b7d">   ◉</tspan> C++
          
          <tspan xml:space="preserve" fill="#555555">   ◉</tspan> C
          
        </text>
      
        <text text-anchor="middle" y="400" x="320" id="legend">
          
          <tspan xml:space="preserve" fill="#178600">   ◉</tspan> C#
          
        </text>
      

    </svg>