<svg
      xmlns="http://www.w3.org/2000/svg"
      viewBox="0 0 640 430"
      style="background-color: #fffc"
    >
      <style>
        text {
          font-size: 12px;
          font-family: Open Sans, Helvetica Neue, Helvetica, Arial, sans-serif;
        }
        #labels text {
          dominant-baseline: hanging;
          font-size: 10px;
          fill: rgba(0,0,0,0.5);
        }
        #legend {
          font-weight: 600;
        }
        #legend tspan {
          font-size: 15px;
        }
        #branding-text {
          font-size: 9px;
          dominant-baseline: hanging;
          opacity: 0.5;
        }
        #branding-logo {
          opacity: 0.5;
        }
      </style>

      
      
      <polygon
        fill="#178600"
        fillRule="evenodd"
        points="15 267.4617044785384 26.96078431372549 248.6403699230178 38.92156862745098 250.74936503946216 50.88235294117647 252.8632001106948 62.84313725490196 252.8219108338908 74.80392156862746 254.80732305531225 86.76470588235294 256.7972929061309 98.72549019607844 258.66521460439657 110.68627450980392 260.5374248476337 122.64705882352942 214.21229686511487 134.60784313725492 215.29148869640767 146.5686274509804 218.48765300747897 158.52941176470588 220.37028223533002 170.49019607843135 206.1345011270631 182.45098039215688 171.77432016414204 194.41176470588235 156.25424982756638 206.37254901960785 105.29407844368231 218.33333333333331 98.75402584570065 230.29411764705884 65.09657366123415 242.2549019607843 49.0782301383511 254.2156862745098 15 266.17647058823525 24.309971455012487 278.1372549019608 32.76187080772985 290.0980392156863 41.52962364924912 302.05882352941177 49.759660887690075 314.01960784313724 58.00859132857232 325.9803921568627 65.75158671127619 337.94117647058823 72.18228402248465 349.90196078431376 79.74679214707646 361.8627450980392 86.84734690366005 373.8235294117647 93.96420739981076 385.78431372549016 93.9913728316993 397.7450980392157 95.96169003432331 409.7058823529412 102.80034702641657 421.66666666666663 108.7975455718848 433.62745098039215 114.23603127151185 445.5882352941177 117.88851082333599 457.54901960784315 123.79950088093432 469.5098039215686 129.5981363184725 481.4705882352941 135.32251686790764 493.4313725490196 115.3571515744795 505.39215686274514 60.5205921587625 517.3529411764705 38.19566825074372 529.3137254901961 24.171385845998714 541.2745098039215 23.046703341399507 553.2352941176471 31.146127050506323 565.1960784313726 37.84996701603313 577.156862745098 44.61378696315711 589.1176470588235 51.71652724292619 601.0784313725491 59.28449711605663 613.0392156862745 44.55081853387429 625 42.67653378785349 625 320 15 320"
      />
      
      <polygon
        fill="#555555"
        fillRule="evenodd"
        points="15 273.4475075818563 26.96078431372549 254.44345979954528 38.92156862745098 256.380947492716 50.88235294117647 258.3228817312237 62.84313725490196 258.11493899080153 74.80392156862746 259.94391875532335 86.76470588235294 261.7770969243986 98.72549019607844 263.4978429373763 110.68627450980392 265.22253991436725 122.64705882352942 218.75440186699282 134.60784313725492 219.70817839370625 146.5686274509804 222.76952593284494 158.52941176470588 224.5256067987014 170.49019607843135 210.16298653647 182.45098039215688 175.6837457413646 194.41176470588235 160.04434247769416 206.37254901960785 108.96848070535773 218.33333333333331 102.31983328489201 230.29411764705884 68.55353699130518 242.2549019607843 52.433024524620066 254.2156862745098 18.25239105191673 266.17647058823525 27.46308537722905 278.1372549019608 35.82485748925768 290.0980392156863 44.49911447391651 302.05882352941177 52.64139021203175 314.01960784313724 60.802357355183574 325.9803921568627 68.46278449695436 337.94117647058823 74.81072386493761 349.90196078431376 82.29500065166457 361.8627450980392 89.32024436218262 373.8235294117647 96.36162104313325 385.78431372549016 96.3179322233095 397.7450980392157 98.21723252678623 409.7058823529412 104.98704025488274 421.66666666666663 110.92386069857423 433.62745098039215 116.29744192334459 445.5882352941177 119.88899756552203 457.54901960784315 125.73892391943554 469.5098039215686 131.48024068209588 481.4705882352941 137.14717110187695 493.4313725490196 117.12610927914395 505.39215686274514 69.03874580090093 517.3529411764705 46.453809438151325 529.3137254901961 32.18546166632524 541.2745098039215 30.816154236541706 553.2352941176471 38.67842016102276 565.1960784313726 45.17428084615568 577.156862745098 51.71453091276487 589.1176470588235 58.60741207701062 601.0784313725491 65.96504157645387 613.0392156862745 51.03392301303256 625 49.10946010099428 625 320 15 320"
      />
      
      <polygon
        fill="#f34b7d"
        fillRule="evenodd"
        points="15 280.3108492982471 26.96078431372549 267.90365225334506 38.92156862745098 269.4433316936229 50.88235294117647 270.98654481652994 62.84313725490196 270.3920499169366 74.80392156862746 271.85818776246145 86.76470588235294 273.3276894497714 98.72549019607844 274.7070636417587 110.68627450980392 276.08960388861107 122.64705882352942 229.2897561054464 134.60784313725492 229.952634352568 146.5686274509804 232.70127612412568 158.52941176470588 234.16382897828055 170.49019607843135 219.50700783413697 182.45098039215688 184.75160888217061 194.41176470588235 168.83541533286046 206.37254901960785 117.49121043785468 218.33333333333331 110.59067816002218 230.29411764705884 76.57191930829649 242.2549019607843 60.214427300749946 254.2156862745098 25.79627191687365 266.17647058823525 34.77669312296001 278.1372549019608 42.9294164920085 290.0980392156863 51.38681065437282 302.05882352941177 59.325524374526935 314.01960784313724 67.282462246421 325.9803921568627 74.75137314748716 337.94117647058823 80.90735703120356 349.90196078431376 88.20553777912588 361.8627450980392 95.05609878102453 373.8235294117647 101.92239106830098 385.78431372549016 101.71435704160808 397.7450980392157 103.44893464338605 409.7058823529412 110.05904767174354 421.66666666666663 115.85582198974745 433.62745098039215 121.07885763988833 445.5882352941177 124.52910118004155 457.54901960784315 130.23739083730416 469.5098039215686 135.84575767683003 481.4705882352941 141.37943337663953 493.4313725490196 121.22918461127247 505.39215686274514 79.8220313863684 517.3529411764705 56.907941812677905 529.3137254901961 42.33062820939875 541.2745098039215 40.65164515602896 553.2352941176471 48.21368842399312 565.1960784313726 54.44626492644113 577.156862745098 60.703493814675255 589.1176470588235 67.33071028710407 601.0784313725491 74.42206588300706 613.0392156862745 59.24100436437368 625 57.253020467382896 625 320 15 320"
      />
      
      <polygon
        fill="#3572A5"
        fillRule="evenodd"
        points="15 287.17970256646703 26.96078431372549 281.36474738449454 38.92156862745098 282.50659247189964 50.88235294117647 283.65105519630197 62.84313725490196 284.7605872355612 74.80392156862746 285.80206886118066 86.76470588235294 286.84594099031466 98.72549019607844 287.82579133317665 110.68627450980392 288.80788913893224 122.64705882352942 245.74319291185913 134.60784313725492 245.95176345228285 146.5686274509804 248.21204213619976 158.52941176470588 249.21618385756636 170.49019607843135 234.09989739608505 182.45098039215688 198.9132147391021 194.41176470588235 182.56474441237367 206.37254901960785 130.80145914436378 218.33333333333331 123.50755051752313 230.29411764705884 89.0945113662699 242.2549019607843 72.36692164534563 254.2156862745098 37.577817434116525 266.17647058823525 46.19861402115333 278.1372549019608 54.02485783572689 290.0980392156863 62.14356974818861 302.05882352941177 69.76437361942618 314.01960784313724 77.40267147955441 325.9803921568627 84.57248552445134 337.94117647058823 90.42868504033584 349.90196078431376 97.43623296455831 361.8627450980392 104.01398551919692 373.8235294117647 110.60684359628334 385.78431372549016 110.14214555129078 397.7450980392157 111.61946933888439 409.7058823529412 117.98018210063387 421.66666666666663 123.55824113436339 433.62745098039215 128.5461643470749 445.5882352941177 131.77571537033862 457.54901960784315 137.26280642573784 469.5098039215686 142.6635409236256 481.4705882352941 147.98910684314228 493.4313725490196 127.6371026876833 505.39215686274514 92.84137290109751 517.3529411764705 69.52987548639908 529.3137254901961 54.57952505738422 541.2745098039215 52.52665215454914 553.2352941176471 59.72621826664846 565.1960784313726 65.64091547625378 577.156862745098 71.55643388034514 589.1176470588235 77.8628975158152 601.0784313725491 84.63276374606156 613.0392156862745 69.14993107820811 625 67.08525334549088 625 320 15 320"
      />
      
      <polygon
        fill="#b07219"
        fillRule="evenodd"
        points="15 289.56633927350157 26.96078431372549 283.6785333823385 38.92156862745098 284.75199575880026 50.88235294117647 285.82791891774644 62.84313725490196 286.87100333675875 74.80392156862746 287.85011263117025 86.76470588235294 288.83146957945087 98.72549019607844 289.7526385738562 110.68627450980392 290.67592058443 122.64705882352942 251.82937526426753 134.60784313725492 251.8698956738621 146.5686274509804 253.9495274854859 158.52941176470588 254.78410082110162 170.49019607843135 239.4978563839272 182.45098039215688 213.21074992734844 194.41176470588235 198.67206174781433 206.37254901960785 150.7324076039583 218.33333333333331 143.5113847621347 230.29411764705884 108.48774040327694 242.2549019607843 93.30356662120022 254.2156862745098 57.87538085124942 266.17647058823525 65.87660847908714 278.1372549019608 73.14038627072605 290.0980392156863 80.67560512531804 302.05882352941177 87.74870601340717 314.01960784313724 94.83804236209346 325.9803921568627 101.49256132313394 337.94117647058823 106.83228743656235 349.90196078431376 113.33912443636541 361.8627450980392 119.44687428426599 373.8235294117647 125.56865318959441 385.78431372549016 124.66176737729816 397.7450980392157 125.69588613496126 409.7058823529412 131.62692575142245 421.66666666666663 136.8281755574597 433.62745098039215 141.41104236191606 445.5882352941177 144.26037779183298 457.54901960784315 149.3663817691944 469.5098039215686 154.40940140265113 481.4705882352941 159.37643253642057 493.4313725490196 138.6768371257634 505.39215686274514 110.33908263048016 517.3529411764705 86.49347777576284 529.3137254901961 71.0417766545313 541.2745098039215 68.48640275061436 553.2352941176471 75.19880573755819 565.1960784313726 80.68628065363572 577.156862745098 86.14254699632173 589.1176470588235 92.01792617784037 601.0784313725491 98.35571933782776 613.0392156862745 87.98300362219922 625 89.18786717445826 625 320 15 320"
      />
      
      <polygon
        fill="#00ADD8"
        fillRule="evenodd"
        points="15 303.38566744916864 26.96078431372549 303.8928130371413 38.92156862745098 304.3688506957909 50.88235294117647 304.8459817526181 62.84313725490196 305.30855105779585 74.80392156862746 305.7427481571416 86.76470588235294 306.1779426576661 98.72549019607844 306.5864456637399 110.68627450980392 306.99588846006145 122.64705882352942 267.8754537715248 134.60784313725492 267.4729155657097 146.5686274509804 269.076273673013 158.52941176470588 269.463783001199 170.49019607843135 256.2224738900801 182.45098039215688 233.82194597963726 194.41176470588235 218.65411333124666 206.37254901960785 176.94874046412818 218.33333333333331 170.51595165331997 230.29411764705884 135.07605272170872 242.2549019607843 119.1060722067368 254.2156862745098 82.89027880528548 266.17647058823525 90.12794133910052 278.1372549019608 96.6985310407498 290.0980392156863 103.51465343761205 302.05882352941177 109.91275282894406 314.01960784313724 116.32554778206577 325.9803921568627 122.34501667638435 337.94117647058823 127.73911414038778 349.90196078431376 133.60778053442218 361.8627450980392 139.11650274380082 373.8235294117647 144.6378745311879 385.78431372549016 143.16741058218412 397.7450980392157 143.63665829926288 409.7058823529412 149.0200624105722 421.66666666666663 153.74105985683374 433.62745098039215 157.80767160744534 445.5882352941177 160.17241125899903 457.54901960784315 164.7927111637336 469.5098039215686 169.3798138039339 481.4705882352941 173.8898820355008 493.4313725490196 155.23280929423098 505.39215686274514 133.20722541780293 517.3529411764705 108.66358551587413 529.3137254901961 92.55666222646977 541.2745098039215 89.34455808481624 553.2352941176471 95.42027689166957 565.1960784313726 100.34940321577002 577.156862745098 105.2054655110891 589.1176470588235 110.51744989234359 601.0784313725491 116.2905528018506 613.0392156862745 105.38778405525832 625 106.4579392459886 625 320 15 320"
      />
      
      <polygon
        fill="#2b7489"
        fillRule="evenodd"
        points="15 303.38566744916864 26.96078431372549 303.8928130371413 38.92156862745098 304.3688506957909 50.88235294117647 304.8459817526181 62.84313725490196 305.30855105779585 74.80392156862746 305.7427481571416 86.76470588235294 306.1779426576661 98.72549019607844 306.5864456637399 110.68627450980392 306.99588846006145 122.64705882352942 274.94877841919674 134.60784313725492 274.350933746344 146.5686274509804 275.74434425282675 158.52941176470588 275.9347821824152 170.49019607843135 273.272263405379 182.45098039215688 257.2238779145425 194.41176470588235 243.33318348195 206.37254901960785 217.70293585325211 218.33333333333331 210.06567117037247 230.29411764705884 173.41854632003904 242.2549019607843 156.35006858262778 254.2156862745098 118.99742244697819 266.17647058823525 125.13293821727785 278.1372549019608 130.70295591089354 290.0980392156863 136.48111776038505 302.05882352941177 141.90491381846158 314.01960784313724 147.34115956689644 325.9803921568627 152.44398698574236 337.94117647058823 156.91932951249524 349.90196078431376 161.89728125975844 361.8627450980392 166.56991926298417 373.8235294117647 171.25329963593921 385.78431372549016 168.99622813027017 397.7450980392157 168.6770661189087 409.7058823529412 173.29612595631093 421.66666666666663 177.34682372168618 433.62745098039215 180.69287868886974 445.5882352941177 182.38126410081148 457.54901960784315 186.32365076958052 469.5098039215686 190.27441362210647 481.4705882352941 194.14669128907383 493.4313725490196 174.87129156569188 505.39215686274514 159.06676709819226 517.3529411764705 133.73377022953235 529.3137254901961 116.8859111651654 541.2745098039215 112.93117347669337 553.2352941176471 118.28692115820166 565.1960784313726 122.58466732737219 577.156862745098 126.76200983369179 589.1176470588235 131.43689943761274 601.0784313725491 136.57144915384254 613.0392156862745 125.0692899153508 625 125.98711543868697 625 320 15 320"
      />
      
      <polygon
        fill="#dea584"
        fillRule="evenodd"
        points="15 318.6748338109094 26.96078431372549 318.7152837505585 38.92156862745098 318.7532529826167 50.88235294117647 318.79130917216844 62.84313725490196 318.82820372164423 74.80392156862746 318.86283559384793 86.76470588235294 318.8975469118438 98.72549019607844 318.9301293627079 110.68627450980392 318.9627864849775 122.64705882352942 303.52124748636373 134.60784313725492 302.13447426839934 146.5686274509804 302.6798098560641 158.52941176470588 303.1916976830471 170.49019607843135 301.04492978463634 182.45098039215688 286.4980162919601 194.41176470588235 274.2728952523907 206.37254901960785 248.701163778375 218.33333333333331 240.14776306841173 230.29411764705884 224.13254237628095 242.2549019607843 205.99825223014204 254.2156862745098 177.67987219546404 266.17647058823525 182.02412088959628 278.1372549019608 185.96798570844 290.0980392156863 190.05921992534863 302.05882352941177 193.89954294145352 314.01960784313724 197.74868456780203 325.9803921568627 201.36174996722372 337.94117647058823 204.41307186754142 349.90196078431376 207.94131551558013 361.8627450980392 211.2531355848867 373.8235294117647 214.57259148974313 385.78431372549016 213.02082101102428 397.7450980392157 211.35784743062186 409.7058823529412 214.67409176479475 421.66666666666663 217.58228837839488 433.62745098039215 219.70016869186057 445.5882352941177 220.23571099418285 457.54901960784315 223.02261909195886 469.5098039215686 225.88875908934926 481.4705882352941 228.6739280372526 493.4313725490196 210.94558233526652 505.39215686274514 200.73551851074538 517.3529411764705 188.30202287157613 529.3137254901961 177.57133447464304 541.2745098039215 172.06969172563538 553.2352941176471 175.62025913199523 565.1960784313726 178.33495622471943 577.156862745098 180.81054185384306 589.1176470588235 183.88806176801805 601.0784313725491 187.4215623339368 613.0392156862745 179.15852517227214 625 179.65771338567572 625 320 15 320"
      />
      
      <polygon
        fill="#f1e05a"
        fillRule="evenodd"
        points="15 318.6748338109094 26.96078431372549 318.7152837505585 38.92156862745098 318.7532529826167 50.88235294117647 318.79130917216844 62.84313725490196 318.82820372164423 74.80392156862746 318.86283559384793 86.76470588235294 318.8975469118438 98.72549019607844 318.9301293627079 110.68627450980392 318.9627864849775 122.64705882352942 315.0440066113409 134.60784313725492 315.18084963292375 146.5686274509804 315.3279517290005 158.52941176470588 315.4660318259668 170.49019607843135 312.9445942616215 182.45098039215688 298.04599309009035 194.41176470588235 294.7716449527393 206.37254901960785 288.5476311534159 218.33333333333331 281.1558794316182 230.29411764705884 276.18436610375903 242.2549019607843 265.1220781002187 254.2156862745098 246.71294370839638 266.17647058823525 248.94999461981425 278.1372549019608 250.98086714944358 290.0980392156863 253.08762823493515 302.05882352941177 255.06517659610535 314.01960784313724 257.04727526594667 325.9803921568627 258.90780914212894 337.94117647058823 260.7726043174501 349.90196078431376 262.58050281000567 361.8627450980392 264.2775043982014 373.8235294117647 265.97840825166776 385.78431372549016 262.90736749832865 397.7450980392157 259.7563449483948 409.7058823529412 261.5952349389002 421.66666666666663 263.20787948267025 433.62745098039215 264.08715660903096 445.5882352941177 263.34578604660015 457.54901960784315 264.81678727323657 469.5098039215686 266.44771517113975 481.4705882352941 267.99484812905985 493.4313725490196 249.24111506752666 505.39215686274514 244.53088991048355 517.3529411764705 230.76056603832853 529.3137254901961 221.28325596339926 541.2745098039215 214.44732113553926 553.2352941176471 216.70433916807895 565.1960784313726 218.28463565153504 577.156862745098 219.54078311773577 589.1176470588235 221.47364576717132 601.0784313725491 223.85987143135344 613.0392156862745 218.80651429614653 625 219.10346204178504 625 320 15 320"
      />
      

      
        <g id="labels">
        
          
          <text x="15" y="330">
            Apr 2018
          </text>
          
        
          
        
          
        
          
        
          
        
          
        
          
        
          
          <text x="97.11538461538461" y="330">
            Nov 2018
          </text>
          
        
          
        
          
        
          
        
          
        
          
        
          
        
          
          <text x="179.23076923076923" y="330">
            Jun 2019
          </text>
          
        
          
        
          
        
          
        
          
        
          
        
          
        
          
          <text x="261.3461538461538" y="330">
            Jan 2020
          </text>
          
        
          
        
          
        
          
        
          
        
          
        
          
        
          
          <text x="343.46153846153845" y="330">
            Aug 2020
          </text>
          
        
          
        
          
        
          
        
          
        
          
        
          
        
          
          <text x="425.5769230769231" y="330">
            Mar 2021
          </text>
          
        
          
        
          
        
          
        
          
        
          
        
          
        
          
          <text x="507.6923076923077" y="330">
            Oct 2021
          </text>
          
        
          
        
          
        
          
        
          
        
          
        
          
        
          
          <text x="589.8076923076923" y="330">
            May 2022
          </text>
          
        
          
        
          
        
        </g>
      

      
        <text text-anchor="middle" y="370" x="320" id="legend">
          
          <tspan xml:space="preserve" fill="#f1e05a">   ◉</tspan> JavaScript
          
          <tspan xml:space="preserve" fill="#dea584">   ◉</tspan> Rust
          
          <tspan xml:space="preserve" fill="#2b7489">   ◉</tspan> TypeScript
          
          <tspan xml:space="preserve" fill="#00ADD8">   ◉</tspan> Go
          
          <tspan xml:space="preserve" fill="#b07219">   ◉</tspan> Java
          
          <tspan xml:space="preserve" fill="#3572A5">   ◉</tspan> Python
          
          <tspan xml:space="preserve" fill="#f34b7d">   ◉</tspan> C++
          
          <tspan xml:space="preserve" fill="#555555">   ◉</tspan> C
          
        </text>
      
        <text text-anchor="middle" y="400" x="320" id="legend">
          
          <tspan xml:space="preserve" fill="#178600">   ◉</tspan> C#
          
        </text>
      

    </svg>