<svg
      xmlns="http://www.w3.org/2000/svg"
      viewBox="0 0 640 430"
      style="background-color: #fffc"
    >
      <style>
        text {
          font-size: 12px;
          font-family: Open Sans, Helvetica Neue, Helvetica, Arial, sans-serif;
        }
        #labels text {
          dominant-baseline: hanging;
          font-size: 10px;
          fill: rgba(0,0,0,0.5);
        }
        #legend {
          font-weight: 600;
        }
        #legend tspan {
          font-size: 15px;
        }
        #branding-text {
          font-size: 9px;
          dominant-baseline: hanging;
          opacity: 0.5;
        }
        #branding-logo {
          opacity: 0.5;
        }
      </style>

      
      
      <polygon
        fill="#178600"
        fillRule="evenodd"
        points="15 267.4617031655661 26.296296296296298 248.64035872383 37.592592592592595 250.74935784025845 48.888888888888886 252.86319372896475 60.18518518518518 252.8219050852124 71.48148148148148 254.80731429360833 82.77777777777777 256.79728622447084 94.07407407407408 258.66520871916646 105.37037037037037 260.53741721286076 116.66666666666666 214.21229131368557 127.96296296296296 215.2914816458665 139.25925925925924 218.48764852215123 150.55555555555554 220.37027651061896 161.85185185185185 206.13448820024513 173.14814814814815 171.77429920431646 184.44444444444446 156.25423199572523 195.74074074074073 105.29406134366957 207.03703703703704 98.75400754944647 218.33333333333331 65.09655121161694 229.62962962962965 49.0782260521176 240.92592592592592 15 252.22222222222223 24.309932783435897 263.5185185185185 32.76179975699739 274.81481481481484 41.52960554876984 286.1111111111111 49.75962503052273 297.4074074074074 58.00855681388151 308.7037037037037 65.7515617713712 320 72.1822443548401 331.2962962962963 79.74676108406655 342.5925925925926 86.8473250421674 353.8888888888889 93.96418996684389 365.18518518518516 93.99134139618863 376.48148148148147 95.96168582227943 387.7777777777778 102.80033098617582 399.0740740740741 108.79753641069595 410.3703703703704 114.2359871815924 421.66666666666663 117.88848461571678 432.962962962963 123.79951464740594 444.2592592592593 129.59811003069507 455.55555555555554 135.32251666070076 466.85185185185185 115.35714615754506 478.14814814814815 60.52055340293845 489.44444444444446 38.19567914787217 500.7407407407407 24.171337613788808 512.037037037037 23.046667108060035 523.3333333333334 31.1460603176032 534.6296296296297 37.849970881144486 545.9259259259259 44.613694646164674 557.2222222222222 51.71655775804766 568.5185185185186 59.28449835930576 579.8148148148148 44.55082233581743 591.1111111111111 47.730004489656096 602.4074074074074 54.56202999786882 613.7037037037037 59.91496124938493 625 66.86514010303384 625 320 15 320"
      />
      
      <polygon
        fill="#555555"
        fillRule="evenodd"
        points="15 273.4475067811114 26.296296296296298 254.4434490969494 37.592592592592595 256.38094077542775 48.888888888888886 258.3228758166988 60.18518518518518 258.1149336950672 71.48148148148148 259.943910433177 82.77777777777777 261.7770906688789 94.07407407407408 263.49783746569204 105.37037037037037 265.22253268051696 116.66666666666666 218.75439670424834 127.96296296296296 219.70817172111762 139.25925925925924 222.76952181393295 150.55555555555554 224.5256014295769 161.85185185185185 210.16297395438446 173.14814814814815 175.68372511608305 184.44444444444446 160.04432497018533 195.74074074074073 108.96846391977726 207.03703703703704 102.3198152937772 218.33333333333331 68.55351483751318 229.62962962962965 52.43302072546874 240.92592592592592 18.252391330235923 252.22222222222223 27.463046975476118 263.5185185185185 35.824786700636366 274.81481481481484 44.4990966275476 286.1111111111111 52.641354601464684 297.4074074074074 60.80232307956567 308.7037037037037 68.4627597890566 320 74.8106844222184 331.2962962962963 82.2949698067143 342.5925925925926 89.32022271230497 353.8888888888889 96.36160381532196 365.18518518518516 96.31790098689117 376.48148148148147 98.21722850775748 387.7777777777778 104.98702440176547 399.0740740740741 110.92385171934203 410.3703703703704 116.29739800982767 421.66666666666663 119.88897152909186 432.962962962963 125.73893785187079 444.2592592592593 131.4802145553771 455.55555555555554 137.1471710508125 466.85185185185185 117.12610401358577 478.14814814814815 69.0387077740069 489.44444444444446 46.4538210419596 500.7407407407407 32.185414119909524 512.037037037037 30.816118668062984 523.3333333333334 38.67835407268586 534.6296296296297 45.17428533803576 545.9259259259259 51.71443920340948 557.2222222222222 58.60744318181065 568.5185185185186 65.96504339138193 579.8148148148148 51.033927369759056 591.1111111111111 54.01521691357982 602.4074074074074 60.655389729565115 613.7037037037037 65.82823492465047 625 72.5979145782508 625 320 15 320"
      />
      
      <polygon
        fill="#f34b7d"
        fillRule="evenodd"
        points="15 280.3108497214088 26.296296296296298 267.90364397575763 37.592592592592595 269.4433260941313 48.888888888888886 270.9865399856817 60.18518518518518 270.3920469449701 71.48148148148148 271.85818045986326 82.77777777777777 273.32768418267875 94.07407407407408 274.70705912928906 105.37037037037037 276.08959949445057 116.66666666666666 229.28975184425127 127.96296296296296 229.9526285566355 139.25925925925924 232.7012728551104 150.55555555555554 234.1638244339345 161.85185185185185 219.50699605165403 173.14814814814815 184.7515896694447 184.44444444444446 168.83539857763637 195.74074074074073 117.49119438159579 207.03703703703704 110.59066087667424 218.33333333333331 76.57189784066722 229.62962962962965 60.21442416748221 240.92592592592592 25.796272204165746 252.22222222222223 34.77665534705966 263.5185185185185 42.92934631135063 274.81481481481484 51.38679339740963 286.1111111111111 59.32548933594603 297.4074074074074 67.28242788874479 308.7037037037037 74.7513489777273 320 80.90731811019589 331.2962962962963 88.20550775825464 342.5925925925926 95.0560776219852 353.8888888888889 101.92237495293037 365.18518518518516 101.71432690356679 376.48148148148147 103.44893139034596 387.7777777777778 110.05903225265675 399.0740740740741 115.85581343256146 410.3703703703704 121.07881388090095 421.66666666666663 124.5290755406823 432.962962962963 130.23740515468992 444.2592592592593 135.8457323692942 455.55555555555554 141.37943336945298 466.85185185185185 121.22917969682968 478.14814814814815 79.82199555541001 489.44444444444446 56.90795558425492 500.7407407407407 42.33058153114263 512.037037037037 40.65161106579467 523.3333333333334 48.213623151624574 534.6296296296297 54.44627021175933 545.9259259259259 60.70340287453871 557.2222222222222 67.33074277497403 568.5185185185186 74.4220684216341 579.8148148148148 59.24101005999546 591.1111111111111 61.97178242761123 602.4074074074074 68.36908663529314 613.7037037037037 73.31395739961988 625 79.85513934965127 625 320 15 320"
      />
      
      <polygon
        fill="#3572A5"
        fillRule="evenodd"
        points="15 287.17970294083705 26.296296296296298 281.364740258823 37.592592592592595 282.50658671710994 48.888888888888886 283.65105272237275 60.18518518518518 284.76058421999386 71.48148148148148 285.802064024982 82.77777777777777 286.8459368800289 94.07407407407408 287.8257879433253 105.37037037037037 288.8078858331226 116.66666666666666 245.74319005864567 127.96296296296296 245.9517590254552 139.25925925925924 248.21204083108321 150.55555555555554 249.21617869155142 161.85185185185185 234.0998855892 173.14814814814815 198.91319419189767 184.44444444444446 182.5647288320192 195.74074074074073 130.8014442271123 207.03703703703704 123.5075343395199 218.33333333333331 89.09449097024529 229.62962962962965 72.3669195520119 240.92592592592592 37.577818729599244 252.22222222222223 46.198575949499286 263.5185185185185 54.0247886045471 274.81481481481484 62.14355341172126 286.1111111111111 69.76433947413636 297.4074074074074 77.40263798790207 308.7037037037037 84.57246219512055 320 90.42864693410354 331.2962962962963 97.43620437017685 342.5925925925926 104.01396512671724 353.8888888888889 110.60682822407355 365.18518518518516 110.14211613444661 376.48148148148147 111.61946678502727 387.7777777777778 117.98016735938796 399.0740740740741 123.55823259971706 410.3703703703704 128.54612186367763 421.66666666666663 131.77569035109903 432.962962962963 137.2628213443145 444.2592592592593 142.6635155629278 455.55555555555554 147.98910740157007 466.85185185185185 127.6370976850049 478.14814814814815 92.84133691108258 489.44444444444446 69.52988906491194 500.7407407407407 54.579481337066454 512.037037037037 52.52662035367308 523.3333333333334 59.726153979449805 534.6296296296297 65.64092171953976 545.9259259259259 71.5563419591802 557.2222222222222 77.86293026837859 568.5185185185186 84.63276715845595 579.8148148148148 69.14993698518862 591.1111111111111 71.57824430018974 602.4074074074074 77.68231775621294 613.7037037037037 82.35194001990794 625 88.61724325022956 625 320 15 320"
      />
      
      <polygon
        fill="#b07219"
        fillRule="evenodd"
        points="15 289.56633985210493 26.296296296296298 283.67852645466627 37.592592592592595 284.751990196158 48.888888888888886 285.8279166300996 60.18518518518518 286.87100050178753 71.48148148148148 287.8501079702303 82.77777777777777 288.83146563907417 94.07407407407408 289.7526353488923 105.37037037037037 290.67591743847476 116.66666666666666 251.82937293187126 127.96296296296296 251.8698923900559 139.25925925925924 253.94952667134726 150.55555555555554 254.784096131554 161.85185185185185 239.49784567555045 173.14814814814815 213.21073251339192 184.44444444444446 198.67204754582278 195.74074074074073 150.73239693861177 207.03703703703704 143.5113702959338 218.33333333333331 108.48771975704815 229.62962962962965 93.30356631949292 240.92592592592592 57.875385156839855 252.22222222222223 65.8765720913521 263.5185185185185 73.14031740216316 274.81481481481484 80.67558910153585 286.1111111111111 87.74867086076372 297.4074074074074 94.83801036245052 308.7037037037037 101.4925413514716 320 106.83225200721705 331.2962962962963 113.33909592968351 342.5925925925926 119.44685903194545 353.8888888888889 125.56864291723173 365.18518518518516 124.66173920295196 376.48148148148147 125.69588733201508 387.7777777777778 131.62691217797902 399.0740740740741 136.82817006812576 410.3703703703704 141.41100097941413 421.66666666666663 144.26035575070705 432.962962962963 149.36639645034907 444.2592592592593 154.4093770470902 455.55555555555554 159.37643215954927 466.85185185185185 138.6768317946262 478.14814814814815 110.33904686463936 489.44444444444446 86.49349025957437 500.7407407407407 71.04173561611938 512.037037037037 68.48637104230355 523.3333333333334 75.19874532074596 534.6296296296297 80.68628754782449 545.9259259259259 86.14245695992958 557.2222222222222 92.0179601417021 568.5185185185186 98.35572137820665 579.8148148148148 87.98300923104085 591.1111111111111 93.17332868238128 602.4074074074074 98.61822735834812 613.7037037037037 102.66910116779653 625 108.31423381314394 625 320 15 320"
      />
      
      <polygon
        fill="#00ADD8"
        fillRule="evenodd"
        points="15 303.3856679371733 26.296296296296298 303.89280783927995 37.592592592592595 304.36884935817545 48.888888888888886 304.8459823655873 60.18518518518518 305.30854980059405 71.48148148148148 305.7427469370956 82.77777777777777 306.1779433846161 94.07407407407408 306.5864457890621 105.37037037037037 306.9958860740815 116.66666666666666 267.8754515390812 127.96296296296296 267.4729136171118 139.25925925925924 269.07627351674125 150.55555555555554 269.4637808410161 161.85185185185185 256.2224658860608 173.14814814814815 233.82193287579702 184.44444444444446 218.65410083919343 195.74074074074073 176.94873395196535 207.03703703703704 170.5159394980001 218.33333333333331 135.07602925806108 229.62962962962965 119.10607665938534 240.92592592592592 82.89028907100314 252.22222222222223 90.12790957298174 263.5185185185185 96.6984667344845 274.81481481481484 103.51463745849722 286.1111111111111 109.91272466563979 297.4074074074074 116.32551443826378 308.7037037037037 122.34499848914399 320 127.73908050011718 331.2962962962963 133.60775376220442 342.5925925925926 139.1164891746834 353.8888888888889 144.6378671638191 365.18518518518516 143.1673852646043 376.48148148148147 143.63665848523544 387.7777777777778 149.02005159869395 399.0740740740741 153.7410570879679 410.3703703703704 157.807630354894 421.66666666666663 160.1723905795249 432.962962962963 164.79272843814638 444.2592592592593 169.37978945627685 455.55555555555554 173.8898822640143 466.85185185185185 155.2328053798498 478.14814814814815 133.20719160887396 489.44444444444446 108.6635998968641 500.7407407407407 92.55661920965687 512.037037037037 89.34452816141518 523.3333333333334 95.42021565894396 534.6296296296297 100.3494117926052 545.9259259259259 105.20537455964191 557.2222222222222 110.51748543927823 568.5185185185186 116.29055637697974 579.8148148148148 105.38779242666146 591.1111111111111 110.04683846837386 602.4074074074074 114.97668646500063 613.7037037037037 118.54409821237275 625 123.70465158909639 625 320 15 320"
      />
      
      <polygon
        fill="#2b7489"
        fillRule="evenodd"
        points="15 303.3856679371733 26.296296296296298 303.89280783927995 37.592592592592595 304.36884935817545 48.888888888888886 304.8459823655873 60.18518518518518 305.30854980059405 71.48148148148148 305.7427469370956 82.77777777777777 306.1779433846161 94.07407407407408 306.5864457890621 105.37037037037037 306.9958860740815 116.66666666666666 274.9487764737513 127.96296296296296 274.35093238632373 139.25925925925924 275.7443446671665 150.55555555555554 275.93478057597974 161.85185185185185 273.2722568603735 173.14814814814815 257.223870632802 184.44444444444446 243.33316800909697 195.74074074074073 217.70292646272776 207.03703703703704 210.06566494580858 218.33333333333331 173.41852231799132 229.62962962962965 156.35007622238336 240.92592592592592 118.9974332561784 252.22222222222223 125.13290626374194 263.5185185185185 130.7028970608528 274.81481481481484 136.48110842184246 286.1111111111111 141.90488839284524 297.4074074074074 147.34113524306477 308.7037037037037 152.4439688278429 320 156.91930346196344 331.2962962962963 161.89725181569887 342.5925925925926 166.56991568217663 353.8888888888889 171.253286907132 365.18518518518516 168.9962075692979 376.48148148148147 168.67706590134216 387.7777777777778 173.29611976816523 399.0740740740741 177.34682297285315 410.3703703703704 180.6928444873699 421.66666666666663 182.3812453218313 432.962962962963 186.3236698864757 444.2592592592593 190.2743936088176 455.55555555555554 194.1466894315281 466.85185185185185 174.87128551233894 478.14814814814815 159.06672786314112 489.44444444444446 133.73378675587105 500.7407407407407 116.8858785059007 512.037037037037 112.93114557168653 523.3333333333334 118.28686188225967 534.6296296296297 122.58467271428196 545.9259259259259 126.76192072691808 557.2222222222222 131.4369367747023 568.5185185185186 136.57145446448325 579.8148148148148 125.06929869780359 591.1111111111111 129.1275785362965 602.4074074074074 133.47499652195046 613.7037037037037 136.49570022154666 625 141.1082914781875 625 320 15 320"
      />
      
      <polygon
        fill="#dea584"
        fillRule="evenodd"
        points="15 318.67483369751 26.296296296296298 318.7152836406206 37.592592592592595 318.7532528759279 48.888888888888886 318.79130906873627 60.18518518518518 318.82820362136925 71.48148148148148 318.8628354965366 82.77777777777777 318.8975468175028 94.07407407407408 318.93012927115507 105.37037037037037 318.9627863962193 116.66666666666666 303.52124607621573 127.96296296296296 302.13447273958 139.25925925925924 302.67980811927714 150.55555555555554 303.19169586274734 161.85185185185185 301.0449256162409 173.14814814814815 286.49800833239163 184.44444444444446 274.27288688325814 195.74074074074073 248.70115258438955 207.03703703703704 240.14776069125395 218.33333333333331 224.13253162620708 229.62962962962965 205.99826411847692 240.92592592592592 177.67987529464074 252.22222222222223 182.02410017029922 263.5185185185185 185.967931587633 274.81481481481484 190.05921135217355 286.1111111111111 193.89952196521057 297.4074074074074 197.74866455752934 308.7037037037037 201.36172008077563 320 204.41306515926365 331.2962962962963 207.94128046290555 342.5925925925926 211.2531390107125 353.8888888888889 214.5725856508531 365.18518518518516 213.02081058324907 376.48148148148147 211.35783813370966 387.7777777777778 214.67408911751517 399.0740740740741 217.5822859799805 410.3703703703704 219.7001308259251 421.66666666666663 220.2357024569824 432.962962962963 223.02263625664153 444.2592592592593 225.8887395773724 455.55555555555554 228.67393231725532 466.85185185185185 210.9455761859999 478.14814814814815 200.73548284144397 489.44444444444446 188.30204661386247 500.7407407407407 177.5713286523428 512.037037037037 172.0696816130296 523.3333333333334 175.62020221594005 534.6296296296297 178.3349663823883 545.9259259259259 180.81047010390137 557.2222222222222 183.88810677647288 568.5185185185186 187.42157199601044 579.8148148148148 179.1585385833415 591.1111111111111 181.56578130309748 602.4074074074074 184.31256059871077 613.7037037037037 185.83079018698453 625 188.93744112737366 625 320 15 320"
      />
      
      <polygon
        fill="#f1e05a"
        fillRule="evenodd"
        points="15 318.67483369751 26.296296296296298 318.7152836406206 37.592592592592595 318.7532528759279 48.888888888888886 318.79130906873627 60.18518518518518 318.82820362136925 71.48148148148148 318.8628354965366 82.77777777777777 318.8975468175028 94.07407407407408 318.93012927115507 105.37037037037037 318.9627863962193 116.66666666666666 315.04400618723815 127.96296296296296 315.1808492205312 139.25925925925924 315.32795107456207 150.55555555555554 315.46603105602736 161.85185185185185 312.94459365786423 173.14814814814815 298.0459873918949 184.44444444444446 294.7716383377608 195.74074074074073 288.5476259155803 207.03703703703704 281.1558805636771 218.33333333333331 276.1843623542926 229.62962962962965 265.1220886821495 240.92592592592592 246.71294634913994 252.22222222222223 248.9499859934619 263.5185185185185 250.98083832616285 274.81481481481484 253.0876225089952 286.1111111111111 255.06516721988194 297.4074074074074 257.04726987884834 308.7037037037037 258.90780391424346 320 260.77259924914205 331.2962962962963 262.5804851647076 342.5925925925926 264.2774996298207 353.8888888888889 265.97840999468895 365.18518518518516 262.9073651590399 376.48148148148147 259.7563334272724 387.7777777777778 261.59523630683697 399.0740740740741 263.2078746227577 410.3703703703704 264.0871352731533 421.66666666666663 263.3457875643381 432.962962962963 264.8168080144014 444.2592592592593 266.4477067689624 455.55555555555554 267.9948602299941 466.85185185185185 249.24111219535092 478.14814814814815 244.5308579889146 489.44444444444446 230.76058386517605 500.7407407407407 221.28325388169037 512.037037037037 214.44731846885406 523.3333333333334 216.70429213359026 534.6296296296297 218.28464604492166 545.9259259259259 219.54071722842428 557.2222222222222 221.47370099439826 568.5185185185186 223.85988866768295 579.8148148148148 218.80653110004147 591.1111111111111 220.1057627416168 602.4074074074074 221.67612863543843 613.7037037037037 222.09010617952737 625 224.08995046041832 625 320 15 320"
      />
      

      
        <g id="labels">
        
          
          <text x="15" y="330">
            Apr 2018
          </text>
          
        
          
        
          
        
          
        
          
        
          
        
          
        
          
          <text x="92.63636363636364" y="330">
            Nov 2018
          </text>
          
        
          
        
          
        
          
        
          
        
          
        
          
        
          
          <text x="170.27272727272728" y="330">
            Jun 2019
          </text>
          
        
          
        
          
        
          
        
          
        
          
        
          
        
          
          <text x="247.9090909090909" y="330">
            Jan 2020
          </text>
          
        
          
        
          
        
          
        
          
        
          
        
          
        
          
          <text x="325.54545454545456" y="330">
            Aug 2020
          </text>
          
        
          
        
          
        
          
        
          
        
          
        
          
        
          
          <text x="403.1818181818182" y="330">
            Mar 2021
          </text>
          
        
          
        
          
        
          
        
          
        
          
        
          
        
          
          <text x="480.8181818181818" y="330">
            Oct 2021
          </text>
          
        
          
        
          
        
          
        
          
        
          
        
          
        
          
          <text x="558.4545454545455" y="330">
            May 2022
          </text>
          
        
          
        
          
        
          
        
          
        
          
        
        </g>
      

      
        <text text-anchor="middle" y="370" x="320" id="legend">
          
          <tspan xml:space="preserve" fill="#f1e05a">   ◉</tspan> JavaScript
          
          <tspan xml:space="preserve" fill="#dea584">   ◉</tspan> Rust
          
          <tspan xml:space="preserve" fill="#2b7489">   ◉</tspan> TypeScript
          
          <tspan xml:space="preserve" fill="#00ADD8">   ◉</tspan> Go
          
          <tspan xml:space="preserve" fill="#b07219">   ◉</tspan> Java
          
          <tspan xml:space="preserve" fill="#3572A5">   ◉</tspan> Python
          
          <tspan xml:space="preserve" fill="#f34b7d">   ◉</tspan> C++
          
          <tspan xml:space="preserve" fill="#555555">   ◉</tspan> C
          
        </text>
      
        <text text-anchor="middle" y="400" x="320" id="legend">
          
          <tspan xml:space="preserve" fill="#178600">   ◉</tspan> C#
          
        </text>
      

    </svg>