<svg
      xmlns="http://www.w3.org/2000/svg"
      viewBox="0 0 640 430"
      style="background-color: #fffc"
    >
      <style>
        text {
          font-size: 12px;
          font-family: Open Sans, Helvetica Neue, Helvetica, Arial, sans-serif;
        }
        #labels text {
          dominant-baseline: hanging;
          font-size: 10px;
          fill: rgba(0,0,0,0.5);
        }
        #legend {
          font-weight: 600;
        }
        #legend tspan {
          font-size: 15px;
        }
        #branding-text {
          font-size: 9px;
          dominant-baseline: hanging;
          opacity: 0.5;
        }
        #branding-logo {
          opacity: 0.5;
        }
      </style>

      
      
      <polygon
        fill="#178600"
        fillRule="evenodd"
        points="15 267.4616979632307 26.730769230769234 248.6403623944003 38.46153846153847 250.74935833230595 50.19230769230769 252.86319422542417 61.92307692307693 252.8219049450007 73.65384615384616 254.807318613635 85.38461538461539 256.79728927548103 97.11538461538461 258.6652117740753 108.84615384615385 260.53741899850735 120.57692307692308 214.21228752801372 132.30769230769232 215.29147805342257 144.03846153846155 218.4876466551575 155.76923076923077 220.3702750295056 167.5 206.13448923575902 179.23076923076923 171.77429762177528 190.96153846153845 156.2542431124897 202.6923076923077 105.29406025895818 214.42307692307693 98.75401090717943 226.15384615384616 65.09656150153549 237.88461538461536 49.0782076622815 249.61538461538464 15 261.3461538461538 24.309930256527537 273.0769230769231 32.761802976993806 284.8076923076923 41.52960878706608 296.53846153846155 49.75962192014708 308.2692307692308 58.00857982070488 320 65.75158606752527 331.7307692307693 72.18226293515167 343.46153846153845 79.74677108627 355.1923076923077 86.84734683601215 366.9230769230769 93.9641589389935 378.65384615384613 93.99135301958523 390.3846153846154 95.961674532731 402.1153846153846 102.80030952554193 413.84615384615387 108.79755888693921 425.5769230769231 114.23599986577875 437.3076923076923 117.88848011973337 449.03846153846155 123.79951360131847 460.7692307692307 129.59811281621978 472.5 135.32249845087063 484.2307692307693 115.35715209627114 495.96153846153845 60.520561773551265 507.6923076923077 38.19564354752936 519.4230769230769 24.171368189007467 531.1538461538462 23.046661395590434 542.8846153846154 31.146040935462338 554.6153846153846 37.84998684345925 566.3461538461538 44.613692798218494 578.0769230769231 51.71651009081137 589.8076923076923 59.28444243226096 601.5384615384615 44.550857409665866 613.2692307692307 47.73010768472744 625 49.906855101955784 625 320 15 320"
      />
      
      <polygon
        fill="#555555"
        fillRule="evenodd"
        points="15 273.44750159126926 26.730769230769234 254.4434527796317 38.46153846153847 256.38094127922926 50.19230769230769 258.3228763245535 61.92307692307693 258.1149335659029 73.65384615384616 259.94391476392457 85.38461538461539 261.7770937302828 97.11538461538461 263.4978405306874 108.84615384615385 265.2225344759422 120.57692307692308 218.75439292805657 132.30769230769232 219.70816813789202 144.03846153846155 222.7695199558762 155.76923076923077 224.52559995713636 167.5 210.16297499830645 179.23076923076923 175.68372354170148 190.96153846153845 160.04433609486034 202.6923076923077 108.96846284273494 214.42307692307693 102.31981865895256 226.15384615384616 68.55352513464697 237.88461538461536 52.433002342634666 249.61538461538464 18.25239133702422 261.3461538461538 27.463044455148804 273.0769230769231 35.82478992702573 284.8076923076923 44.499099872041654 296.53846153846155 52.64135149710364 308.2692307692308 60.802346092220034 320 68.4627840908694 331.7307692307693 74.81070300801596 343.46153846153845 82.29497981423634 355.1923076923077 89.32024451131107 366.9230769230769 96.36157279247536 378.65384615384613 96.31791261514363 390.3846153846154 98.21721722291676 402.1153846153846 104.98700294569556 413.84615384615387 110.92387420002328 425.5769230769231 116.29741069831655 437.3076923076923 119.8889670372838 449.03846153846155 125.73893680983122 460.7692307692307 131.48021734483004 472.5 137.1471528447907 484.2307692307693 117.12610995600397 495.96153846153845 69.03871616239852 507.6923076923077 46.45378545885279 519.4230769230769 32.18544471185487 531.1538461538462 30.816112971809503 542.8846153846154 38.678334706266185 554.6153846153846 45.17430131563759 566.3461538461538 51.71443737028369 578.0769230769231 58.60739552895683 589.8076923076923 65.96498747828056 601.5384615384615 51.033962457138784 613.2692307692307 54.015320121769435 625 56.125727750412864 625 320 15 320"
      />
      
      <polygon
        fill="#f34b7d"
        fillRule="evenodd"
        points="15 280.31084454589154 26.730769230769234 267.90364641336373 38.46153846153847 269.44332662519616 50.19230769230769 270.98654051996755 61.92307692307693 270.39204684143016 73.65384615384616 271.85818354230804 85.38461538461539 273.3276847218509 97.11538461538461 274.70706221767995 108.84615384615385 276.0895994028024 120.57692307692308 229.28974809004853 132.30769230769232 229.95262372162188 144.03846153846155 232.70127101778283 155.76923076923077 234.1638229816105 167.5 219.50699711507852 179.23076923076923 184.75158811398927 190.96153846153845 168.83540908407488 202.6923076923077 117.49119332234184 214.42307692307693 110.59066425911223 226.15384615384616 76.57190879112164 237.88461538461536 60.21440643747411 249.61538461538464 25.79627222669933 261.3461538461538 34.77665284199702 273.0769230769231 42.9293501891533 284.8076923076923 51.386796656279444 296.53846153846155 59.3254862455359 308.2692307692308 67.28245091492423 320 74.75137329266539 331.7307692307693 80.90733734530306 343.46153846153845 88.20551745982044 355.1923076923077 95.05609943296298 366.9230769230769 101.92234394169 378.65384615384613 101.71433854308248 390.3846153846154 103.44892011642463 402.1153846153846 110.05901080717297 413.84615384615387 115.85583592353652 425.5769230769231 121.07882683400337 437.3076923076923 124.52907131319287 449.03846153846155 130.2374041220394 460.7692307692307 135.8457351678587 472.5 141.37941580884956 484.2307692307693 121.22918564781168 495.96153846153845 79.8220039663081 507.6923076923077 56.90792002296763 519.4230769230769 42.3306115076777 531.1538461538462 40.65160475348449 542.8846153846154 48.213604123398966 554.6153846153846 54.446286208713275 566.3461538461538 60.70340106017443 578.0769230769231 67.33069450374222 589.8076923076923 74.42201188959902 601.5384615384615 59.241044527919826 613.2692307692307 61.97188565240742 625 63.99831308750805 625 320 15 320"
      />
      
      <polygon
        fill="#3572A5"
        fillRule="evenodd"
        points="15 287.1796984162412 26.730769230769234 281.3647427245246 38.46153846153847 282.506586638855 50.19230769230769 283.65105328309147 61.92307692307693 284.7605841464434 73.65384615384616 285.8020658633601 85.38461538461539 286.84593744741585 97.11538461538461 287.8257897859272 108.84615384615385 288.80788576801956 120.57692307692308 245.74318506561406 132.30769230769232 245.95175549700429 144.03846153846155 248.21203902612916 155.76923076923077 249.21617981698387 167.5 234.09988668308225 179.23076923076923 198.91319521233953 190.96153846153845 182.56473936711308 202.6923076923077 130.80144319563902 214.42307692307693 123.50753647574768 226.15384615384616 89.0945019468364 237.88461538461536 72.36689993761325 249.61538461538464 37.57781750355298 261.3461538461538 46.19857346827604 273.0769230769231 54.02479250550783 284.8076923076923 62.143556693042115 296.53846153846155 69.76433640551377 308.2692307692308 77.40266039861913 320 84.57248653055692 331.7307692307693 90.42866618908329 343.46153846153845 97.43621345442372 355.1923076923077 104.01398695639159 366.9230769230769 110.60679723095907 378.65384615384613 110.14212715496757 390.3846153846154 111.6194555281592 402.1153846153846 117.98014593043686 413.84615384615387 123.55825447018339 425.5769230769231 128.54613419578055 437.3076923076923 131.77568613873447 449.03846153846155 137.2628203263271 460.7692307692307 142.6635190123071 472.5 147.989090491347 484.2307692307693 127.63710428594621 495.96153846153845 92.84134662232407 507.6923076923077 69.52985352996873 519.4230769230769 54.57950942941221 531.1538461538462 52.526614066148056 542.8846153846154 59.72613497525276 554.6153846153846 65.6409377398588 566.3461538461538 71.55634016746771 578.0769230769231 77.86288265571412 589.8076923076923 84.63271064773221 601.5384615384615 69.14997147379455 613.2692307692307 71.57834818162115 625 73.5033803692858 625 320 15 320"
      />
      
      <polygon
        fill="#b07219"
        fillRule="evenodd"
        points="15 289.5663353324904 26.730769230769234 283.67852892519716 38.46153846153847 284.75199012258963 50.19230769230769 285.82791719536175 61.92307692307693 286.8710004326419 73.65384615384616 287.850109812883 85.38461538461539 288.83146621060524 97.11538461538461 289.7526371955159 108.84615384615385 290.6759173772706 120.57692307692308 251.8293679515425 132.30769230769232 251.86988887395708 144.03846153846155 253.9495248783683 155.76923076923077 254.78409726860758 167.5 239.49784678069912 179.23076923076923 213.2107316539203 190.96153846153845 198.67205811453528 202.6923076923077 150.73239594873763 214.42307692307693 143.51137120074299 226.15384615384616 108.48772950094624 237.88461538461536 93.30354674879246 249.61538461538464 57.87538397315791 261.3461538461538 65.8765696512001 273.0769230769231 73.14032134302107 284.8076923076923 80.67559242153615 296.53846153846155 87.74867037601715 308.2692307692308 94.83803535589774 320 101.49256572222296 331.7307692307693 106.83227002326393 343.46153846153845 113.33910504712227 355.1923076923077 119.44687707432121 366.9230769230769 125.56860940900535 378.65384615384613 124.66175025377774 390.3846153846154 125.69587483135697 402.1153846153846 131.62689077751097 413.84615384615387 136.82819005653383 425.5769230769231 141.41101333836818 437.3076923076923 144.26034965464524 449.03846153846155 149.36639418445395 460.7692307692307 154.4093817941549 472.5 159.3764152730934 484.2307692307693 138.67683841860924 495.96153846153845 110.33905661240144 507.6923076923077 86.49345730637668 519.4230769230769 71.04176246965466 531.1538461538462 68.48636733442879 542.8846153846154 75.19872507567291 554.6153846153846 80.68630232637582 566.3461538461538 86.14245201573607 578.0769230769231 92.01791255858149 589.8076923076923 98.35566616929486 601.5384615384615 87.98304694187911 613.2692307692307 93.1734351552249 625 94.87053492626035 625 320 15 320"
      />
      
      <polygon
        fill="#00ADD8"
        fillRule="evenodd"
        points="15 303.3856647195718 26.730769230769234 303.8928090788315 38.46153846153847 304.3688493255507 50.19230769230769 304.84598297054333 61.92307692307693 305.3085497699306 73.65384615384616 305.7427469073384 85.38461538461539 306.1779414460124 97.11538461538461 306.5864457610658 108.84615384615385 306.99588604693975 120.57692307692308 267.8754465922433 132.30769230769232 267.4729088604092 144.03846153846155 269.07627239191925 155.76923076923077 269.46378073553876 167.5 256.2224670261165 179.23076923076923 233.82192951300462 190.96153846153845 218.6541101764419 202.6923076923077 176.948733016809 214.42307692307693 170.51594045917224 226.15384615384616 135.07604224037797 237.88461538461536 119.10605714253896 249.61538461538464 82.89027902734242 261.3461538461538 90.12790718344627 273.0769230769231 96.69846817817242 284.8076923076923 103.51464082616636 296.53846153846155 109.91272422715318 308.2692307692308 116.32553947655896 320 122.34502035707814 331.7307692307693 127.73909855980006 343.46153846153845 133.6077629219472 355.1923076923077 139.116505984943 366.9230769230769 144.63783114905354 378.65384615384613 143.16739762722423 390.3846153846154 143.63664729519252 402.1153846153846 149.02002896135832 413.84615384615387 153.74107711167593 425.5769230769231 157.8076440212404 437.3076923076923 160.17238642642891 449.03846153846155 164.79272365810888 460.7692307692307 169.37979678092697 472.5 173.8898660444353 484.2307692307693 155.232810765218 495.96153846153845 133.20720904338478 507.6923076923077 108.66356698993906 519.4230769230769 92.55664610809725 531.1538461538462 89.34452640682966 542.8846153846154 95.42019927558599 554.6153846153846 100.34942597561175 566.3461538461538 105.20537092840567 578.0769230769231 110.51743789476916 589.8076923076923 116.29050438842552 601.5384615384615 105.38783017382633 613.2692307692307 110.0469462496051 625 111.56594610881129 625 320 15 320"
      />
      
      <polygon
        fill="#2b7489"
        fillRule="evenodd"
        points="15 303.3856647195718 26.730769230769234 303.8928090788315 38.46153846153847 304.3688493255507 50.19230769230769 304.84598297054333 61.92307692307693 305.3085497699306 73.65384615384616 305.7427469073384 85.38461538461539 306.1779414460124 97.11538461538461 306.5864457610658 108.84615384615385 306.99588604693975 120.57692307692308 274.9487715416766 132.30769230769232 274.35092764397666 144.03846153846155 275.7443435562618 155.76923076923077 275.9347804840084 167.5 273.2722567628451 179.23076923076923 257.22386349934374 190.96153846153845 243.3331799441944 202.6923076923077 217.70292561263207 214.42307692307693 210.0656685358672 226.15384615384616 173.41853092424077 237.88461538461536 156.35005678327133 249.61538461538464 118.9974271073888 261.3461538461538 125.13291222287168 273.0769230769231 130.7028998486834 284.8076923076923 136.4811080388085 296.53846153846155 141.90488547479183 308.2692307692308 147.3411539802453 320 152.44399330493823 331.7307692307693 156.9193164898708 343.46153846153845 161.8972705832604 355.1923076923077 166.56992491071685 366.9230769230769 171.25326113327608 378.65384615384613 168.99621743948705 390.3846153846154 168.67705285380785 402.1153846153846 173.2960971814977 413.84615384615387 177.3468430458303 425.5769230769231 180.69285820148147 437.3076923076923 182.38123866874915 449.03846153846155 186.3236651513768 460.7692307692307 190.27440097707816 472.5 194.14667707373798 484.2307692307693 174.8712909386959 495.96153846153845 159.06674662479486 507.6923076923077 133.73375390127163 519.4230769230769 116.88589717951615 531.1538461538462 112.93113877365064 542.8846153846154 118.28684872955276 554.6153846153846 122.58468821686705 566.3461538461538 126.76191714067392 578.0769230769231 131.436885454346 589.8076923076923 136.57140124508874 601.5384615384615 125.06933903238672 613.2692307692307 129.1276863573524 625 130.44529429877483 625 320 15 320"
      />
      
      <polygon
        fill="#dea584"
        fillRule="evenodd"
        points="15 318.67483369474417 26.730769230769234 318.7152836379392 38.46153846153847 318.7532528733257 50.19230769230769 318.79130906621356 61.92307692307693 318.82820361892357 73.65384615384616 318.8628354941631 85.38461538461539 318.8975468152018 97.11538461538461 318.9301292689221 108.84615384615385 318.9627863940545 120.57692307692308 303.52124629645584 132.30769230769232 302.1344731479012 144.03846153846155 302.67980961093093 155.76923076923077 303.1916958276656 167.5 301.04492557667857 179.23076923076923 286.49800635271265 190.96153846153845 274.2728893341579 202.6923076923077 248.7011549819169 214.42307692307693 240.1477668904385 226.15384615384616 224.13253142611597 237.88461538461536 205.99824160006412 249.61538461538464 177.67986926833098 261.3461538461538 182.02410624817023 273.0769230769231 185.9679376737354 284.8076923076923 190.0592085346261 296.53846153846155 193.8995191556785 308.2692307692308 197.74868339991863 320 201.36175739166885 331.7307692307693 204.413071920449 343.46153846153845 207.94130569241779 355.1923076923077 211.25315151543856 366.9230769230769 214.5725599674117 378.65384615384613 213.02081417947556 390.3846153846154 211.3578315411064 402.1153846153846 214.6740729830595 413.84615384615387 217.58229913450145 425.5769230769231 219.7001497141307 437.3076923076923 220.2356958829087 449.03846153846155 223.02262968838463 460.7692307692307 225.88874320045636 472.5 228.67392512420864 484.2307692307693 210.94557850472518 495.96153846153845 200.73550169006725 507.6923076923077 188.30202405851475 519.4230769230769 177.57132835507085 531.1538461538462 172.06966857257623 542.8846153846154 175.62020828044504 554.6153846153846 178.33498200133343 566.3461538461538 180.81045071584217 578.0769230769231 183.8880587485154 589.8076923076923 187.42154116322098 601.5384615384615 179.15857903081775 613.2692307692307 181.56588923360047 625 182.3300152258801 625 320 15 320"
      />
      
      <polygon
        fill="#f1e05a"
        fillRule="evenodd"
        points="15 318.67483369474417 26.730769230769234 318.7152836379392 38.46153846153847 318.7532528733257 50.19230769230769 318.79130906621356 61.92307692307693 318.82820361892357 73.65384615384616 318.8628354941631 85.38461538461539 318.8975468152018 97.11538461538461 318.9301292689221 108.84615384615385 318.9627863940545 120.57692307692308 315.04400643152815 132.30769230769232 315.1808496560823 144.03846153846155 315.32795131944465 155.76923076923077 315.46603104656424 167.5 312.94459364313843 179.23076923076923 298.04598416314866 190.96153846153845 294.7716408314448 202.6923076923077 288.54762839627375 214.42307692307693 281.1558868484524 226.15384615384616 276.18436226284217 237.88461538461536 265.12208220176103 249.61538461538464 246.71293728398888 261.3461538461538 248.94998584516887 273.0769230769231 250.9808413650332 284.8076923076923 253.0876223693381 296.53846153846155 255.06517090386188 308.2692307692308 257.0472697474557 320 258.907812698923 331.7307692307693 260.7726156767329 343.46153846153845 262.58049777656225 355.1923076923077 264.27750587936794 366.9230769230769 265.97838441853986 378.65384615384613 262.9073714057275 390.3846153846154 259.756333301534 402.1153846153846 261.59522663616275 413.84615384615387 263.20788405299714 425.5769230769231 264.0871478881526 437.3076923076923 263.34577471439286 449.03846153846155 264.8167919846018 460.7692307692307 266.44771047669957 472.5 267.9948563019413 484.2307692307693 249.24111204766552 495.96153846153845 244.530876928946 507.6923076923077 230.76056458137091 519.4230769230769 221.28324730980307 531.1538461538462 214.4472991510005 542.8846153846154 216.7042855521459 554.6153846153846 218.28466493017294 566.3461538461538 219.54069792120146 578.0769230769231 221.47364986196345 589.8076923076923 223.8598502719271 601.5384615384615 218.80656908392984 613.2692307692307 220.105870752559 625 220.4632113364096 625 320 15 320"
      />
      

      
        <g id="labels">
        
          
          <text x="15" y="330">
            Apr 2018
          </text>
          
        
          
        
          
        
          
        
          
        
          
        
          
        
          
          <text x="95.56603773584905" y="330">
            Nov 2018
          </text>
          
        
          
        
          
        
          
        
          
        
          
        
          
        
          
          <text x="176.1320754716981" y="330">
            Jun 2019
          </text>
          
        
          
        
          
        
          
        
          
        
          
        
          
        
          
          <text x="256.6981132075472" y="330">
            Jan 2020
          </text>
          
        
          
        
          
        
          
        
          
        
          
        
          
        
          
          <text x="337.2641509433962" y="330">
            Aug 2020
          </text>
          
        
          
        
          
        
          
        
          
        
          
        
          
        
          
          <text x="417.8301886792453" y="330">
            Mar 2021
          </text>
          
        
          
        
          
        
          
        
          
        
          
        
          
        
          
          <text x="498.39622641509436" y="330">
            Oct 2021
          </text>
          
        
          
        
          
        
          
        
          
        
          
        
          
        
          
          <text x="578.9622641509434" y="330">
            May 2022
          </text>
          
        
          
        
          
        
          
        
        </g>
      

      
        <text text-anchor="middle" y="370" x="320" id="legend">
          
          <tspan xml:space="preserve" fill="#f1e05a">   ◉</tspan> JavaScript
          
          <tspan xml:space="preserve" fill="#dea584">   ◉</tspan> Rust
          
          <tspan xml:space="preserve" fill="#2b7489">   ◉</tspan> TypeScript
          
          <tspan xml:space="preserve" fill="#00ADD8">   ◉</tspan> Go
          
          <tspan xml:space="preserve" fill="#b07219">   ◉</tspan> Java
          
          <tspan xml:space="preserve" fill="#3572A5">   ◉</tspan> Python
          
          <tspan xml:space="preserve" fill="#f34b7d">   ◉</tspan> C++
          
          <tspan xml:space="preserve" fill="#555555">   ◉</tspan> C
          
        </text>
      
        <text text-anchor="middle" y="400" x="320" id="legend">
          
          <tspan xml:space="preserve" fill="#178600">   ◉</tspan> C#
          
        </text>
      

    </svg>