<svg
      xmlns="http://www.w3.org/2000/svg"
      viewBox="0 0 640 430"
      style="background-color: #fffc"
    >
      <style>
        text {
          font-size: 12px;
          font-family: Open Sans, Helvetica Neue, Helvetica, Arial, sans-serif;
        }
        #labels text {
          dominant-baseline: hanging;
          font-size: 10px;
          fill: rgba(0,0,0,0.5);
        }
        #legend {
          font-weight: 600;
        }
        #legend tspan {
          font-size: 15px;
        }
        #branding-text {
          font-size: 9px;
          dominant-baseline: hanging;
          opacity: 0.5;
        }
        #branding-logo {
          opacity: 0.5;
        }
      </style>

      
      
      <polygon
        fill="#178600"
        fillRule="evenodd"
        points="15 267.46170538003776 26.730769230769234 248.6403651425899 38.46153846153847 250.7493615982313 50.19230769230769 252.8631941893032 61.92307692307693 252.82191000388565 73.65384615384616 254.80731974112575 85.38461538461539 256.7972922005849 97.11538461538461 258.6652133207455 108.84615384615385 260.5374178933327 120.57692307692308 214.21228559586007 132.30769230769232 215.29147968898675 144.03846153846155 218.48765173914055 155.76923076923077 220.37028866495064 167.5 206.13449310612998 179.23076923076923 171.77429960895114 190.96153846153845 156.2542427913492 202.6923076923077 105.29407108520172 214.42307692307693 98.75403992635401 226.15384615384616 65.09656695402668 237.88461538461536 49.07821338087672 249.61538461538464 15 261.3461538461538 24.309950102597668 273.0769230769231 32.76181916384752 284.8076923076923 41.52961811397512 296.53846153846155 49.759632693021445 308.2692307692308 58.00858312628844 320 65.75159148310354 331.7307692307693 72.18227308101851 343.46153846153845 79.74679544730347 355.1923076923077 86.84733578473481 366.9230769230769 93.96418440858332 378.65384615384613 93.99135238766189 390.3846153846154 95.96170148121618 402.1153846153846 102.80032622158083 413.84615384615387 108.79754850844714 425.5769230769231 114.23600445884938 437.3076923076923 117.88852422987154 449.03846153846155 123.7995036505848 460.7692307692307 129.59811527041302 472.5 135.32252763733314 484.2307692307693 115.35715700811195 495.96153846153845 60.52054202052 507.6923076923077 38.195672159865524 519.4230769230769 24.171374038018484 531.1538461538462 23.04669659088745 542.8846153846154 31.14608331335046 554.6153846153846 37.85002757038728 566.3461538461538 44.61370704400798 578.0769230769231 51.716560858256685 589.8076923076923 59.28442338547404 601.5384615384615 44.550829644393446 613.2692307692307 47.73009119882147 625 54.56205076804167 625 320 15 320"
      />
      
      <polygon
        fill="#555555"
        fillRule="evenodd"
        points="15 273.44750867075584 26.730769230769234 254.44345520079736 38.46153846153847 256.3809442277957 50.19230769230769 258.3228759807608 61.92307692307693 258.1149383265076 73.65384615384616 259.9439156019506 85.38461538461539 261.77709637475755 97.11538461538461 263.49784180502246 108.84615384615385 265.2225331067453 120.57692307692308 218.75439073993977 132.30769230769232 219.70816952456062 144.03846153846155 222.76952479856106 155.76923076923077 224.52561335841463 167.5 210.16297864165847 179.23076923076923 175.68372530856783 190.96153846153845 160.0443355601351 202.6923076923077 108.96847346191333 214.42307692307693 102.3198474771817 226.15384615384616 68.55353039232645 237.88461538461536 52.43300787217572 249.61538461538464 18.25239115374086 261.3461538461538 27.463064123530216 273.0769230769231 35.82480594126969 284.8076923076923 44.49910903160969 296.53846153846155 52.64136210758272 308.2692307692308 60.802349240365345 320 68.4627893536624 331.7307692307693 74.81071300576124 343.46153846153845 82.29500403166952 355.1923076923077 89.32023332067749 366.9230769230769 96.36159812696272 378.65384615384613 96.31791185211074 390.3846153846154 98.21724404429438 402.1153846153846 104.9870195185068 413.84615384615387 110.92386370170607 425.5769230769231 116.29741517521961 437.3076923076923 119.88901103468774 449.03846153846155 125.73892674980436 460.7692307692307 131.4802196929603 472.5 137.14718192842767 484.2307692307693 117.126114768158 495.96153846153845 69.03869592934012 507.6923076923077 46.4538136058145 519.4230769230769 32.18545010924527 531.1538461538462 30.816147729271393 542.8846153846154 38.67837665968375 554.6153846153846 45.1743416298155 566.3461538461538 51.714451215922 578.0769230769231 58.60744590807718 589.8076923076923 65.96496805502213 601.5384615384615 51.03393432652126 613.2692307692307 54.0153032816703 625 60.65541016907417 625 320 15 320"
      />
      
      <polygon
        fill="#f34b7d"
        fillRule="evenodd"
        points="15 280.3108512386053 26.730769230769234 267.90364807600145 38.46153846153847 269.44332883765253 50.19230769230769 270.9865394625341 61.92307692307693 270.3920496370078 73.65384615384616 271.8581849820941 85.38461538461539 273.32768926175 97.11538461538461 274.70706286033703 108.84615384615385 276.0895993309639 120.57692307692308 229.28974530822848 132.30769230769232 229.95262580415022 144.03846153846155 232.70127466419467 155.76923076923077 234.16383583974198 167.5 219.507000231863 179.23076923076923 184.75158936985048 190.96153846153845 168.83540805394267 202.6923076923077 117.49120346123522 214.42307692307693 110.59069261125094 226.15384615384616 76.5719129603529 237.88461538461536 60.214410891921545 249.61538461538464 25.796272254877408 261.3461538461538 34.776672098231586 273.0769230769231 42.92936516644613 284.8076923076923 51.38680606428716 296.53846153846155 59.325496479341155 308.2692307692308 67.28245433447836 320 74.75137820107494 331.7307692307693 80.90734636289727 343.46153846153845 88.20554134417466 355.1923076923077 95.05608791909438 366.9230769230769 101.92236896280889 378.65384615384613 101.71433683935766 390.3846153846154 103.4489463246855 402.1153846153846 110.05902709415923 413.84615384615387 115.85582514728642 425.5769230769231 121.07883104145728 437.3076923076923 124.5291147944771 449.03846153846155 130.23739380850859 460.7692307692307 135.8457372699771 472.5 141.3794443356916 484.2307692307693 121.22918984679237 495.96153846153845 79.8219843987444 507.6923076923077 56.907947580803125 519.4230769230769 42.33061633335325 531.1538461538462 40.6516389566828 542.8846153846154 48.2136455394716 554.6153846153846 54.44632600038324 566.3461538461538 60.70341439925386 578.0769230769231 67.33074439127489 589.8076923076923 74.42199262634324 601.5384615384615 59.241016571390105 613.2692307692307 61.97186900051349 625 68.3691066562088 625 320 15 320"
      />
      
      <polygon
        fill="#3572A5"
        fillRule="evenodd"
        points="15 287.1797047218716 26.730769230769234 281.36474362858354 38.46153846153847 282.50659002490676 50.19230769230769 283.65105151196946 61.92307692307693 284.7605861323049 73.65384615384616 285.8020677905305 85.38461538461539 286.8459412255153 97.11538461538461 287.825790962469 108.84615384615385 288.807886252632 120.57692307692308 245.7431826297564 132.30769230769232 245.95175540475708 144.03846153846155 248.21204116187135 155.76923076923077 249.21618928052402 167.5 234.09988897750753 179.23076923076923 198.913194396976 190.96153846153845 182.5647375632862 202.6923076923077 130.80145258445432 214.42307692307693 123.50756409997655 226.15384615384616 89.09450541037677 237.88461538461536 72.36690370722621 249.61538461538464 37.57781814097052 261.3461538461538 46.19859208084637 273.0769230769231 54.02480813070429 284.8076923076923 62.14356549486973 296.53846153846155 69.76434605105413 308.2692307692308 77.40266388444977 320 84.57249088551313 331.7307692307693 90.42867467011806 343.46153846153845 97.43623681859665 355.1923076923077 104.01397493771537 366.9230769230769 110.60682176267937 378.65384615384613 110.14212561289293 390.3846153846154 111.61948127598245 402.1153846153846 117.98016177104012 413.84615384615387 123.5582438964606 425.5769230769231 128.54613734584132 437.3076923076923 131.7757298482321 449.03846153846155 137.26280898030518 460.7692307692307 142.66352073022006 472.5 147.98911800912646 484.2307692307693 127.63710748723392 495.96153846153845 92.84132504790611 507.6923076923077 69.52988037651508 519.4230769230769 54.57951356482056 531.1538461538462 52.52664632697923 542.8846153846154 59.726175742554915 554.6153846153846 65.64097690067183 566.3461538461538 71.55635480470167 578.0769230769231 77.86293194972197 589.8076923076923 84.63269080906869 601.5384615384615 69.14994359544775 613.2692307692307 71.57833098837025 625 77.68233727173444 625 320 15 320"
      />
      
      <polygon
        fill="#b07219"
        fillRule="evenodd"
        points="15 289.5663415036256 26.730769230769234 283.6785296988663 38.46153846153847 284.7519933821052 50.19230769230769 285.827915301566 61.92307692307693 286.87100229957423 73.65384615384616 287.85011162463917 85.38461538461539 288.8314698768133 97.11538461538461 289.7526382634732 108.84615384615385 290.67591775661305 120.57692307692308 251.82936517270767 132.30769230769232 251.86988844820286 144.03846153846155 253.94952669078356 155.76923076923077 254.78410641837658 167.5 239.49784877093094 179.23076923076923 213.2107319425964 190.96153846153845 198.67205412983617 202.6923076923077 150.7324016680361 214.42307692307693 143.5113989708572 226.15384615384616 108.48773378136664 237.88461538461536 93.30354679221426 249.61538461538464 57.87538473990804 261.3461538461538 65.8765884280179 273.0769230769231 73.14033716416205 284.8076923076923 80.67560017902017 296.53846153846155 87.74867773490902 308.2692307692308 94.83803276650633 320 101.49256912367491 331.7307692307693 106.8322775798996 343.46153846153845 113.3391287882828 355.1923076923077 119.4468654591187 366.9230769230769 125.5686318244066 378.65384615384613 124.66174789347275 390.3846153846154 125.69589978592592 402.1153846153846 131.6269058490735 413.84615384615387 136.82817873500483 425.5769230769231 141.41101512686416 437.3076923076923 144.26039329717432 449.03846153846155 149.3663847026939 460.7692307692307 154.40938094039367 472.5 159.37644214915818 484.2307692307693 138.67683972460043 495.96153846153845 110.33903532509748 507.6923076923077 86.49348192379628 519.4230769230769 71.04176567735882 531.1538461538462 68.48639742270362 542.8846153846154 75.19876624421153 554.6153846153846 80.68634254908582 566.3461538461538 86.14246901391726 578.0769230769231 92.01796232807484 589.8076923076923 98.35564683046567 601.5384615384615 87.98301672905444 613.2692307692307 93.17341929135662 625 98.61824573775624 625 320 15 320"
      />
      
      <polygon
        fill="#00ADD8"
        fillRule="evenodd"
        points="15 303.38566883877087 26.730769230769234 303.8928118962814 38.46153846153847 304.36884893324964 50.19230769230769 304.8459812781844 61.92307692307693 305.30855059784403 73.65384615384616 305.7427477107833 85.38461538461539 306.1779441346873 97.11538461538461 306.5864465169654 108.84615384615385 306.9958855065962 120.57692307692308 267.8754441823269 132.30769230769232 267.4729088285412 144.03846153846155 269.07627335189056 155.76923076923077 269.46378905805744 167.5 256.222466800689 179.23076923076923 233.8219311865089 190.96153846153845 218.65410888519523 202.6923076923077 176.94873725872728 214.42307692307693 170.5159654343169 226.15384615384616 135.07604693221077 237.88461538461536 119.10605573190114 249.61538461538464 82.89028093075726 261.3461538461538 90.12792204727873 273.0769230769231 96.69848521807091 284.8076923076923 103.51464729659196 296.53846153846155 109.91272779068538 308.2692307692308 116.32553567627323 320 122.34502258342303 331.7307692307693 127.73910493826452 343.46153846153845 133.60778679406937 355.1923076923077 139.11649326128972 366.9230769230769 144.63785376300882 378.65384615384613 143.1673942240628 390.3846153846154 143.63666996556785 402.1153846153846 149.0200443259279 413.84615384615387 153.74106483704796 425.5769230769231 157.8076467954849 437.3076923076923 160.17242917226034 449.03846153846155 164.7927145801922 460.7692307692307 169.37979508353172 472.5 173.88989146603268 484.2307692307693 155.23281241139338 495.96153846153845 133.20718392104274 507.6923076923077 108.66359035799718 519.4230769230769 92.55665192287356 531.1538461538462 89.34455340992125 542.8846153846154 95.42023739482079 554.6153846153846 100.34946509023757 566.3461538461538 105.20538812549603 578.0769230769231 110.51748343882656 589.8076923076923 116.29048085598248 601.5384615384615 105.38779770701288 613.2692307692307 110.0469319811964 625 114.9767052298663 625 320 15 320"
      />
      
      <polygon
        fill="#2b7489"
        fillRule="evenodd"
        points="15 303.38566883877087 26.730769230769234 303.8928118962814 38.46153846153847 304.36884893324964 50.19230769230769 304.8459812781844 61.92307692307693 305.30855059784403 73.65384615384616 305.7427477107833 85.38461538461539 306.1779441346873 97.11538461538461 306.5864465169654 108.84615384615385 306.9958855065962 120.57692307692308 274.9487687331541 132.30769230769232 274.35092722450884 144.03846153846155 275.7443447770495 155.76923076923077 275.93478844186416 167.5 273.27225684977344 179.23076923076923 257.22386767357835 190.96153846153845 243.33317471585823 202.6923076923077 217.70292755791237 214.42307692307693 210.06568173347617 226.15384615384616 173.41854300411674 237.88461538461536 156.35005327380688 249.61538461538464 118.9974257028727 261.3461538461538 125.13292320429787 273.0769230769231 130.7029136991462 284.8076923076923 136.4811190173099 296.53846153846155 141.90489232813556 308.2692307692308 147.34115479797268 320 152.4439912887636 331.7307692307693 156.91932249710004 343.46153846153845 161.89728585873831 355.1923076923077 166.56991827898833 366.9230769230769 171.2532822473609 378.65384615384613 168.99621703687765 390.3846153846154 168.6770741130708 402.1153846153846 173.2961111780279 413.84615384615387 177.34683071410655 425.5769230769231 180.692859686066 437.3076923076923 182.38128016303585 449.03846153846155 186.32365804304243 460.7692307692307 190.2743981022006 472.5 194.1467026269646 484.2307692307693 174.87129147817578 495.96153846153845 159.06672004517958 507.6923076923077 133.73378031263331 519.4230769230769 116.88590480618043 531.1538461538462 112.9311695402352 542.8846153846154 118.28688556017374 554.6153846153846 122.58472480529008 566.3461538461538 126.76193057663966 578.0769230769231 131.43692981952108 589.8076923076923 136.57137656974788 601.5384615384615 125.06930545645295 613.2692307692307 129.1276710136788 625 133.47501555615193 625 320 15 320"
      />
      
      <polygon
        fill="#dea584"
        fillRule="evenodd"
        points="15 318.6748337694218 26.730769230769234 318.71528371033736 38.46153846153847 318.7532529435842 50.19230769230769 318.79130913432743 61.92307692307693 318.8282036849583 73.65384615384616 318.8628355582462 85.38461538461539 318.8975468773288 97.11538461538461 318.93012932921295 108.84615384615385 318.96278645250504 120.57692307692308 303.5212450607013 132.30769230769232 302.1344737090752 144.03846153846155 302.67980931381305 155.76923076923077 303.19169842999173 167.5 301.0449279180316 179.23076923076923 286.4980088772494 190.96153846153845 274.2728874549426 202.6923076923077 248.70115645351086 214.42307692307693 240.14776820746022 226.15384615384616 224.13253046272644 237.88461538461536 205.9982384756793 249.61538461538464 177.6798613739343 261.3461538461538 182.0241076577343 273.0769230769231 185.96794840982452 284.8076923076923 190.05921904015813 296.53846153846155 193.89952307894697 308.2692307692308 197.74867755750014 320 201.3617526188111 331.7307692307693 204.4130688853939 343.46153846153845 207.941318373157 355.1923076923077 211.2531391827331 366.9230769230769 214.572578640306 378.65384615384613 213.0208176617786 390.3846153846154 211.35783766346378 402.1153846153846 214.6740757356109 413.84615384615387 217.58229153780604 425.5769230769231 219.70014900052104 437.3076923076923 220.23572060251485 449.03846153846155 223.02262242169292 460.7692307692307 225.88873831858896 472.5 228.67394363902773 484.2307692307693 210.9455846503144 495.96153846153845 200.7354829476335 507.6923076923077 188.30201556552333 519.4230769230769 177.57133001556417 531.1538461538462 172.06968964065368 542.8846153846154 175.6202355142864 554.6153846153846 178.33500271633903 566.3461538461538 180.8104611059884 578.0769230769231 183.88810652373658 589.8076923076923 187.4215104393765 601.5384615384615 179.1585258555633 613.2692307692307 181.5658512007233 625 184.31257050829925 625 320 15 320"
      />
      
      <polygon
        fill="#f1e05a"
        fillRule="evenodd"
        points="15 318.6748337694218 26.730769230769234 318.71528371033736 38.46153846153847 318.7532529435842 50.19230769230769 318.79130913432743 61.92307692307693 318.8282036849583 73.65384615384616 318.8628355582462 85.38461538461539 318.8975468773288 97.11538461538461 318.93012932921295 108.84615384615385 318.96278645250504 120.57692307692308 315.04400645618136 132.30769230769232 315.1808494820484 144.03846153846155 315.3279515827306 155.76923076923077 315.4660316840198 167.5 312.9445940407347 179.23076923076923 298.04598858325693 190.96153846153845 294.7716377970548 202.6923076923077 288.5476327150619 214.42307692307693 281.15588585452645 226.15384615384616 276.18435836615413 237.88461538461536 265.1220725626213 249.61538461538464 246.71293504811632 261.3461538461538 248.949983483231 273.0769230769231 250.98084843742305 284.8076923076923 253.08762932300365 296.53846153846155 255.06517456316135 308.2692307692308 257.0472732950571 320 258.9078135953369 331.7307692307693 260.77259991685156 343.46153846153845 262.5805010123474 355.1923076923077 264.27750583659645 366.9230769230769 265.9784001945403 378.65384615384613 262.90736571090366 390.3846153846154 259.75633669647044 402.1153846153846 261.59523947624467 413.84615384615387 263.2078777046535 425.5769230769231 264.0871446731839 437.3076923076923 263.3457970045988 449.03846153846155 264.8167950943641 460.7692307692307 266.4477033091958 472.5 267.99486305211815 484.2307692307693 249.24111603517062 495.96153846153845 244.53085571849323 507.6923076923077 230.76055051277123 519.4230769230769 221.28325287282934 531.1538461538462 214.44732419680258 542.8846153846154 216.7043104707591 554.6153846153846 218.2846833938774 566.3461538461538 219.54070358242637 578.0769230769231 221.47370634105133 589.8076923076923 223.8598174946594 601.5384615384615 218.80651112803616 613.2692307692307 220.10582545514308 625 221.6761339711065 625 320 15 320"
      />
      

      
        <g id="labels">
        
          
          <text x="15" y="330">
            Apr 2018
          </text>
          
        
          
        
          
        
          
        
          
        
          
        
          
        
          
          <text x="95.56603773584905" y="330">
            Nov 2018
          </text>
          
        
          
        
          
        
          
        
          
        
          
        
          
        
          
          <text x="176.1320754716981" y="330">
            Jun 2019
          </text>
          
        
          
        
          
        
          
        
          
        
          
        
          
        
          
          <text x="256.6981132075472" y="330">
            Jan 2020
          </text>
          
        
          
        
          
        
          
        
          
        
          
        
          
        
          
          <text x="337.2641509433962" y="330">
            Aug 2020
          </text>
          
        
          
        
          
        
          
        
          
        
          
        
          
        
          
          <text x="417.8301886792453" y="330">
            Mar 2021
          </text>
          
        
          
        
          
        
          
        
          
        
          
        
          
        
          
          <text x="498.39622641509436" y="330">
            Oct 2021
          </text>
          
        
          
        
          
        
          
        
          
        
          
        
          
        
          
          <text x="578.9622641509434" y="330">
            May 2022
          </text>
          
        
          
        
          
        
          
        
        </g>
      

      
        <text text-anchor="middle" y="370" x="320" id="legend">
          
          <tspan xml:space="preserve" fill="#f1e05a">   ◉</tspan> JavaScript
          
          <tspan xml:space="preserve" fill="#dea584">   ◉</tspan> Rust
          
          <tspan xml:space="preserve" fill="#2b7489">   ◉</tspan> TypeScript
          
          <tspan xml:space="preserve" fill="#00ADD8">   ◉</tspan> Go
          
          <tspan xml:space="preserve" fill="#b07219">   ◉</tspan> Java
          
          <tspan xml:space="preserve" fill="#3572A5">   ◉</tspan> Python
          
          <tspan xml:space="preserve" fill="#f34b7d">   ◉</tspan> C++
          
          <tspan xml:space="preserve" fill="#555555">   ◉</tspan> C
          
        </text>
      
        <text text-anchor="middle" y="400" x="320" id="legend">
          
          <tspan xml:space="preserve" fill="#178600">   ◉</tspan> C#
          
        </text>
      

    </svg>