<svg
      xmlns="http://www.w3.org/2000/svg"
      viewBox="0 0 640 430"
      style="background-color: #fffc"
    >
      <style>
        text {
          font-size: 12px;
          font-family: Open Sans, Helvetica Neue, Helvetica, Arial, sans-serif;
        }
        #labels text {
          dominant-baseline: hanging;
          font-size: 10px;
          fill: rgba(0,0,0,0.5);
        }
        #legend {
          font-weight: 600;
        }
        #legend tspan {
          font-size: 15px;
        }
        #branding-text {
          font-size: 9px;
          dominant-baseline: hanging;
          opacity: 0.5;
        }
        #branding-logo {
          opacity: 0.5;
        }
      </style>

      
      
      <polygon
        fill="#178600"
        fillRule="evenodd"
        points="15 267.4617027453934 26.96078431372549 248.64036461411627 38.92156862745098 250.74936359408815 50.88235294117647 252.8632018923644 62.84313725490196 252.82190815860443 74.80392156862746 254.80732169463445 86.76470588235294 256.79729031381726 98.72549019607844 258.66521459740903 110.68627450980392 260.53742487972227 122.64705882352942 214.21230070470887 134.60784313725492 215.29148651096978 146.5686274509804 218.48765381704072 158.52941176470588 220.37028295686832 170.49019607843135 206.1344993870888 182.45098039215688 171.7743062484866 194.41176470588235 156.2542483196794 206.37254901960785 105.29407332583358 218.33333333333331 98.75402250110506 230.29411764705884 65.09655497270009 242.2549019607843 49.0782295764497 254.2156862745098 15 266.17647058823525 24.309955098119815 278.1372549019608 32.76182088824311 290.0980392156863 41.52959428347606 302.05882352941177 49.75964569855881 314.01960784313724 58.00858713355291 325.9803921568627 65.75157503884702 337.94117647058823 72.18228139646308 349.90196078431376 79.74678522284441 361.8627450980392 86.84737386662715 373.8235294117647 93.96419631622518 385.78431372549016 93.99135538283184 397.7450980392157 95.96167230828715 409.7058823529412 102.80032021263352 421.66666666666663 108.79756051592469 433.62745098039215 114.23598114276948 445.5882352941177 117.8885040585991 457.54901960784315 123.79952797856842 469.5098039215686 129.59812489643105 481.4705882352941 135.32251396826388 493.4313725490196 115.35716321787064 505.39215686274514 60.520556186928275 517.3529411764705 38.19566109585662 529.3137254901961 24.171359300855272 541.2745098039215 23.0466653142542 553.2352941176471 31.146104470446517 565.1960784313726 37.849983407571415 577.156862745098 44.6137786690569 589.1176470588235 51.71654201412764 601.0784313725491 59.28447385012083 613.0392156862745 44.55085352623206 625 44.78175368637693 625 320 15 320"
      />
      
      <polygon
        fill="#555555"
        fillRule="evenodd"
        points="15 273.44750597364475 26.96078431372549 254.44345461176374 38.92156862745098 256.38094616488235 50.88235294117647 258.32288362684574 62.84313725490196 258.1149364259893 74.80392156862746 259.94391750185474 86.76470588235294 261.7770944360216 98.72549019607844 263.4978430312536 110.68627450980392 265.2225400442418 122.64705882352942 218.754405801388 134.60784313725492 219.70817630045187 146.5686274509804 222.76952683177637 158.52941176470588 224.52560760696815 170.49019607843135 210.16298488057674 182.45098039215688 175.68373190730526 194.41176470588235 160.04434104891257 206.37254901960785 108.96847566419981 218.33333333333331 102.31983001472062 230.29411764705884 68.55351837492361 242.2549019607843 52.43302403273873 254.2156862745098 18.252391119799483 266.17647058823525 27.463069086147016 278.1372549019608 35.82480763370046 290.0980392156863 44.49908517012159 302.05882352941177 52.64137508304691 314.01960784313724 60.802353218474536 325.9803921568627 68.46277288111233 337.94117647058823 74.81072129377588 349.90196078431376 82.2949937806178 361.8627450980392 89.32027137676312 373.8235294117647 96.36161000958558 385.78431372549016 96.31791482300113 397.7450980392157 98.21721484782691 409.7058823529412 104.98701348673956 421.66666666666663 110.9238756869938 433.62745098039215 116.2973918376272 445.5882352941177 119.88899084253856 457.54901960784315 125.73895105754852 469.5098039215686 131.48022929933703 481.4705882352941 137.14716824031666 493.4313725490196 117.12612095945613 505.39215686274514 69.0387100068545 517.3529411764705 46.45380245562512 529.3137254901961 32.18543528844867 541.2745098039215 30.81611637155754 553.2352941176471 38.67839773817417 565.1960784313726 45.17429739056439 577.156862745098 51.71452276686881 589.1176470588235 58.607426992036096 601.0784313725491 65.96501844995188 613.0392156862745 51.033958140703305 625 51.15535233215007 625 320 15 320"
      />
      
      <polygon
        fill="#f34b7d"
        fillRule="evenodd"
        points="15 280.3108484698696 26.96078431372549 267.9036486196695 38.92156862745098 269.44333063842254 50.88235294117647 270.9865457032936 62.84313725490196 270.3920476083678 74.80392156862746 271.8581867576631 86.76470588235294 273.32768529271954 98.72549019607844 274.70706396959076 110.68627450980392 276.08960424529903 122.64705882352942 229.28976025973162 134.60784313725492 229.95263247313218 146.5686274509804 232.70127659376408 158.52941176470588 234.16382998771277 170.49019607843135 219.50700700985362 182.45098039215688 184.7515958739573 194.41176470588235 168.83541408756298 206.37254901960785 117.49120557458008 218.33333333333331 110.59067506247689 230.29411764705884 76.5719008592717 242.2549019607843 60.214427607864195 254.2156862745098 25.79627150562459 266.17647058823525 34.776676984524954 278.1372549019608 42.92936678473501 290.0980392156863 51.38678149433542 302.05882352941177 59.32550938505091 314.01960784313724 67.28245760837751 325.9803921568627 74.75136166289829 337.94117647058823 80.90735458728855 349.90196078431376 88.20553103144164 361.8627450980392 95.05612591532167 373.8235294117647 101.92238015081571 385.78431372549016 101.71433975393194 397.7450980392157 103.44891707362095 409.7058823529412 110.05902100946142 421.66666666666663 115.85583682647109 433.62745098039215 121.07880765396689 445.5882352941177 124.52909455390463 457.54901960784315 130.23741806930752 469.5098039215686 135.84574683079606 481.4705882352941 141.3794309217059 493.4313725490196 121.22919574063766 505.39215686274514 79.82199709055655 517.3529411764705 56.90793632151633 529.3137254901961 42.330602043268414 541.2745098039215 40.651607496327586 553.2352941176471 48.21366620016124 565.1960784313726 54.446281664371384 577.156862745098 60.70348585639351 589.1176470588235 67.3307253841991 601.0784313725491 74.42204293301705 613.0392156862745 59.24104029992458 625 59.2238079470568 625 320 15 320"
      />
      
      <polygon
        fill="#3572A5"
        fillRule="evenodd"
        points="15 287.17970188145375 26.96078431372549 281.3647440317741 38.92156862745098 282.50659041618115 50.88235294117647 283.6510563473947 62.84313725490196 284.76058522688726 74.80392156862746 285.8020681474139 86.76470588235294 286.8459383885805 98.72549019607844 287.825791934818 110.68627450980392 288.80788976107164 122.64705882352942 245.7431974095545 134.60784313725492 245.951761906775 146.5686274509804 248.21204292957324 158.52941176470588 249.21618327141118 170.49019607843135 234.09989433003966 182.45098039215688 198.91319948012512 194.41176470588235 182.56474345362975 206.37254901960785 130.80145455889584 218.33333333333331 123.5075476895741 230.29411764705884 89.09449190544225 242.2549019607843 72.36692220610226 254.2156862745098 37.57781599559786 266.17647058823525 46.19859684794261 278.1372549019608 54.02480836003343 290.0980392156863 62.143540812662366 302.05882352941177 69.76435884782597 314.01960784313724 77.40266641615136 325.9803921568627 84.57247424484518 337.94117647058823 90.4286827951465 349.90196078431376 97.43622640953376 361.8627450980392 104.0140128404598 373.8235294117647 110.60683413322656 385.78431372549016 110.1421271663466 397.7450980392157 111.61945225794415 409.7058823529412 117.98015560367881 421.66666666666663 123.55825485867933 433.62745098039215 128.5461151535933 445.5882352941177 131.77570889545038 457.54901960784315 137.26283316778822 469.5098039215686 142.66352958330498 481.4705882352941 147.98910516274827 493.4313725490196 127.63711395079218 505.39215686274514 92.84133760385083 517.3529411764705 69.52986898550813 529.3137254901961 54.57950105666305 541.2745098039215 52.52661601586834 553.2352941176471 59.72619628310184 565.1960784313726 65.64093117466493 577.156862745098 71.556426148582 589.1176470588235 77.8629121961493 601.0784313725491 84.63274100918551 613.0392156862745 69.1499665839896 625 68.96536142310404 625 320 15 320"
      />
      
      <polygon
        fill="#b07219"
        fillRule="evenodd"
        points="15 289.5663386383013 26.96078431372549 283.6785300779106 38.92156862745098 284.75199374994696 50.88235294117647 285.82792011427387 62.84313725490196 286.87100137213264 74.80392156862746 287.85011196014955 86.76470588235294 288.83146701915797 98.72549019607844 289.75263921571405 110.68627450980392 290.67592124555824 122.64705882352942 251.8293798889915 134.60784313725492 251.86989425187537 146.5686274509804 253.94952839861008 158.52941176470588 254.78410035115797 170.49019607843135 239.49785343054603 182.45098039215688 213.21073687653907 194.41176470588235 198.67206112525645 206.37254901960785 150.73240534423653 218.33333333333331 143.5113823516984 230.29411764705884 108.48772007404796 242.2549019607843 93.30356761893887 254.2156862745098 57.87538238271367 266.17647058823525 65.87659426292791 278.1372549019608 73.14033719400496 290.0980392156863 80.67557657658566 302.05882352941177 87.7486903439997 314.01960784313724 94.8380376625951 325.9803921568627 101.49255230643206 337.94117647058823 106.83228553374303 349.90196078431376 113.33911948643001 361.8627450980392 119.44690192763846 373.8235294117647 125.56864531198482 385.78431372549016 124.66174929540225 397.7450980392157 125.69587062098864 409.7058823529412 131.6269014490519 421.66666666666663 136.82818955874095 433.62745098039215 141.4109928003606 445.5882352941177 144.26037157752006 457.54901960784315 149.366410037036 469.5098039215686 154.40939158065558 481.4705882352941 159.37643109369864 493.4313725490196 138.67684734611987 505.39215686274514 110.33904769843932 517.3529411764705 86.49347290209977 529.3137254901961 71.04175299740427 541.2745098039215 68.4863682182094 553.2352941176471 75.19878662328938 565.1960784313726 80.68629602948332 577.156862745098 86.14253829582489 589.1176470588235 92.0179411536131 601.0784313725491 98.35569688737223 613.0392156862745 87.98304079422749 625 90.8641297743201 625 320 15 320"
      />
      
      <polygon
        fill="#00ADD8"
        fillRule="evenodd"
        points="15 303.3856671024003 26.96078431372549 303.8928101546184 38.92156862745098 304.368851642713 50.88235294117647 304.84598334608364 62.84313725490196 305.3085494779915 74.80392156862746 305.7427478595694 86.76470588235294 306.1779423691771 98.72549019607844 306.5864466569468 110.68627450980392 306.9958856423048 122.64705882352942 267.87545745798695 134.60784313725492 267.4729131962137 146.5686274509804 269.0762749018571 158.52941176470588 269.4637841108141 170.49019607843135 256.222471285769 182.45098039215688 233.82193335901727 194.41176470588235 218.65411439891665 206.37254901960785 176.94874384426328 218.33333333333331 170.51594980651313 230.29411764705884 135.07603103766664 242.2549019607843 119.10607628935549 254.2156862745098 82.89028276860617 266.17647058823525 90.12792762910627 278.1372549019608 96.69847990938618 290.0980392156863 103.51462345581331 302.05882352941177 109.912740168476 314.01960784313724 116.32554034812236 325.9803921568627 122.34500809490734 337.94117647058823 127.7391126739281 349.90196078431376 133.60777600752678 361.8627450980392 139.11653079771065 373.8235294117647 144.63786832475392 385.78431372549016 143.167394159701 397.7450980392157 143.63664188657378 409.7058823529412 149.02003847122486 421.66666666666663 153.74107421111452 433.62745098039215 157.8076223881144 445.5882352941177 160.1724060133812 457.54901960784315 164.79273975354795 469.5098039215686 169.3798030212256 481.4705882352941 173.8898808956983 493.4313725490196 155.23281986013768 505.39215686274514 133.20719605573674 517.3529411764705 108.66358110493749 529.3137254901961 92.5566434744878 541.2745098039215 89.34452398775517 553.2352941176471 95.42025501653148 565.1960784313726 100.34941645567963 577.156862745098 105.20545466212698 589.1176470588235 110.51746716398628 601.0784313725491 116.29053390864883 613.0392156862745 105.38782286372259 625 107.97492739462385 625 320 15 320"
      />
      
      <polygon
        fill="#2b7489"
        fillRule="evenodd"
        points="15 303.3856671024003 26.96078431372549 303.8928101546184 38.92156862745098 304.368851642713 50.88235294117647 304.84598334608364 62.84313725490196 305.3085494779915 74.80392156862746 305.7427478595694 86.76470588235294 306.1779423691771 98.72549019607844 306.5864466569468 110.68627450980392 306.9958856423048 122.64705882352942 274.9487819349983 134.60784313725492 274.3509315204036 146.5686274509804 275.7443456208444 158.52941176470588 275.9347834270906 170.49019607843135 273.27226179350987 182.45098039215688 257.22386960186844 194.41176470588235 243.33317487935437 206.37254901960785 217.70293371814506 218.33333333333331 210.0656676026934 230.29411764705884 173.4185216167582 242.2549019607843 156.3500778986838 254.2156862745098 118.9974246175745 266.17647058823525 125.13292523789517 278.1372549019608 130.7029093087672 290.0980392156863 136.48109483249922 302.05882352941177 141.9048973696281 314.01960784313724 147.3411527802996 325.9803921568627 152.44397648614054 337.94117647058823 156.91933374775354 349.90196078431376 161.8972747769717 361.8627450980392 166.5699510728161 373.8235294117647 171.25329653135228 385.78431372549016 168.9962147932163 397.7450980392157 168.6770502288538 409.7058823529412 173.29609743096566 421.66666666666663 177.34683538573344 433.62745098039215 180.69282994719046 445.5882352941177 182.38125677238918 457.54901960784315 186.32367980878075 469.5098039215686 190.27440327550264 481.4705882352941 194.14669057206407 493.4313725490196 174.87130126831605 505.39215686274514 159.06673063683837 517.3529411764705 133.73376634185146 529.3137254901961 116.88590119657817 541.2745098039215 112.93113987192348 553.2352941176471 118.28689785057318 565.1960784313726 122.584675938689 577.156862745098 126.76199688831048 589.1176470588235 131.43691714587854 601.0784313725491 136.57143068393623 613.0392156862745 125.06933040777005 625 127.32399312333868 625 320 15 320"
      />
      
      <polygon
        fill="#dea584"
        fillRule="evenodd"
        points="15 318.674833783251 26.96078431372549 318.7152837237444 38.92156862745098 318.753252956595 50.88235294117647 318.7913091469411 62.84313725490196 318.82820369718695 74.80392156862746 318.8628355701135 86.76470588235294 318.8975468888338 98.72549019607844 318.93012934037796 110.68627450980392 318.9627864633292 122.64705882352942 303.52124777901014 134.60784313725492 302.1344751686864 146.5686274509804 302.6798098765143 158.52941176470588 303.1916969502794 170.49019607843135 301.0449287524281 182.45098039215688 286.4980105000398 194.41176470588235 274.27288984189704 206.37254901960785 248.7011648365912 218.33333333333331 240.1477614017649 230.29411764705884 224.1325212778237 242.2549019607843 205.99824348489025 254.2156862745098 177.67986285916132 266.17647058823525 182.02411546347443 278.1372549019608 185.9679434427097 290.0980392156863 190.05919174987656 302.05882352941177 193.899527577833 314.01960784313724 197.7486788332927 325.9803921568627 201.36173730569118 337.94117647058823 204.41307964041135 349.90196078431376 207.9413131767321 361.8627450980392 211.25317151025496 373.8235294117647 214.5725924722251 385.78431372549016 213.02081495868455 397.7450980392157 211.35783243138474 409.7058823529412 214.67407683477302 421.66666666666663 217.58229578954302 433.62745098039215 219.7001207643272 445.5882352941177 220.23570891193899 457.54901960784315 223.02264571420216 469.5098039215686 225.88874439339602 481.4705882352941 228.67393440673163 493.4313725490196 210.9455864249713 505.39215686274514 200.73549310444469 517.3529411764705 188.30203922037052 529.3137254901961 177.5713283189994 541.2745098039215 172.06966572103198 553.2352941176471 175.6202370210073 565.1960784313726 178.33495963378712 577.156862745098 180.81053640239185 589.1176470588235 183.8880805710254 601.0784313725491 187.42156402290215 613.0392156862745 179.15854133022677 625 180.499609246456 625 320 15 320"
      />
      
      <polygon
        fill="#f1e05a"
        fillRule="evenodd"
        points="15 318.674833783251 26.96078431372549 318.7152837237444 38.92156862745098 318.753252956595 50.88235294117647 318.7913091469411 62.84313725490196 318.82820369718695 74.80392156862746 318.8628355701135 86.76470588235294 318.8975468888338 98.72549019607844 318.93012934037796 110.68627450980392 318.9627864633292 122.64705882352942 315.0440065079012 134.60784313725492 315.18084953234023 146.5686274509804 315.32795201343816 158.52941176470588 315.46603134938454 170.49019607843135 312.9445947509485 182.45098039215688 298.045988812365 194.41176470588235 294.771639970088 206.37254901960785 288.5476330432931 218.33333333333331 281.15587862087784 230.29411764705884 276.1843613697458 242.2549019607843 265.1220769548267 254.2156862745098 246.71294217877562 266.17647058823525 248.94999059054487 278.1372549019608 250.98084597476992 290.0980392156863 253.08761410666682 302.05882352941177 255.06517524080937 314.01960784313724 257.0472803178692 325.9803921568627 258.9078142328839 337.94117647058823 260.77261326663563 349.90196078431376 262.58050161156683 361.8627450980392 264.2775223327284 373.8235294117647 265.9784103070732 385.78431372549016 262.90736885305154 397.7450980392157 259.75633732516235 409.7058823529412 261.59523371989724 421.66666666666663 263.2078814802502 433.62745098039215 264.0871325249825 445.5882352941177 263.34578486413403 457.54901960784315 264.8168115848681 469.5098039215686 266.4477038680578 481.4705882352941 267.994859775325 493.4313725490196 249.24111995652186 505.39215686274514 244.53086923777317 517.3529411764705 230.76058327330213 529.3137254901961 221.2832411713216 541.2745098039215 214.44729983493562 553.2352941176471 216.7043115487341 565.1960784313726 218.28463989441792 577.156862745098 219.54077465513873 589.1176470588235 221.47366917416062 601.0784313725491 223.8598757906006 613.0392156862745 218.80653128161953 625 219.58156064879353 625 320 15 320"
      />
      

      
        <g id="labels">
        
          
          <text x="15" y="330">
            Apr 2018
          </text>
          
        
          
        
          
        
          
        
          
        
          
        
          
        
          
          <text x="97.11538461538461" y="330">
            Nov 2018
          </text>
          
        
          
        
          
        
          
        
          
        
          
        
          
        
          
          <text x="179.23076923076923" y="330">
            Jun 2019
          </text>
          
        
          
        
          
        
          
        
          
        
          
        
          
        
          
          <text x="261.3461538461538" y="330">
            Jan 2020
          </text>
          
        
          
        
          
        
          
        
          
        
          
        
          
        
          
          <text x="343.46153846153845" y="330">
            Aug 2020
          </text>
          
        
          
        
          
        
          
        
          
        
          
        
          
        
          
          <text x="425.5769230769231" y="330">
            Mar 2021
          </text>
          
        
          
        
          
        
          
        
          
        
          
        
          
        
          
          <text x="507.6923076923077" y="330">
            Oct 2021
          </text>
          
        
          
        
          
        
          
        
          
        
          
        
          
        
          
          <text x="589.8076923076923" y="330">
            May 2022
          </text>
          
        
          
        
          
        
        </g>
      

      
        <text text-anchor="middle" y="370" x="320" id="legend">
          
          <tspan xml:space="preserve" fill="#f1e05a">   ◉</tspan> JavaScript
          
          <tspan xml:space="preserve" fill="#dea584">   ◉</tspan> Rust
          
          <tspan xml:space="preserve" fill="#2b7489">   ◉</tspan> TypeScript
          
          <tspan xml:space="preserve" fill="#00ADD8">   ◉</tspan> Go
          
          <tspan xml:space="preserve" fill="#b07219">   ◉</tspan> Java
          
          <tspan xml:space="preserve" fill="#3572A5">   ◉</tspan> Python
          
          <tspan xml:space="preserve" fill="#f34b7d">   ◉</tspan> C++
          
          <tspan xml:space="preserve" fill="#555555">   ◉</tspan> C
          
        </text>
      
        <text text-anchor="middle" y="400" x="320" id="legend">
          
          <tspan xml:space="preserve" fill="#178600">   ◉</tspan> C#
          
        </text>
      

    </svg>