<svg
      xmlns="http://www.w3.org/2000/svg"
      viewBox="0 0 640 430"
      style="background-color: #fffc"
    >
      <style>
        text {
          font-size: 12px;
          font-family: Open Sans, Helvetica Neue, Helvetica, Arial, sans-serif;
        }
        #labels text {
          dominant-baseline: hanging;
          font-size: 10px;
          fill: rgba(0,0,0,0.5);
        }
        #legend {
          font-weight: 600;
        }
        #legend tspan {
          font-size: 15px;
        }
        #branding-text {
          font-size: 9px;
          dominant-baseline: hanging;
          opacity: 0.5;
        }
        #branding-logo {
          opacity: 0.5;
        }
      </style>

      
      
      <polygon
        fill="#178600"
        fillRule="evenodd"
        points="15 267.46170551104495 25 248.64036491199477 35 250.74936260999317 45 252.8632008994456 55 252.82190843902777 65 254.80731814726073 75 256.7972899410612 85 258.66521294368584 95 260.5374251279385 105 214.21229159752806 114.99999999999999 215.29148758464225 125 218.4876519490809 135 220.37028884738535 145 206.13450049898552 155 171.77431323307798 165 156.25425218613216 175 105.29407390379393 184.99999999999997 98.75402406124309 195 65.09657258795744 205 49.07825362442162 214.99999999999997 15 225 24.309942964144227 235 32.76183863847626 244.99999999999997 41.5296183629585 255 49.759638232734574 265 58.0085844076815 275 65.75160029038872 285 72.18229961872726 295 79.74679259158876 305 86.84734873990226 315 93.96417943539583 325 93.99135759943564 335 95.96168661177902 345 102.80034339976694 354.99999999999994 108.79755923316412 365 114.23600810167605 375 117.88851610617257 385 123.79951078222115 395 129.59812505464586 405 135.32251219282855 414.99999999999994 115.35715261358885 425 60.52055854325016 435 38.19566800146407 445 24.171380269872202 455 23.046680558702064 465 31.146088488425335 474.99999999999994 37.8500240536207 485 44.61371934304515 495 51.71656541450153 505 59.28446347990484 515 44.55084194434926 525 47.73008244502665 535 54.56203745833676 545 59.91496261189832 555 66.17447439800344 565 72.09640203747492 575 77.46286798809288 585 45.97995018095054 595 52.573637519930685 605 59.356061773211934 615 66.33339545880008 625 68.44520558881368 625 320 15 320"
      />
      
      <polygon
        fill="#555555"
        fillRule="evenodd"
        points="15 273.4475087143096 25 254.4434548854182 35 256.3809451572793 45 258.32288261113644 55 258.11493668431785 65 259.9439139330392 75 261.7770940424782 85 263.4978413573574 95 265.22254027290086 105 218.75439667524697 114.99999999999999 219.70817735568764 125 222.76952494594263 135 224.5256134801395 145 210.16298597565725 155 175.68373887557738 165 160.04434489954426 175 108.96847622682202 184.99999999999997 102.31983155997378 195 68.55353597575046 205 52.43304806670665 214.99999999999997 18.252391106222888 225 27.463056939009334 235 35.82482537114771 244.99999999999997 44.499109237208415 255 52.64136760519335 265 60.80235048094107 275 68.46279812133656 285 74.81073950506809 295 82.29500113872513 305 89.32024623971554 315 96.36159311874866 325 96.31791702989312 335 98.21722914190337 345 104.98703666474503 354.99999999999994 110.9238743953573 365 116.29741878792879 375 119.88900288176137 385 125.73893385310552 395 131.48022944969532 405 137.14716645726466 414.99999999999994 117.12611034779019 425 69.03871232761881 435 46.45380932676039 445 32.18545622401217 455 30.816131583573167 465 38.67838172471073 474.99999999999994 45.17433800603959 485 51.71446341121623 495 58.60745036364517 505 65.96500805184917 515 51.03394653175792 525 54.015294436047554 535 60.655396770344396 545 65.82823587987889 555 71.9072484783675 565 77.6597471413462 575 82.85639516210762 585 51.20884313581496 595 57.65815206834452 605 64.28537438069398 615 71.11702510642985 625 73.18311736523268 625 320 15 320"
      />
      
      <polygon
        fill="#f34b7d"
        fillRule="evenodd"
        points="15 280.31085118188463 25 267.90364756396696 35 269.44332957629285 45 270.9865459078918 55 270.39204781544765 65 271.85818313911346 75 273.3276867607148 85 274.70706224890364 95 276.0896044285954 105 229.2897510896126 114.99999999999999 229.95263348560422 125 232.70127530305683 135 234.163835820651 145 219.50700742934424 155 184.75160280437723 165 168.83541726491296 175 117.49120578333316 184.99999999999997 110.5906765732048 195 76.5719184266272 205 60.21445097276501 214.99999999999997 25.79627209714232 225 34.776664806857866 235 42.929384492525514 244.99999999999997 51.386805532670735 255 59.32550219758804 265 67.28245484379394 275 74.75138687687189 285 80.90737277313141 295 88.20553836487647 305 95.05610011774587 315 101.92236323676633 325 101.71434193829748 335 103.44893166415099 345 110.05904416629468 354.99999999999994 115.85583576888101 365 121.0788345843093 375 124.52910682839206 385 130.2374010370619 395 135.84574696293126 405 141.3794284844022 414.99999999999994 121.22918574842899 425 79.82199936630789 435 56.907943149012624 445 42.33062293648271 455 40.65162266728663 465 48.21365014689445 474.99999999999994 54.4463222411423 485 60.70342646321808 495 67.33074871939422 505 74.42203249961193 515 59.24102802013522 525 61.97186003864425 535 68.3690937813657 545 73.31395847584355 555 79.16447274991651 565 84.70248814127416 575 89.68416017371479 585 57.82819471266498 595 64.0947331227139 605 70.52548242296572 615 77.17271005186339 625 79.18092719598465 625 320 15 320"
      />
      
      <polygon
        fill="#3572A5"
        fillRule="evenodd"
        points="15 287.1797039282111 25 281.3647441930503 35 282.5065905726909 45 283.6510564991271 55 284.7605853739881 65 285.8020657438277 75 286.84593852697645 85 287.8257901593691 95 288.80788989127774 105 245.74318689758368 114.99999999999999 245.95176285246148 125 248.21204221070386 135 249.216189041516 145 234.09989596178457 155 198.91320762459964 165 182.56474530049923 175 130.8014547120876 184.99999999999997 123.50754914638279 195 89.09451069369416 205 72.36694552027461 214.99999999999997 37.57781781110532 225 46.198584622596684 235 54.024827294677664 244.99999999999997 62.14356480609541 255 69.76435161678799 265 77.40266360932273 275 84.57249941782223 285 90.42870094124424 295 97.43623434102153 305 104.01398700549086 315 110.60681590975568 325 110.14213058870155 335 111.61946649607529 345 117.98017872744663 354.99999999999994 123.55825376893682 365 128.54614141617978 375 131.77572177627297 385 137.2628167428011 395 142.66353032356545 405 147.98910269785358 414.99999999999994 127.63710329524989 425 92.84134109842495 435 69.52987576031634 445 54.579521898746464 455 52.526631137257255 465 59.726180181778034 474.99999999999994 65.64097297787544 485 71.55636671010282 495 77.86293612396454 505 84.63272925998783 515 69.14995362625226 525 71.57832252273408 535 77.68232298765392 545 82.35194111021283 555 87.92657604699266 565 93.20563189067525 575 97.92775107832935 585 65.82015443478312 595 71.8660213315587 605 78.05955682375512 615 84.48411915552435 625 86.42246092332562 625 320 15 320"
      />
      
      <polygon
        fill="#b07219"
        fillRule="evenodd"
        points="15 289.566340675096 25 283.6785302295283 35 284.7519938970837 45 285.8279202569193 55 286.8710015104239 65 287.85010954801413 75 288.8314671492656 85 289.7526374322218 95 290.67592136796657 105 251.82936935161496 114.99999999999999 251.86989517285758 125 253.94952765579058 135 254.78410609802046 145 239.497855676343 155 213.21074305157634 165 198.67206163171898 175 150.7324060508149 184.99999999999997 143.5113837250045 195 108.48773814476127 205 93.30359084571484 214.99999999999997 57.87538284032263 225 65.87657940910009 235 73.1403573220245 244.99999999999997 80.67559921949021 255 87.74868303788915 265 94.83803478298552 275 101.4925774087792 285 106.83230361136674 295 113.3391260783641 305 119.44687602824763 315 125.56862829922821 325 124.66175138397779 335 125.6958848003602 345 131.6269226060991 354.99999999999994 136.82818841360537 365 141.41101964582975 375 144.26038504281246 385 149.3663935615246 395 154.40939227188497 405 159.37642858126955 414.99999999999994 138.67683919083362 425 110.33905111997228 435 86.4934783329266 445 71.0417737707688 455 68.4863832729771 465 75.19877045737789 474.99999999999994 80.68633649671983 485 86.1424800696283 495 92.01796629551032 505 98.35568380772071 515 87.98302521153525 525 93.17340796387353 535 98.61822987462932 545 102.6691008587286 555 107.62356525324932 565 112.32048904780024 575 116.4591380848976 585 83.78588229924952 595 89.3356846963097 605 94.99596639989775 615 100.9199852207114 625 102.70124775875942 625 320 15 320"
      />
      
      <polygon
        fill="#00ADD8"
        fillRule="evenodd"
        points="15 303.38566908150864 25 303.89281022185514 35 304.368849161623 45 304.84598340934144 55 305.30854953931845 65 305.74274791908385 75 306.17794242687495 85 306.5864454397696 95 306.995886969758 105 267.8754481267986 114.99999999999999 267.47291405206386 125 269.0762740958936 135 269.4637897963988 145 256.222473461752 155 233.82193944801665 165 218.65411227562802 175 176.94874444140603 184.99999999999997 170.51595106709337 195 135.07604899739164 205 119.10609686208377 214.99999999999997 82.89028121204018 225 90.12791267404543 235 96.69849993906632 244.99999999999997 103.51464791313484 255 109.91273531618504 265 116.32553737881693 275 122.34503311020947 285 127.73913066427988 295 133.60778378802266 305 139.1165060893821 315 144.6378512323961 325 143.1673942612733 335 143.63665599105468 345 149.02006082883725 354.99999999999994 153.74107554171854 365 157.80764916513866 375 160.17241941225154 385 164.79272321364198 395 169.37980492313335 405 173.88987959585506 414.99999999999994 155.23281290891123 425 133.20719938181054 435 108.66358898955855 445 92.55666224828752 455 89.34453895545406 465 95.42023940279387 474.99999999999994 100.3494619335149 485 105.20539571977065 495 110.517489045736 505 116.29051757120698 515 105.38780975471661 525 110.04691658767953 535 114.97668658140032 545 118.54409426355264 555 123.01398196916526 565 127.25605058643276 575 130.93880108362274 585 97.82356186703518 595 102.98575855048762 605 108.22938016980109 615 113.76229460648742 625 115.4208216692459 625 320 15 320"
      />
      
      <polygon
        fill="#2b7489"
        fillRule="evenodd"
        points="15 303.38566908150864 25 303.89281022185514 35 304.368849161623 45 304.84598340934144 55 305.30854953931845 65 305.74274791908385 75 306.17794242687495 85 306.5864454397696 95 306.995886969758 105 274.94877257428357 114.99999999999999 274.35093171095775 125 275.74434415046125 135 275.9347890856633 145 273.2722638983214 155 257.22386922733165 165 243.3331751993868 175 217.7029341451665 184.99999999999997 210.06567379085925 195 173.41853496033494 205 156.35009131350978 214.99999999999997 118.997425456625 225 125.13290695378757 235 130.70292919650174 244.99999999999997 136.4811115131893 255 141.90489429354602 265 147.34115350103417 275 152.44400646847885 285 156.91934652361843 295 161.89728498571748 305 166.56992943281247 315 171.25327168887432 325 168.99621924306481 335 168.67705977271368 345 173.29612350675112 354.99999999999994 177.3468366177993 365 180.6928617213635 375 182.38126816879787 385 186.32365808631855 395 190.2744050901895 405 194.1466891876623 414.99999999999994 174.87129296194237 425 159.0667351281358 435 133.73377412182137 445 116.88591795906493 455 112.93114964848505 465 118.28688214138273 474.99999999999994 122.58472132370702 485 126.76194040230962 495 131.43694148664324 505 136.5714142618353 515 125.06931467026752 525 129.12765725114423 535 133.47499536425323 545 136.49569503628487 555 140.4176187498017 565 144.14533251048164 575 147.31255365197404 585 113.69751127265033 595 118.42140207603524 605 123.19385921335052 615 128.28450821199405 625 129.80424321894702 625 320 15 320"
      />
      
      <polygon
        fill="#dea584"
        fillRule="evenodd"
        points="15 318.6748337887827 25 318.7152837291072 35 318.7532529617994 45 318.7913091519866 55 318.8282037020784 65 318.86283557486036 75 318.89754689343584 85 318.9301293448439 95 318.9627864676589 105 303.5212453014583 114.99999999999999 302.13447524326295 125 302.6798082936938 135 303.19169867556343 145 301.04492819496795 155 286.49801254964274 165 274.27289003277696 175 248.70116258787635 184.99999999999997 240.14776619118845 195 224.13254077555246 205 205.99825669246854 214.99999999999997 177.6798570874033 225 182.02410330773327 235 185.96796309974988 244.99999999999997 190.05921457276295 255 193.89952428470832 265 197.7486793436097 275 201.3617543521331 285 204.41308967168223 295 207.94132001035058 305 211.2531496837289 315 214.57257381476708 325 213.02081285891114 335 211.3578392507415 345 214.6740963719844 354.99999999999994 217.5822968536529 365 219.70015046591638 375 220.2357156942366 385 223.02263020439528 395 225.888751152096 405 228.67392651235303 414.99999999999994 210.94558560703035 425 200.73549742180307 435 188.30203022134765 445 177.57136392571186 455 172.06967270439043 465 175.62022489199802 474.99999999999994 178.33500478608516 485 180.81047332492588 495 183.8880887782197 505 187.42154102268722 515 179.15853427912648 525 181.56584685741745 535 184.31254320780764 545 185.83078542320885 555 188.24676510468836 565 190.5609198511309 575 192.31132266378248 585 178.2124991179386 595 181.15503762480688 605 184.01256785950505 615 187.30576214700437 625 188.26141928870607 625 320 15 320"
      />
      
      <polygon
        fill="#f1e05a"
        fillRule="evenodd"
        points="15 318.6748337887827 25 318.7152837291072 35 318.7532529617994 45 318.7913091519866 55 318.8282037020784 65 318.86283557486036 75 318.89754689343584 85 318.9301293448439 95 318.9627864676589 105 315.04400652858914 114.99999999999999 315.18084955245695 125 315.3279516509899 135 315.4660317502617 145 312.9445941438152 155 298.0459908137629 165 294.77164007539943 175 288.54763317458554 184.99999999999997 281.15588960496893 195 276.1843615526466 205 265.1220771839051 214.99999999999997 246.71292975300213 225 248.94999088713087 235 250.98085581165174 244.99999999999997 253.0876303006031 255 255.06517169235929 265 257.04727103188117 275 258.9078144879026 285 260.772619879719 295 262.5805145829523 305 264.27750665071017 315 265.97840098380374 325 262.90736654503536 335 259.7563375766391 345 261.59524669539553 354.99999999999994 263.2078785343947 365 264.08715185592763 375 263.3457914664761 385 264.8167959005987 395 266.4477104574514 405 267.99484726071375 414.99999999999994 249.24111388604376 425 244.53086955280605 435 230.76056454827017 445 221.28327977849068 455 214.44730027554715 465 216.7043119799241 474.99999999999994 218.28468487995292 485 219.5407177818489 495 221.4736759512906 505 223.85985709437443 515 218.8065189723365 525 220.1058205487626 535 221.67610357838828 545 222.0900938256616 555 223.39927519947923 565 224.67452023315866 575 225.38362486656425 585 210.27529482714027 595 212.33252073168597 605 214.23837311678912 615 216.6382662982631 625 217.31358100605362 625 320 15 320"
      />
      

      
        <g id="labels">
        
          
          <text x="15" y="330">
            Apr 2018
          </text>
          
        
          
        
          
        
          
        
          
        
          
        
          
        
          
        
          
          <text x="93.70967741935483" y="330">
            Dec 2018
          </text>
          
        
          
        
          
        
          
        
          
        
          
        
          
        
          
        
          
          <text x="172.41935483870967" y="330">
            Aug 2019
          </text>
          
        
          
        
          
        
          
        
          
        
          
        
          
        
          
        
          
          <text x="251.1290322580645" y="330">
            Apr 2020
          </text>
          
        
          
        
          
        
          
        
          
        
          
        
          
        
          
        
          
          <text x="329.83870967741933" y="330">
            Dec 2020
          </text>
          
        
          
        
          
        
          
        
          
        
          
        
          
        
          
        
          
          <text x="408.5483870967742" y="330">
            Aug 2021
          </text>
          
        
          
        
          
        
          
        
          
        
          
        
          
        
          
        
          
          <text x="487.258064516129" y="330">
            Apr 2022
          </text>
          
        
          
        
          
        
          
        
          
        
          
        
          
        
          
        
          
          <text x="565.9677419354839" y="330">
            Dec 2022
          </text>
          
        
          
        
          
        
          
        
          
        
          
        
        </g>
      

      
        <text text-anchor="middle" y="370" x="320" id="legend">
          
          <tspan xml:space="preserve" fill="#f1e05a">   ◉</tspan> JavaScript
          
          <tspan xml:space="preserve" fill="#dea584">   ◉</tspan> Rust
          
          <tspan xml:space="preserve" fill="#2b7489">   ◉</tspan> TypeScript
          
          <tspan xml:space="preserve" fill="#00ADD8">   ◉</tspan> Go
          
          <tspan xml:space="preserve" fill="#b07219">   ◉</tspan> Java
          
          <tspan xml:space="preserve" fill="#3572A5">   ◉</tspan> Python
          
          <tspan xml:space="preserve" fill="#f34b7d">   ◉</tspan> C++
          
          <tspan xml:space="preserve" fill="#555555">   ◉</tspan> C
          
        </text>
      
        <text text-anchor="middle" y="400" x="320" id="legend">
          
          <tspan xml:space="preserve" fill="#178600">   ◉</tspan> C#
          
        </text>
      

    </svg>