<svg
      xmlns="http://www.w3.org/2000/svg"
      viewBox="0 0 640 430"
      style="background-color: #fffc"
    >
      <style>
        text {
          font-size: 12px;
          font-family: Open Sans, Helvetica Neue, Helvetica, Arial, sans-serif;
        }
        #labels text {
          dominant-baseline: hanging;
          font-size: 10px;
          fill: rgba(0,0,0,0.5);
        }
        #legend {
          font-weight: 600;
        }
        #legend tspan {
          font-size: 15px;
        }
        #branding-text {
          font-size: 9px;
          dominant-baseline: hanging;
          opacity: 0.5;
        }
        #branding-logo {
          opacity: 0.5;
        }
      </style>

      
      
      <polygon
        fill="#178600"
        fillRule="evenodd"
        points="15 267.46170588271536 25.70175438596491 248.64036714608312 36.40350877192982 250.74936732439366 47.10526315789473 252.86319727206399 57.807017543859644 252.82191308854215 68.50877192982456 254.8073220980321 79.21052631578947 256.7972951027013 89.91228070175438 258.66521550050663 100.61403508771929 260.5374238066359 111.3157894736842 214.21230025678457 122.01754385964912 215.29148812548408 132.71929824561403 218.48765767351335 143.42105263157893 220.37028712849286 154.12280701754386 206.13449897114526 164.82456140350877 171.77431023462825 175.52631578947367 156.25424776382138 186.22807017543857 105.29407776105765 196.9298245614035 98.75403608056979 207.6315789473684 65.09656910980684 218.33333333333331 49.0782582867821 229.03508771929825 15 239.73684210526315 24.3099776848411 250.43859649122805 32.76184763117129 261.140350877193 41.52961052995022 271.84210526315786 49.759658470091836 282.5438596491228 58.008579878267994 293.2456140350877 65.75159615514599 303.9473684210526 72.18229591874052 314.64912280701753 79.74681125353973 325.35087719298247 86.84735158322374 336.05263157894734 93.96421324856581 346.7543859649123 93.9913570361721 357.45614035087715 95.96170858559213 368.15789473684214 102.80035338265918 378.859649122807 108.79758901706356 389.56140350877195 114.23603809726234 400.2631578947368 117.8885004079319 410.96491228070175 123.79950693037628 421.66666666666663 129.59812719613433 432.3684210526316 135.32251988436482 443.0701754385965 115.35717022432868 453.7719298245614 60.520583218096874 464.4736842105263 38.19568000696415 475.17543859649123 24.171375526645704 485.8771929824561 23.046705133590592 496.57894736842104 31.14613827313667 507.2807017543859 37.850000421189634 517.9824561403509 44.61371777933016 528.6842105263157 51.7165591723205 539.3859649122807 59.28449583246885 550.0877192982456 44.550877941109775 560.7894736842105 47.730113249574345 571.4912280701755 54.56205722705067 582.1929824561404 59.915001947156554 592.8947368421052 66.17450430681177 603.5964912280701 72.09642698649628 614.2982456140351 77.46280428380794 625 79.44588326538036 625 320 15 320"
      />
      
      <polygon
        fill="#555555"
        fillRule="evenodd"
        points="15 273.44750889857977 25.70175438596491 254.44345693782662 36.40350877192982 256.3809496953693 47.10526315789473 258.3228788128261 57.807017543859644 258.11494116812094 68.50877192982456 259.9439177229968 79.21052631578947 261.77709904821336 89.91228070175438 263.49784376288096 100.61403508771929 265.2225388049193 111.3157894736842 218.75440519230173 122.01754385964912 219.70817775825418 132.71929824561403 222.76953053632053 143.42105263157893 224.52561163115433 154.12280701754386 210.16298432169543 164.82456140350877 175.68373575473353 175.52631578947367 160.04434035857537 186.22807017543857 108.96847996904955 196.9298245614035 102.31984346766419 207.6315789473684 68.55353238937113 218.33333333333331 52.43305262403703 229.03508771929825 18.252391004398817 239.73684210526315 27.46309156099028 250.43859649122805 35.82483426794846 261.140350877193 44.49910131123295 271.84210526315786 52.64138775233096 282.5438596491228 60.80234586406186 293.2456140350877 68.46279390121316 303.9473684210526 74.81073572279163 314.64912280701753 82.29501972089818 325.35087719298247 89.32024900561692 336.05263157894734 96.3616268568617 346.7543859649123 96.31791639379094 357.45614035087715 98.21725104510125 368.15789473684214 104.98704657917744 378.859649122807 110.92390411268721 389.56140350877195 116.29744871897756 400.2631578947368 119.88898712089053 410.96491228070175 125.73892994054225 421.66666666666663 131.48023153225986 432.3684210526316 137.14717409167565 443.0701754385965 117.12612790314842 453.7719298245614 69.03873673578386 464.4736842105263 46.4538210737191 475.17543859649123 32.18545122988536 485.8771929824561 30.81615591522001 496.57894736842104 38.67843127360521 507.2807017543859 45.17431414430291 517.9824561403509 51.71446162519504 528.6842105263157 58.607443905728076 539.3859649122807 65.96504019526236 550.0877192982456 51.03398232554895 560.7894736842105 54.01532504382129 571.4912280701755 60.655416348290714 582.1929824561404 65.82827503000757 592.8947368421052 71.90727820769729 603.5964912280701 77.65977191619342 614.2982456140351 82.8563312889651 625 84.791453149842 625 320 15 320"
      />
      
      <polygon
        fill="#f34b7d"
        fillRule="evenodd"
        points="15 280.31085115128104 25.70175438596491 267.903649194971 36.40350877192982 269.44333370543285 47.10526315789473 270.98654171311443 57.807017543859644 270.3920531880554 68.50877192982456 271.858185282896 79.21052631578947 273.32768949507573 89.91228070175438 274.70706430349503 100.61403508771929 276.0896045301483 111.3157894736842 229.28975927683229 122.01754385964912 229.95263356744294 132.71929824561403 232.70127994591206 143.42105263157893 234.16383366991766 154.12280701754386 219.5070054828449 164.82456140350877 184.75159876305676 175.52631578947367 168.83541308530286 186.22807017543857 117.49120957702817 196.9298245614035 110.59068822195613 207.6315789473684 76.5719152257976 218.33333333333331 60.21445528647956 229.03508771929825 25.796271759138506 239.73684210526315 34.77669919986835 250.43859649122805 42.92939316690058 261.140350877193 51.38679739105902 271.84210526315786 59.32552181717 282.5438596491228 67.28245002403918 293.2456140350877 74.75138245986881 303.9473684210526 80.90736879998488 314.64912280701753 88.20555708029806 325.35087719298247 95.05610334065716 336.05263157894734 101.9223974373707 346.7543859649123 101.71434176983183 357.45614035087715 103.44895308526517 368.15789473684214 110.05905392193549 378.859649122807 115.8558650771698 389.56140350877195 121.07886436566412 400.2631578947368 124.52909066761751 410.96491228070175 130.2373967926876 421.66666666666663 135.84574890882257 432.3684210526316 141.37943662289672 443.0701754385965 121.22920279337947 453.7719298245614 79.82202343687567 464.4736842105263 56.907954568678974 475.17543859649123 42.33061826132143 485.8771929824561 40.65164669100932 496.57894736842104 48.213699397263895 507.2807017543859 54.44629808912333 517.9824561403509 60.70342439577536 528.6842105263157 67.33074198837289 539.3859649122807 74.42206437825723 550.0877192982456 59.24106419356832 560.7894736842105 61.971890397318134 571.4912280701755 68.36911248123093 582.1929824561404 73.31399675502848 592.8947368421052 79.16450225204105 603.5964912280701 84.7025126956311 614.2982456140351 89.68409672339715 625 91.55850812242215 625 320 15 320"
      />
      
      <polygon
        fill="#3572A5"
        fillRule="evenodd"
        points="15 287.1797043191461 25.70175438596491 281.3647454026217 36.40350877192982 282.50659301968375 47.10526315789473 283.6510531810258 57.807017543859644 284.76058902358386 68.50877192982456 285.8020674510628 79.21052631578947 286.8459408381154 89.91228070175438 287.8257918032465 100.61403508771929 288.80789086782323 111.3157894736842 245.74319584285792 122.01754385964912 245.95176370657794 132.71929824561403 248.21204573137163 143.42105263157893 249.2161883292864 154.12280701754386 234.09989355841907 164.82456140350877 198.91320313991542 175.52631578947367 182.56474069105883 186.22807017543857 130.8014580890726 196.9298245614035 123.50755911757 207.6315789473684 89.09450582764438 218.33333333333331 72.36694690718605 229.03508771929825 37.57781583108164 239.73684210526315 46.19861865801602 250.43859649122805 54.02483434851297 261.140350877193 62.14355632771702 271.84210526315786 69.7643709095561 282.5438596491228 77.40265910931487 293.2456140350877 84.57249469334513 303.9473684210526 90.42869667000917 314.64912280701753 97.43625276745357 325.35087719298247 104.01398994795352 336.05263157894734 110.60684983847193 346.7543859649123 110.14212951979846 357.45614035087715 111.61948766139079 368.15789473684214 117.98018823509693 378.859649122807 123.55828283608255 389.56140350877195 128.54617096375227 400.2631578947368 131.77570475204047 410.96491228070175 137.2628122784789 421.66666666666663 142.66353205600933 432.3684210526316 147.9891099928312 443.0701754385965 127.63712013958482 453.7719298245614 92.84136348822057 464.4736842105263 69.52988678482217 475.17543859649123 54.579516840103395 485.8771929824561 52.52665478920363 496.57894736842104 59.7262290717195 507.2807017543859 65.64094847538053 517.9824561403509 71.55636430288226 528.6842105263157 77.8629284266224 539.3859649122807 84.63276209213194 550.0877192982456 69.14999012604702 560.7894736842105 71.57835194406928 571.4912280701755 77.68234203253056 582.1929824561404 82.3519784698567 592.8947368421052 87.9266062296754 603.5964912280701 93.20565681540526 614.2982456140351 97.92768800651078 625 99.72879984142239 625 320 15 320"
      />
      
      <polygon
        fill="#b07219"
        fillRule="evenodd"
        points="15 289.5663409913115 25.70175438596491 283.678531366661 36.40350877192982 284.7519962737787 47.10526315789473 285.82791687066606 57.807017543859644 286.87100509394793 68.50877192982456 287.85011119113017 79.21052631578947 288.8314693982427 89.91228070175438 289.7526390157745 100.61403508771929 290.67592228602877 111.3157894736842 251.8293781063463 122.01754385964912 251.86989584169243 132.71929824561403 253.9495309968323 143.42105263157893 254.7841052114736 154.12280701754386 239.49785246739626 164.82456140350877 213.21074002902728 175.52631578947367 198.67205779116927 186.22807017543857 150.7324049843034 196.9298245614035 143.51139052358317 207.6315789473684 108.48773267155894 218.33333333333331 93.30359157715324 229.03508771929825 57.87538149800366 239.73684210526315 65.87661155528178 250.43859649122805 73.14036377740129 261.140350877193 80.6755914340907 271.84210526315786 87.74870304078348 282.5438596491228 94.83802973712062 293.2456140350877 101.49257215457754 303.9473684210526 106.83229882657668 314.64912280701753 113.33914528008685 325.35087719298247 119.44687721437612 336.05263157894734 125.56866175952823 346.7543859649123 124.66175113367208 357.45614035087715 125.69590552497894 368.15789473684214 131.62693232308945 378.859649122807 136.8282157921335 389.56140350877195 141.41104815405083 400.2631578947368 144.260367627717 410.96491228070175 149.36638999143997 421.66666666666663 154.40939236342612 432.3684210526316 159.37643615632385 443.0701754385965 138.6768531432031 453.7719298245614 110.33907168878943 464.4736842105263 86.49348755317553 475.17543859649123 71.04176819673458 485.8771929824561 68.48640515209459 496.57894736842104 75.19881758974225 507.2807017543859 80.68631343294749 517.9824561403509 86.14247593258392 528.6842105263157 92.01795815501029 539.3859649122807 98.3557174834038 550.0877192982456 87.98306239488423 560.7894736842105 93.17343925546106 571.4912280701755 98.61824953722575 582.1929824561404 102.6691382188788 592.8947368421052 107.62359609243921 603.5964912280701 112.32051337409283 614.2982456140351 116.45907315973881 625 118.09541009539944 625 320 15 320"
      />
      
      <polygon
        fill="#00ADD8"
        fillRule="evenodd"
        points="15 303.3856676919064 25.70175438596491 303.89281072613016 36.40350877192982 304.3688509241643 47.10526315789473 304.8459819740205 57.807017543859644 305.30855254560976 68.50877192982456 305.7427483654421 79.21052631578947 306.1779428596083 89.91228070175438 306.5864458597138 100.61403508771929 306.9958873768837 111.3157894736842 267.87545510599836 122.01754385964912 267.4729142324079 132.71929824561403 269.07627696335544 143.42105263157893 269.46378845026845 154.12280701754386 256.22246972920004 164.82456140350877 233.82193832652302 175.52631578947367 218.65411035583065 186.22807017543857 176.94873746144884 196.9298245614035 170.51595702022783 207.6315789473684 135.07604269177708 218.33333333333331 119.10609933205092 229.03508771929825 82.89028099632304 239.73684210526315 90.1279466073191 250.43859649122805 96.69850820323711 261.140350877193 103.51463750294835 271.84210526315786 109.9127520788399 282.5438596491228 116.32553484315739 293.2456140350877 122.34502465683113 303.9473684210526 127.73912522495033 314.64912280701753 133.60780108201564 325.35087719298247 139.11650538653484 336.05263157894734 144.6378860054419 346.7543859649123 143.16739661452735 357.45614035087715 143.63667615399353 368.15789473684214 149.02006872812296 378.859649122807 153.74110111757756 389.56140350877195 157.80767716002305 400.2631578947368 160.17240277216055 410.96491228070175 164.79272043376804 421.66666666666663 169.37980454598903 432.3684210526316 173.88988544336047 443.0701754385965 155.23282761612504 453.7719298245614 133.20721923468423 464.4736842105263 108.66359496937835 475.17543859649123 92.55665345433744 485.8771929824561 89.34456018155583 496.57894736842104 95.42028781183018 507.2807017543859 100.34943507121588 517.9824561403509 105.20539289566952 528.6842105263157 110.51748159923278 539.3859649122807 116.29055386832044 550.0877192982456 105.3878451199964 560.7894736842105 110.04695117050971 571.4912280701755 114.97670827819465 582.1929824561404 118.5441285803578 592.8947368421052 123.01401359969012 603.5964912280701 127.25607380854606 614.2982456140351 130.93873188563336 625 132.44632335215024 625 320 15 320"
      />
      
      <polygon
        fill="#2b7489"
        fillRule="evenodd"
        points="15 303.3856676919064 25.70175438596491 303.89281072613016 36.40350877192982 304.3688509241643 47.10526315789473 304.8459819740205 57.807017543859644 305.30855254560976 68.50877192982456 305.7427483654421 79.21052631578947 306.1779428596083 89.91228070175438 306.5864458597138 100.61403508771929 306.9958873768837 111.3157894736842 274.94877933203554 122.01754385964912 274.3509323125534 132.71929824561403 275.7443480823326 143.42105263157893 275.9347875369424 154.12280701754386 273.2722589953991 164.82456140350877 257.22387373903183 175.52631578947367 243.33317759962975 186.22807017543857 217.70293225514808 196.9298245614035 210.0656759594532 207.6315789473684 173.41853572991798 218.33333333333331 156.35009261746234 229.03508771929825 118.9974253836549 239.73684210526315 125.13294806674728 250.43859649122805 130.70293512291076 261.140350877193 136.4811077099252 271.84210526315786 141.90491005460788 282.5438596491228 147.34114999435465 293.2456140350877 152.44399198009938 303.9473684210526 156.91934526340955 314.64912280701753 161.89730585013226 325.35087719298247 166.5699246875441 336.05263157894734 171.25330817499864 346.7543859649123 168.9962163315901 357.45614035087715 168.67708360779537 368.15789473684214 173.29613064601517 378.859649122807 177.3468659107161 389.56140350877195 180.6928864534307 400.2631578947368 182.3812508334044 410.96491228070175 186.3236597250448 421.66666666666663 190.2744091515674 432.3684210526316 194.14669058146941 443.0701754385965 174.87130832749511 453.7719298245614 159.06675289824358 464.4736842105263 133.73377931675753 475.17543859649123 116.88590840342783 485.8771929824561 112.93117268248966 496.57894736842104 118.28693938329562 507.2807017543859 122.58469503844842 517.9824561403509 126.76193690332798 528.6842105263157 131.43693083886575 539.3859649122807 136.5714473776661 550.0877192982456 125.0693494193695 560.7894736842105 129.12768996343527 571.4912280701755 133.47501520874292 582.1929824561404 136.49573006424092 592.8947368421052 140.41764983546307 603.5964912280701 144.14535775017399 614.2982456140351 147.31248203160956 625 148.67448144715368 625 320 15 320"
      />
      
      <polygon
        fill="#dea584"
        fillRule="evenodd"
        points="15 318.67483383027025 25.70175438596491 318.71528376932844 36.40350877192982 318.7532530008318 47.10526315789473 318.7913091898276 57.807017543859644 318.82820373876433 68.50877192982456 318.86283561046207 79.21052631578947 318.8975469279508 89.91228070175438 318.93012937833885 100.61403508771929 318.9627865001314 111.3157894736842 303.52124798175464 122.01754385964912 302.13447497502665 132.71929824561403 302.67980883594487 143.42105263157893 303.19169627349817 154.12280701754386 301.0449275152332 164.82456140350877 286.49801168875 175.52631578947367 274.2728914643763 186.22807017543857 248.7011597273824 196.9298245614035 240.1477686911585 207.6315789473684 224.1325310452211 218.33333333333331 205.99826917376078 229.03508771929825 177.67986790893303 239.73684210526315 182.02411717618003 250.43859649122805 185.96796411302716 261.140350877193 190.05920909210494 271.84210526315786 193.89952568625353 282.5438596491228 197.74868317098708 293.2456140350877 201.36175424688514 303.9473684210526 204.41309583675337 314.64912280701753 207.94132351862237 325.35087719298247 211.25314353954275 336.05263157894734 214.57258984712848 346.7543859649123 213.02082130083585 357.45614035087715 211.35786174959668 368.15789473684214 214.67409330362148 378.859649122807 217.58232488689995 389.56140350877195 219.7001663377464 400.2631578947368 220.2356997200563 410.96491228070175 223.0226205088124 421.66666666666663 225.88875155213998 432.3684210526316 228.67393319104892 443.0701754385965 210.94559220417057 453.7719298245614 200.73551388736806 464.4736842105263 188.30204389324854 475.17543859649123 177.57134610431936 485.8771929824561 172.06969388691857 496.57894736842104 175.62027397310138 507.2807017543859 178.33498694078506 517.9824561403509 180.81048404844398 528.6842105263157 183.8880955858763 539.3859649122807 187.42155981483288 550.0877192982456 179.15856733483284 560.7894736842105 181.56589065969962 571.4912280701755 184.3125550948546 582.1929824561404 185.8308023554024 592.8947368421052 188.24679469294102 603.5964912280701 190.56093345231167 614.2982456140351 192.31126554924276 625 193.27315228049994 625 320 15 320"
      />
      
      <polygon
        fill="#f1e05a"
        fillRule="evenodd"
        points="15 318.67483383027025 25.70175438596491 318.71528376932844 36.40350877192982 318.7532530008318 47.10526315789473 318.7913091898276 57.807017543859644 318.82820373876433 68.50877192982456 318.86283561046207 79.21052631578947 318.8975469279508 89.91228070175438 318.93012937833885 100.61403508771929 318.9627865001314 111.3157894736842 315.0440069383826 122.01754385964912 315.18085014894166 132.71929824561403 315.3279517972598 143.42105263157893 315.46603151025784 154.12280701754386 312.94459436470197 164.82456140350877 298.0459895913324 175.52631578947367 294.77164086523516 186.22807017543857 288.5476316129396 196.9298245614035 281.1558908210791 207.6315789473684 276.1843629244026 218.33333333333331 265.12208781418116 229.03508771929825 246.71294477913085 239.73684210526315 248.949986745677 250.43859649122805 250.9808643383139 261.140350877193 253.08762921253458 271.84210526315786 255.06517754481249 282.5438596491228 257.04727618569507 293.2456140350877 258.90781003469465 303.9473684210526 260.7726242803168 314.64912280701753 262.58051638061005 325.35087719298247 264.27749248061787 336.05263157894734 265.978409040931 346.7543859649123 262.90737087879967 357.45614035087715 259.756352194412 368.15789473684214 261.5952357922023 378.859649122807 263.2079089587302 389.56140350877195 264.0871663381137 400.2631578947368 263.3457868743264 410.96491228070175 264.8167880794713 421.66666666666663 266.44771213403715 432.3684210526316 267.99485525471124 443.0701754385965 249.24111928424853 453.7719298245614 244.53087828140087 464.4736842105263 230.76058643967548 475.17543859649123 221.28325740566515 485.8771929824561 214.44732267767915 496.57894736842104 216.70435340894076 507.2807017543859 218.28466260100578 517.9824561403509 219.5407272928217 528.6842105263157 221.47367903589878 539.3859649122807 223.85987283597464 550.0877192982456 218.80656033553842 560.7894736842105 220.1058682371353 571.4912280701755 221.67611938835626 582.1929824561404 222.0901159885172 592.8947368421052 223.39930368719638 603.5964912280701 224.67453594925382 614.2982456140351 225.38356417027555 625 226.0513862530797 625 320 15 320"
      />
      

      
        <g id="labels">
        
          
          <text x="15" y="330">
            Apr 2018
          </text>
          
        
          
        
          
        
          
        
          
        
          
        
          
        
          
        
          
          <text x="99.13793103448276" y="330">
            Dec 2018
          </text>
          
        
          
        
          
        
          
        
          
        
          
        
          
        
          
        
          
          <text x="183.27586206896552" y="330">
            Aug 2019
          </text>
          
        
          
        
          
        
          
        
          
        
          
        
          
        
          
        
          
          <text x="267.41379310344826" y="330">
            Apr 2020
          </text>
          
        
          
        
          
        
          
        
          
        
          
        
          
        
          
        
          
          <text x="351.55172413793105" y="330">
            Dec 2020
          </text>
          
        
          
        
          
        
          
        
          
        
          
        
          
        
          
        
          
          <text x="435.6896551724138" y="330">
            Aug 2021
          </text>
          
        
          
        
          
        
          
        
          
        
          
        
          
        
          
        
          
          <text x="519.8275862068965" y="330">
            Apr 2022
          </text>
          
        
          
        
          
        
          
        
          
        
          
        
          
        
          
        
          
          <text x="603.9655172413793" y="330">
            Dec 2022
          </text>
          
        
          
        
        </g>
      

      
        <text text-anchor="middle" y="370" x="320" id="legend">
          
          <tspan xml:space="preserve" fill="#f1e05a">   ◉</tspan> JavaScript
          
          <tspan xml:space="preserve" fill="#dea584">   ◉</tspan> Rust
          
          <tspan xml:space="preserve" fill="#2b7489">   ◉</tspan> TypeScript
          
          <tspan xml:space="preserve" fill="#00ADD8">   ◉</tspan> Go
          
          <tspan xml:space="preserve" fill="#b07219">   ◉</tspan> Java
          
          <tspan xml:space="preserve" fill="#3572A5">   ◉</tspan> Python
          
          <tspan xml:space="preserve" fill="#f34b7d">   ◉</tspan> C++
          
          <tspan xml:space="preserve" fill="#555555">   ◉</tspan> C
          
        </text>
      
        <text text-anchor="middle" y="400" x="320" id="legend">
          
          <tspan xml:space="preserve" fill="#178600">   ◉</tspan> C#
          
        </text>
      

    </svg>