<svg
      xmlns="http://www.w3.org/2000/svg"
      viewBox="0 0 640 430"
      style="background-color: #fffc"
    >
      <style>
        text {
          font-size: 12px;
          font-family: Open Sans, Helvetica Neue, Helvetica, Arial, sans-serif;
        }
        #labels text {
          dominant-baseline: hanging;
          font-size: 10px;
          fill: rgba(0,0,0,0.5);
        }
        #legend {
          font-weight: 600;
        }
        #legend tspan {
          font-size: 15px;
        }
        #branding-text {
          font-size: 9px;
          dominant-baseline: hanging;
          opacity: 0.5;
        }
        #branding-logo {
          opacity: 0.5;
        }
      </style>

      
      
      <polygon
        fill="#178600"
        fillRule="evenodd"
        points="15 267.46170733249477 25.70175438596491 248.64036692986062 36.40350877192982 250.74936333268022 47.10526315789473 252.86320032690324 57.807017543859644 252.82191168642558 68.50877192982456 254.80732201052405 79.21052631578947 256.7972956933121 89.91228070175438 258.6652142203494 100.61403508771929 260.5374238387244 111.3157894736842 214.21229906735806 122.01754385964912 215.2914931334553 132.71929824561403 218.4876619206335 143.42105263157893 220.37028479442387 154.12280701754386 206.1344953214163 164.82456140350877 171.7743115970098 175.52631578947367 156.25426026080163 186.22807017543857 105.29407837247291 196.9298245614035 98.75402509695593 207.6315789473684 65.09655360419725 218.33333333333331 49.0782246224677 229.03508771929825 15 239.73684210526315 24.309971513306778 250.43859649122805 32.76181489947646 261.140350877193 41.52962190560936 271.84210526315786 49.7596572858281 282.5438596491228 58.00858777836095 293.2456140350877 65.75159848758449 303.9473684210526 72.18228119760659 314.64912280701753 79.7467750464038 325.35087719298247 86.84733525841881 336.05263157894734 93.96419261620733 346.7543859649123 93.99136123119035 357.45614035087715 95.96170581930116 368.15789473684214 102.8003393005742 378.859649122807 108.79756907625278 389.56140350877195 114.23600350119179 400.2631578947368 117.88849873587384 410.96491228070175 123.79951238412423 421.66666666666663 129.5981293970092 432.3684210526316 135.32252398715474 443.0701754385965 115.3571672262679 453.7719298245614 60.52056952673371 464.4736842105263 38.195679854510956 475.17543859649123 24.17135025467212 485.8771929824561 23.046661377181977 496.57894736842104 31.146083863833496 507.2807017543859 37.84996970544745 517.9824561403509 44.61375149983047 528.6842105263157 51.71657458010725 539.3859649122807 59.28451903722936 550.0877192982456 44.55087473837557 560.7894736842105 47.73007064493362 571.4912280701755 54.56208096983107 582.1929824561404 59.91500861386993 592.8947368421052 66.17452574562341 603.5964912280701 72.09636833921363 614.2982456140351 77.46285524112912 625 62.362496038615745 625 320 15 320"
      />
      
      <polygon
        fill="#555555"
        fillRule="evenodd"
        points="15 273.44751047329265 25.70175438596491 254.4434568427241 36.40350877192982 256.3809458211962 47.10526315789473 258.32288198161785 57.807017543859644 258.11493987647856 68.50877192982456 259.9439177426979 79.21052631578947 261.77709974276087 89.91228070175438 263.4978425835885 100.61403508771929 265.2225389347938 111.3157894736842 218.7544040976764 122.01754385964912 219.70818285840892 132.71929824561403 222.76953487281042 143.42105263157893 224.52560938381376 154.12280701754386 210.1629807560475 164.82456140350877 175.68373719871119 175.52631578947367 160.04435293466105 186.22807017543857 108.9684806571556 196.9298245614035 102.31983255847456 207.6315789473684 68.55351695591403 218.33333333333331 52.433019029742695 229.03508771929825 18.25239107228157 239.73684210526315 27.463085455266537 250.43859649122805 35.82480160018315 261.140350877193 44.49911274887023 271.84210526315786 52.641386628213695 282.5438596491228 60.80235382246525 293.2456140350877 68.46279629023877 303.9473684210526 74.81072105651751 314.64912280701753 82.29498356694751 325.35087719298247 89.32023273242538 336.05263157894734 96.3616062745412 346.7543859649123 96.31792063736825 357.45614035087715 98.21724832588714 368.15789473684214 104.98703254273232 378.859649122807 110.92388421625611 389.56140350877195 116.29741416593203 400.2631578947368 119.8889854905859 410.96491228070175 125.7389354347691 421.66666666666663 131.48023377241734 432.3684210526316 137.1471782325491 443.0701754385965 117.12612494200869 453.7719298245614 69.03872322220846 464.4736842105263 46.45382109362686 475.17543859649123 32.18542612517871 485.8771929824561 30.81611232097248 496.57894736842104 38.678377021513256 507.2807017543859 45.174283581431155 517.9824561403509 51.71449549389945 528.6842105263157 58.60745945733896 539.3859649122807 65.96506353945674 550.0877192982456 51.03397925812777 560.7894736842105 54.01528257036324 571.4912280701755 60.65544021824951 582.1929824561404 65.82828182014066 592.8947368421052 71.90729976616129 603.5964912280701 77.65971338502683 614.2982456140351 82.85638235885801 625 67.61455489916531 625 320 15 320"
      />
      
      <polygon
        fill="#f34b7d"
        fillRule="evenodd"
        points="15 280.3108528692431 25.70175438596491 267.9036493808047 36.40350877192982 269.443330103893 47.10526315789473 270.9865451462175 57.807017543859644 270.39205215265645 68.50877192982456 271.8581855512673 79.21052631578947 273.32769043070294 89.91228070175438 274.70706335815737 100.61403508771929 276.08960297708165 111.3157894736842 229.289758402097 122.01754385964912 229.9526376082465 132.71929824561403 232.7012844896938 143.42105263157893 234.16383162374257 154.12280701754386 219.50700147563714 164.82456140350877 184.75160103288044 175.52631578947367 168.83542520828772 186.22807017543857 117.49121044301754 196.9298245614035 110.59067748539255 207.6315789473684 76.57189932311238 218.33333333333331 60.21442185459574 229.03508771929825 25.7962719844744 239.73684210526315 34.77669324679158 250.43859649122805 42.92936064741906 261.140350877193 51.38680897245382 271.84210526315786 59.32552083256155 282.5438596491228 67.28245811769298 293.2456140350877 74.75138498014755 303.9473684210526 80.90735426095748 314.64912280701753 88.20552104971 325.35087719298247 95.05608655059743 336.05263157894734 101.92237633452766 346.7543859649123 101.71434548945652 357.45614035087715 103.44895079353768 368.15789473684214 110.05903999135143 378.859649122807 115.85584553831075 389.56140350877195 121.0788296577806 400.2631578947368 124.52908913415939 410.96491228070175 130.23740238080487 421.66666666666663 135.84575079448612 432.3684210526316 141.37944053381196 443.0701754385965 121.2291999178776 453.7719298245614 79.82201142153488 464.4736842105263 56.90795480678162 475.17543859649123 42.33059273177611 485.8771929824561 40.65160330204458 496.57894736842104 48.21364534418865 507.2807017543859 54.44626771977306 517.9824561403509 60.70345845209414 528.6842105263157 67.33075772205322 539.3859649122807 74.42208789896355 550.0877192982456 59.24106066085744 560.7894736842105 61.97184745334175 571.4912280701755 68.36913714877204 582.1929824561404 73.31400370140082 592.8947368421052 79.16452396197519 603.5964912280701 84.70245367487314 614.2982456140351 89.68414793579672 625 74.26323387221291 625 320 15 320"
      />
      
      <polygon
        fill="#3572A5"
        fillRule="evenodd"
        points="15 287.17970554388745 25.70175438596491 281.3647445962407 36.40350877192982 282.5065896907955 47.10526315789473 283.651056878458 57.807017543859644 284.7605882880797 68.50877192982456 285.802066737296 79.21052631578947 286.84594205589053 89.91228070175438 287.8257911317181 100.61403508771929 288.8078876704534 111.3157894736842 245.74319531153276 122.01754385964912 245.95176680813975 132.71929824561403 248.21205123547327 143.42105263157893 249.21618468752393 154.12280701754386 234.09988985578872 164.82456140350877 198.91320570531494 175.52631578947367 182.564754373767 186.22807017543857 130.80145923286867 196.9298245614035 123.50754992377239 207.6315789473684 89.09449145949586 218.33333333333331 72.36691627528415 229.03508771929825 37.5778175754873 239.73684210526315 46.19861421650313 250.43859649122805 54.02480333378122 261.140350877193 62.14356813362298 271.84210526315786 69.76437014282348 282.5438596491228 77.40266677760908 293.2456140350877 84.57249741860653 303.9473684210526 90.42868232970744 314.64912280701753 97.43621629294032 325.35087719298247 104.01397398144445 336.05263157894734 110.6068295534725 346.7543859649123 110.14213405190972 357.45614035087715 111.61948585848816 368.15789473684214 117.98017446983985 378.859649122807 123.5582640945704 389.56140350877195 128.54613641172364 400.2631578947368 131.77570336983106 410.96491228070175 137.2628180132281 421.66666666666663 142.66353344738624 432.3684210526316 147.989114678286 443.0701754385965 127.63711739782664 453.7719298245614 92.84135301778446 464.4736842105263 69.52988728636515 475.17543859649123 54.579491566212596 485.8771929824561 52.526611648089784 496.57894736842104 59.72617525892957 507.2807017543859 65.64091833968092 517.9824561403509 71.55639858571959 528.6842105263157 77.86294501671156 539.3859649122807 84.63278455278248 550.0877192982456 69.14998680015165 560.7894736842105 71.57830920059544 571.4912280701755 77.68236625786909 582.1929824561404 82.35198560486648 592.8947368421052 87.926628122489 603.5964912280701 93.20559733553702 614.2982456140351 97.92773875438269 625 82.29060290811756 625 320 15 320"
      />
      
      <polygon
        fill="#b07219"
        fillRule="evenodd"
        points="15 289.5663422658659 25.70175438596491 283.6785306085725 36.40350877192982 284.7519929917557 47.10526315789473 285.8279206135329 57.807017543859644 286.8710044024916 68.50877192982456 287.8501105201094 79.21052631578947 288.83147065745914 89.91228070175438 289.7526383844626 100.61403508771929 290.6759191276478 111.3157894736842 251.82937770204973 122.01754385964912 251.86989906677533 132.71929824561403 253.94953662068463 143.42105263157893 254.78410168592262 154.12280701754386 239.497849514015 164.82456140350877 213.21074098308515 175.52631578947367 198.67207181006347 186.22807017543857 150.73240781726062 196.9298245614035 143.51138302046797 207.6315789473684 108.48771934476366 218.33333333333331 93.30356138223334 229.03508771929825 57.87538111971327 239.73684210526315 65.87660879765053 250.43859649122805 73.14033061530236 261.140350877193 80.67560108045103 271.84210526315786 87.74870264941325 282.5438596491228 94.83803776931956 293.2456140350877 101.49257332323404 303.9473684210526 106.8322861018147 314.64912280701753 113.33910659115347 325.35087719298247 119.44686411631616 336.05263157894734 125.56864051363655 346.7543859649123 124.66175469566184 357.45614035087715 125.69590401587413 368.15789473684214 131.62691820607742 378.859649122807 136.82819860075637 389.56140350877195 141.41101387053325 400.2631578947368 144.26036586949803 410.96491228070175 149.36639343247109 421.66666666666663 154.40939527312813 432.3684210526316 159.37643853311124 443.0701754385965 138.67685190503198 453.7719298245614 110.33906031038933 464.4736842105263 86.49348840877659 475.17543859649123 71.04174326643789 485.8771929824561 68.48636361725659 496.57894736842104 75.19876409989055 507.2807017543859 80.68628361126923 517.9824561403509 86.14251179302704 528.6842105263157 92.01797376736832 539.3859649122807 98.35574023047482 550.0877192982456 87.98305818889614 560.7894736842105 93.1733944163725 571.4912280701755 98.61827419953093 582.1929824561404 102.6691438681863 592.8947368421052 107.62361585002168 603.5964912280701 112.32045429318282 614.2982456140351 116.45912429439102 625 100.33592915809649 625 320 15 320"
      />
      
      <polygon
        fill="#00ADD8"
        fillRule="evenodd"
        points="15 303.3856692548928 25.70175438596491 303.8928103899468 36.40350877192982 304.3688505979166 47.10526315789473 304.84598356748603 57.807017543859644 305.30855223897527 68.50877192982456 305.7427480678699 79.21052631578947 306.17794448087403 89.91228070175438 306.586445579751 100.61403508771929 306.9958871054666 111.3157894736842 267.87545440002475 122.01754385964912 267.4729165099816 132.71929824561403 269.0762829029277 143.42105263157893 269.4637852311065 154.12280701754386 256.2224683980587 164.82456140350877 233.82193971077027 175.52631578947367 218.65412351861323 186.22807017543857 176.94874275133844 196.9298245614035 170.5159532636665 207.6315789473684 135.0760299199233 218.33333333333331 119.10606967567156 229.03508771929825 82.8902792303798 239.73684210526315 90.12793989975876 250.43859649122805 96.69847807917469 261.140350877193 103.51464507965741 271.84210526315786 109.9127566061637 282.5438596491228 116.3255401409113 293.2456140350877 122.34502626071239 303.9473684210526 127.73911293654803 314.64912280701753 133.6077666356315 325.35087719298247 139.1164914258424 336.05263157894734 144.6378632478015 346.7543859649123 143.16739928959046 357.45614035087715 143.6366724730025 368.15789473684214 149.02005624730393 378.859649122807 153.74108300603024 389.56140350877195 157.8076432187299 400.2631578947368 160.1724013460518 410.96491228070175 164.79272292360216 421.66666666666663 169.379807768148 432.3684210526316 173.88988748648242 443.0701754385965 155.23282417716467 453.7719298245614 133.20720833357979 464.4736842105263 108.6635988340453 475.17543859649123 92.55662897309162 485.8771929824561 89.34452099181621 496.57894736842104 95.4202353806185 507.2807017543859 100.34941011603328 517.9824561403509 105.20542915398693 528.6842105263157 110.51749568795148 539.3859649122807 116.2905750799662 550.0877192982456 105.38784000410485 560.7894736842105 110.04690541042919 571.4912280701755 114.97672818924858 582.1929824561404 118.54413710734184 592.8947368421052 123.01403113215628 603.5964912280701 127.25601567595058 614.2982456140351 130.93878586883926 625 114.43580037551493 625 320 15 320"
      />
      
      <polygon
        fill="#2b7489"
        fillRule="evenodd"
        points="15 303.3856692548928 25.70175438596491 303.8928103899468 36.40350877192982 304.3688505979166 47.10526315789473 304.84598356748603 57.807017543859644 305.30855223897527 68.50877192982456 305.7427480678699 79.21052631578947 306.17794448087403 89.91228070175438 306.586445579751 100.61403508771929 306.9958871054666 111.3157894736842 274.94877813710895 122.01754385964912 274.3509347336826 132.71929824561403 275.7443535244935 143.42105263157893 275.93478445284074 154.12280701754386 273.27225802011475 164.82456140350877 257.2238756117158 175.52631578947367 243.33318618482582 186.22807017543857 217.70293202979565 196.9298245614035 210.06567812103822 207.6315789473684 173.41852375833483 218.33333333333331 156.350063738426 229.03508771929825 118.99742755425123 239.73684210526315 125.1329369971196 250.43859649122805 130.70290570857634 261.140350877193 136.48111342835887 271.84210526315786 141.90491524966038 282.5438596491228 147.34115593945518 293.2456140350877 152.44399421219535 303.9473684210526 156.9193297645369 314.64912280701753 161.89726753810226 325.35087719298247 166.5699157559436 336.05263157894734 171.2532859728656 346.7543859649123 168.99621954574295 357.45614035087715 168.6770779030991 368.15789473684214 173.2961186718772 378.859649122807 177.34684383576558 389.56140350877195 180.69285298978932 400.2631578947368 182.38124987083066 410.96491228070175 186.32366266426482 421.66666666666663 190.2744102634914 432.3684210526316 194.14669304738402 443.0701754385965 174.87130275208247 453.7719298245614 159.06674699296403 464.4736842105263 133.73378179492565 475.17543859649123 116.88588442997334 485.8771929824561 112.9311365313807 496.57894736842104 118.28687788057522 507.2807017543859 122.58467436686132 517.9824561403509 126.76197106522619 528.6842105263157 131.43694536420756 539.3859649122807 136.57147028577702 550.0877192982456 125.06934471426314 560.7894736842105 129.12764396501612 571.4912280701755 133.47503550588675 582.1929824561404 136.49574023907397 592.8947368421052 140.41766709458665 603.5964912280701 144.14529869691572 614.2982456140351 147.31253190046831 625 130.38007887608046 625 320 15 320"
      />
      
      <polygon
        fill="#dea584"
        fillRule="evenodd"
        points="15 318.6748338026119 25.70175438596491 318.7152837425143 36.40350877192982 318.75325297481015 47.10526315789473 318.79130916460025 57.807017543859644 318.82820371430705 68.50877192982456 318.8628355867276 79.21052631578947 318.89754690494084 89.91228070175438 318.93012935600893 100.61403508771929 318.96278647848305 111.3157894736842 303.52124547342754 122.01754385964912 302.1344754297043 132.71929824561403 302.6798097476139 143.42105263157893 303.1916975778021 154.12280701754386 301.0449283927796 164.82456140350877 286.49801608218775 175.52631578947367 274.27289305631626 186.22807017543857 248.70115887584387 196.9298245614035 240.1477702074362 207.6315789473684 224.132535410159 218.33333333333331 205.99824769681192 229.03508771929825 177.6798649384791 239.73684210526315 182.0241200256616 250.43859649122805 185.96793903508868 261.140350877193 190.05922229465003 271.84210526315786 193.8995446982162 282.5438596491228 197.74867743647775 293.2456140350877 201.36175431705044 303.9473684210526 204.413081329153 314.64912280701753 207.94129889930383 325.35087719298247 211.2531323576297 336.05263157894734 214.57257809791287 346.7543859649123 213.02082925336344 357.45614035087715 211.35785311620884 368.15789473684214 214.67408473944877 378.859649122807 217.58230365172926 389.56140350877195 219.70014514677854 400.2631578947368 220.23570400366094 410.96491228070175 223.0226312164334 421.66666666666663 225.8887508610541 432.3684210526316 228.67393637760352 443.0701754385965 210.94559056461156 453.7719298245614 200.73549866642566 464.4736842105263 188.302034778648 475.17543859649123 177.57130811943222 485.8771929824561 172.06966788231557 496.57894736842104 175.62021366702146 507.2807017543859 178.33495088159094 517.9824561403509 180.81050024087745 528.6842105263157 183.88810165718655 539.3859649122807 187.4215869671932 550.0877192982456 179.15857394401496 560.7894736842105 181.5658425728271 571.4912280701755 184.31258918475854 582.1929824561404 185.83081355993912 592.8947368421052 188.24681295033707 603.5964912280701 190.56087536782238 614.2982456140351 192.31130999145094 625 188.15621037115648 625 320 15 320"
      />
      
      <polygon
        fill="#f1e05a"
        fillRule="evenodd"
        points="15 318.6748338026119 25.70175438596491 318.7152837425143 36.40350877192982 318.75325297481015 47.10526315789473 318.79130916460025 57.807017543859644 318.82820371430705 68.50877192982456 318.8628355867276 79.21052631578947 318.89754690494084 89.91228070175438 318.93012935600893 100.61403508771929 318.96278647848305 111.3157894736842 315.044006580309 122.01754385964912 315.1808496027487 132.71929824561403 315.3279516997465 143.42105263157893 315.4660317975774 154.12280701754386 312.94459421744415 164.82456140350877 298.04599295262557 175.52631578947367 294.771640338678 186.22807017543857 288.54763541257137 196.9298245614035 281.15588682741463 207.6315789473684 276.18436200989856 218.33333333333331 265.12207393709184 229.03508771929825 246.71294324951015 239.73684210526315 248.94999417493528 250.43859649122805 250.98084380022536 261.140350877193 253.08763099888836 271.84210526315786 255.06519146755357 282.5438596491228 257.0472716888444 293.2456140350877 258.907817671789 303.9473684210526 260.77261413195635 314.64912280701753 262.58049290170084 325.35087719298247 264.27749768344677 336.05263157894734 265.9783951817145 346.7543859649123 262.9073824188807 357.45614035087715 259.75634202484025 368.15789473684214 261.5952409390481 378.859649122807 263.20788867584 389.56140350877195 264.0871460735751 400.2631578947368 263.34577932601155 410.96491228070175 264.8167964764806 421.66666666666663 266.4477148358226 432.3684210526316 267.9948643546369 443.0701754385965 249.24112099031936 453.7719298245614 244.5308703403881 464.4736842105263 230.76057184540542 475.17543859649123 221.28323624773896 485.8771929824561 214.44730774292464 496.57894736842104 216.70429396035274 507.2807017543859 218.2846222829477 517.9824561403509 219.54074429361873 528.6842105263157 221.47368971119087 539.3859649122807 223.85989629276804 550.0877192982456 218.80655822346583 560.7894736842105 220.1058279570888 571.4912280701755 221.67615553126868 582.1929824561404 222.0901266766753 592.8947368421052 223.39932713437693 603.5964912280701 224.67448303286534 614.2982456140351 225.38360675641718 625 220.3610539317588 625 320 15 320"
      />
      

      
        <g id="labels">
        
          
          <text x="15" y="330">
            Apr 2018
          </text>
          
        
          
        
          
        
          
        
          
        
          
        
          
        
          
        
          
          <text x="99.13793103448276" y="330">
            Dec 2018
          </text>
          
        
          
        
          
        
          
        
          
        
          
        
          
        
          
        
          
          <text x="183.27586206896552" y="330">
            Aug 2019
          </text>
          
        
          
        
          
        
          
        
          
        
          
        
          
        
          
        
          
          <text x="267.41379310344826" y="330">
            Apr 2020
          </text>
          
        
          
        
          
        
          
        
          
        
          
        
          
        
          
        
          
          <text x="351.55172413793105" y="330">
            Dec 2020
          </text>
          
        
          
        
          
        
          
        
          
        
          
        
          
        
          
        
          
          <text x="435.6896551724138" y="330">
            Aug 2021
          </text>
          
        
          
        
          
        
          
        
          
        
          
        
          
        
          
        
          
          <text x="519.8275862068965" y="330">
            Apr 2022
          </text>
          
        
          
        
          
        
          
        
          
        
          
        
          
        
          
        
          
          <text x="603.9655172413793" y="330">
            Dec 2022
          </text>
          
        
          
        
        </g>
      

      
        <text text-anchor="middle" y="370" x="320" id="legend">
          
          <tspan xml:space="preserve" fill="#f1e05a">   ◉</tspan> JavaScript
          
          <tspan xml:space="preserve" fill="#dea584">   ◉</tspan> Rust
          
          <tspan xml:space="preserve" fill="#2b7489">   ◉</tspan> TypeScript
          
          <tspan xml:space="preserve" fill="#00ADD8">   ◉</tspan> Go
          
          <tspan xml:space="preserve" fill="#b07219">   ◉</tspan> Java
          
          <tspan xml:space="preserve" fill="#3572A5">   ◉</tspan> Python
          
          <tspan xml:space="preserve" fill="#f34b7d">   ◉</tspan> C++
          
          <tspan xml:space="preserve" fill="#555555">   ◉</tspan> C
          
        </text>
      
        <text text-anchor="middle" y="400" x="320" id="legend">
          
          <tspan xml:space="preserve" fill="#178600">   ◉</tspan> C#
          
        </text>
      

    </svg>