<svg
      xmlns="http://www.w3.org/2000/svg"
      viewBox="0 0 640 430"
      style="background-color: #fffc"
    >
      <style>
        text {
          font-size: 12px;
          font-family: Open Sans, Helvetica Neue, Helvetica, Arial, sans-serif;
        }
        #labels text {
          dominant-baseline: hanging;
          font-size: 10px;
          fill: rgba(0,0,0,0.5);
        }
        #legend {
          font-weight: 600;
        }
        #legend tspan {
          font-size: 15px;
        }
        #branding-text {
          font-size: 9px;
          dominant-baseline: hanging;
          opacity: 0.5;
        }
        #branding-logo {
          opacity: 0.5;
        }
      </style>

      
      
      <polygon
        fill="#178600"
        fillRule="evenodd"
        points="15 267.4617033179246 26.96078431372549 248.6403663893044 38.92156862745098 250.74936353875438 50.88235294117647 252.86319491401133 62.84313725490196 252.8219069079642 74.80392156862746 254.80731733565955 86.76470588235294 256.7972904856977 98.72549019607844 258.6652122931258 110.68627450980392 260.53742073602126 122.64705882352942 214.21229100111236 134.60784313725492 215.29148321376624 146.5686274509804 218.48764962137798 158.52941176470588 220.37028086900568 170.49019607843135 206.13449065318764 182.45098039215688 171.7742930407847 194.41176470588235 156.25423643865997 206.37254901960785 105.29406016687909 218.33333333333331 98.75403328667431 230.29411764705884 65.09655876452956 242.2549019607843 49.07821303235539 254.2156862745098 15 266.17647058823525 24.309949082035928 278.1372549019608 32.76180500432832 290.0980392156863 41.529600372844186 302.05882352941177 49.759640638593 314.01960784313724 58.00855310058523 325.9803921568627 65.75156548700184 337.94117647058823 72.18225808134477 349.90196078431376 79.74676855776556 361.8627450980392 86.84733900734753 373.8235294117647 93.96419228039281 385.78431372549016 93.99136153337835 397.7450980392157 95.96167407676202 409.7058823529412 102.8003241477839 421.66666666666663 108.79755741931703 433.62745098039215 114.23600651484759 445.5882352941177 117.88849646548334 457.54901960784315 123.79951105874994 469.5098039215686 129.59812474566738 481.4705882352941 135.32251626060668 493.4313725490196 115.35713452235305 505.39215686274514 60.520548984898824 517.3529411764705 38.19568615751979 529.3137254901961 24.171403569772394 541.2745098039215 23.0466745287477 553.2352941176471 31.14610125752921 565.1960784313726 37.85000972941765 577.156862745098 44.61372567189807 589.1176470588235 51.71654593986909 601.0784313725491 59.28446087238888 613.0392156862745 44.55085527301139 625 46.38591758591838 625 320 15 320"
      />
      
      <polygon
        fill="#555555"
        fillRule="evenodd"
        points="15 273.4475067710563 26.96078431372549 254.44345660496782 38.92156862745098 256.3809463211212 50.88235294117647 258.32287685360717 62.84313725490196 258.11493537420256 74.80392156862746 259.94391333585634 86.76470588235294 261.7770947949881 98.72549019607844 263.4978409085271 110.68627450980392 265.2225360765557 122.64705882352942 218.7543962684336 134.60784313725492 219.70817316917874 146.5686274509804 222.76952279697912 158.52941176470588 224.5256056752167 170.49019607843135 210.16297629802153 182.45098039215688 175.68371884647635 194.41176470588235 160.044329310283 206.37254901960785 108.96846264328872 218.33333333333331 102.3198409342535 230.29411764705884 68.55352229662759 242.2549019607843 52.43300761468055 254.2156862745098 18.25239124198839 266.17647058823525 27.463063188522312 278.1372549019608 35.82479186485892 290.0980392156863 44.49909137105038 302.05882352941177 52.641370131344615 314.01960784313724 60.80231929046573 325.9803921568627 68.46276343112396 337.94117647058823 74.81069807740528 349.90196078431376 82.29497721127248 361.8627450980392 89.32023661038764 373.8235294117647 96.36160606382151 385.78431372549016 96.31792106095403 397.7450980392157 98.21721670104014 409.7058823529412 104.98701750404172 421.66666666666663 110.92387267026956 433.62745098039215 116.29741728715035 445.5882352941177 119.88898332457899 457.54901960784315 125.73893421059216 469.5098039215686 131.48022921928202 481.4705882352941 137.1471706012098 493.4313725490196 117.12609233039643 505.39215686274514 69.03870312484315 517.3529411764705 46.45382782753791 529.3137254901961 32.18547985844617 541.2745098039215 30.81612587794109 553.2352941176471 38.678394808237215 565.1960784313726 45.17432398757734 577.156862745098 51.714470036477394 589.1176470588235 58.60743117666084 601.0784313725491 65.96500572320099 613.0392156862745 51.03396013104606 625 52.70863869537476 625 320 15 320"
      />
      
      <polygon
        fill="#f34b7d"
        fillRule="evenodd"
        points="15 280.3108495251297 26.96078431372549 267.90364984538905 38.92156862745098 269.4433312854014 50.88235294117647 270.98654067898525 62.84313725490196 270.392048290989 74.80392156862746 271.85818303927124 86.76470588235294 273.3276879953843 98.72549019607844 274.7070609948131 110.68627450980392 276.08960068587703 122.64705882352942 229.2897511225794 134.60784313725492 229.95262972673245 146.5686274509804 232.7012735686771 158.52941176470588 234.16382841805915 170.49019607843135 219.50699814175857 182.45098039215688 184.7515831537985 194.41176470588235 168.83540267920472 206.37254901960785 117.49119287385898 218.33333333333331 110.59068692932158 230.29411764705884 76.57190508221782 242.2549019607843 60.21441148214507 254.2156862745098 25.7962719112291 266.17647058823525 34.77667072507984 278.1372549019608 42.92935128280425 290.0980392156863 51.38678859061264 302.05882352941177 59.32550468446453 314.01960784313724 67.28242392381938 325.9803921568627 74.75135244916558 337.94117647058823 80.90733159996205 349.90196078431376 88.205514684149 361.8627450980392 95.05609072785131 373.8235294117647 101.92237641396392 385.78431372549016 101.7143461946228 397.7450980392157 103.44891944167614 409.7058823529412 110.05902521731355 421.66666666666663 115.85583424966947 433.62745098039215 121.0788332831228 445.5882352941177 124.52908721026884 457.54901960784315 130.23740139135384 469.5098039215686 135.84574691474896 481.4705882352941 141.37943312330827 493.4313725490196 121.22916790231105 505.39215686274514 79.82199061366191 517.3529411764705 56.90796208617991 529.3137254901961 42.33064699440911 541.2745098039215 40.65161737222019 553.2352941176471 48.21366362845424 565.1960784313726 54.44630860972302 577.156862745098 60.70343282712304 589.1176470588235 67.33073053313382 601.0784313725491 74.42203052398764 613.0392156862745 59.24104196201381 625 60.71268749854539 625 320 15 320"
      />
      
      <polygon
        fill="#3572A5"
        fillRule="evenodd"
        points="15 287.17970319476944 26.96078431372549 281.3647457632128 38.92156862745098 282.50659155393294 50.88235294117647 283.65105307204846 62.84313725490196 284.76058517614945 74.80392156862746 285.80206622604874 86.76470588235294 286.84594032594197 98.72549019607844 287.82578945289714 110.68627450980392 288.80788667946223 122.64705882352942 245.74318761737072 134.60784313725492 245.95175976144571 146.5686274509804 248.21204239696408 158.52941176470588 249.21618417701333 170.49019607843135 234.09988855652364 182.45098039215688 198.91318856517262 194.41176470588235 182.5647325610679 206.37254901960785 130.80144235822675 218.33333333333331 123.50755876852227 230.29411764705884 89.09449787201876 242.2549019607843 72.36690653693958 254.2156862745098 37.57781811699243 266.17647058823525 46.198592290776844 278.1372549019608 54.02479327494672 290.0980392156863 62.14354831305968 302.05882352941177 69.76435581258599 314.01960784313724 77.40263374838369 325.9803921568627 84.57246540008131 337.94117647058823 90.42866016552622 349.90196078431376 97.4362110456135 361.8627450980392 104.01397798952783 373.8235294117647 110.60683008605562 385.78431372549016 110.1421351968304 397.7450980392157 111.61945461466527 409.7058823529412 117.9801601091196 421.66666666666663 123.5582532078343 433.62745098039215 128.54614042670312 445.5882352941177 131.77570246064715 457.54901960784315 137.26281675377192 469.5098039215686 142.66353055997973 481.4705882352941 147.98910697608423 493.4313725490196 127.6370863532043 505.39215686274514 92.84133161607906 517.3529411764705 69.52989649753425 529.3137254901961 54.57954646798203 541.2745098039215 52.52662633789248 553.2352941176471 59.72619350732356 565.1960784313726 65.64095981375752 577.156862745098 71.55637352704508 589.1176470588235 77.86291837735209 601.0784313725491 84.63272898376127 613.0392156862745 69.14996798176185 625 70.3764786743001 625 320 15 320"
      />
      
      <polygon
        fill="#b07219"
        fillRule="evenodd"
        points="15 289.5663400412804 26.96078431372549 283.6785318962758 38.92156862745098 284.7519949720562 50.88235294117647 285.82791692071015 62.84313725490196 286.87100140068094 74.80392156862746 287.85011011572726 86.76470588235294 288.8314690311136 98.72549019607844 289.7526368061828 110.68627450980392 290.6759182341288 122.64705882352942 251.82937032545917 134.60784313725492 251.86989296546898 146.5686274509804 253.94952808155222 158.52941176470588 254.78410146594086 170.49019607843135 239.49784849641054 182.45098039215688 213.21072649872997 194.41176470588235 198.67205083782954 206.37254901960785 150.73239452893716 218.33333333333331 143.51139418216954 230.29411764705884 108.48772804237743 242.2549019607843 93.30355273634387 254.2156862745098 57.8753852666664 266.17647058823525 65.87658662553429 278.1372549019608 73.1403228270685 290.0980392156863 80.67558540979692 302.05882352941177 87.74868798441202 314.01960784313724 94.83800437668614 325.9803921568627 101.49254218758298 337.94117647058823 106.8322628838039 349.90196078431376 113.33910344679487 361.8627450980392 119.44686892967368 373.8235294117647 125.56864182691339 385.78431372549016 124.66175659820308 397.7450980392157 125.69587223337615 409.7058823529412 131.62690519401673 421.66666666666663 136.82818713326358 433.62745098039215 141.4110172836205 445.5882352941177 144.26036624833736 457.54901960784315 149.36639280456848 469.5098039215686 154.40939172544017 481.4705882352941 159.37643142508963 493.4313725490196 138.6768214364529 505.39215686274514 110.33904109486826 517.3529411764705 86.493498505091 529.3137254901961 71.04179775402284 541.2745098039215 68.4863778666548 553.2352941176471 75.19878442879997 565.1960784313726 80.68632714356914 577.156862745098 86.14248622227285 589.1176470588235 92.0179491397752 601.0784313725491 98.35568410433518 613.0392156862745 87.9830428995385 625 92.10044163192927 625 320 15 320"
      />
      
      <polygon
        fill="#00ADD8"
        fillRule="evenodd"
        points="15 303.385669024557 26.96078431372549 303.89281145924303 38.92156862745098 304.3688510554673 50.88235294117647 304.8459808670085 62.84313725490196 305.30855019921904 74.80392156862746 305.7427485971093 86.76470588235294 306.1779437596517 98.72549019607844 306.58644487984395 110.68627450980392 306.9958864269238 122.64705882352942 267.8754484972888 134.60784313725492 267.4729137691661 146.5686274509804 269.07627515309514 158.52941176470588 269.46378577709726 170.49019607843135 256.2224669799598 182.45098039215688 233.82192630188874 194.41176470588235 218.6541035890246 206.37254901960785 176.94873083095953 218.33333333333331 170.51596137834758 230.29411764705884 135.07604191464563 242.2549019607843 119.10605982979388 254.2156862745098 82.89028659234233 266.17647058823525 90.12792535890401 278.1372549019608 96.69847152018357 290.0980392156863 103.51463060072385 302.05882352941177 109.91274118790795 314.01960784313724 116.32550786947624 325.9803921568627 122.34499875946298 337.94117647058823 127.73909271919115 349.90196078431376 133.6077620025335 361.8627450980392 139.11649853871307 373.8235294117647 144.63786428292323 385.78431372549016 143.16740215773942 397.7450980392157 143.63664417297713 409.7058823529412 149.02004095987678 421.66666666666663 153.74107242103636 433.62745098039215 157.8076474873784 445.5882352941177 160.17240255516668 457.54901960784315 164.79272310063138 469.5098039215686 169.37980500160256 481.4705882352941 173.88988304551413 493.4313725490196 155.23279711880087 505.39215686274514 133.2071890381281 517.3529411764705 108.6636100871759 529.3137254901961 92.55668458330373 541.2745098039215 89.34453441981944 553.2352941176471 95.42025421832625 565.1960784313726 100.34945085482781 577.156862745098 105.20540585108824 589.1176470588235 110.51747648174103 601.0784313725491 116.29052179940464 613.0392156862745 105.38782689608271 625 109.07464850750259 625 320 15 320"
      />
      
      <polygon
        fill="#2b7489"
        fillRule="evenodd"
        points="15 303.385669024557 26.96078431372549 303.89281145924303 38.92156862745098 304.3688510554673 50.88235294117647 304.8459808670085 62.84313725490196 305.30855019921904 74.80392156862746 305.7427485971093 86.76470588235294 306.1779437596517 98.72549019607844 306.58644487984395 110.68627450980392 306.9958864269238 122.64705882352942 274.9487726034526 134.60784313725492 274.3509323517559 146.5686274509804 275.74434612259483 158.52941176470588 275.93478597306733 170.49019607843135 273.27225749165837 182.45098039215688 257.2238646970958 194.41176470588235 243.33317008930788 206.37254901960785 217.70292860178233 218.33333333333331 210.06567875061432 230.29411764705884 173.41853138788449 242.2549019607843 156.3500520163966 254.2156862745098 118.99743234415752 266.17647058823525 125.13292428279377 278.1372549019608 130.7029053799997 290.0980392156863 136.4811006695857 302.05882352941177 141.904897044632 314.01960784313724 147.3411214668773 325.9803921568627 152.44397337416197 337.94117647058823 156.9193148892867 349.90196078431376 161.89726883721903 361.8627450980392 166.56991984521463 373.8235294117647 171.2532909430955 385.78431372549016 168.99622821771064 397.7450980392157 168.67705090965927 409.7058823529412 173.29610465115297 421.66666666666663 177.34683448249885 433.62745098039215 180.69285845256724 445.5882352941177 182.38125414853778 457.54901960784315 186.32366078183435 469.5098039215686 190.2744060408677 481.4705882352941 194.14669220973707 493.4313725490196 174.87127926477626 505.39215686274514 159.066725863915 517.3529411764705 133.73379435619557 529.3137254901961 116.88593494381482 541.2745098039215 112.9311511901121 553.2352941176471 118.28690300412288 565.1960784313726 122.58471244636226 577.156862745098 126.76195143346789 589.1176470588235 131.43692724955494 601.0784313725491 136.57141933662396 613.0392156862745 125.06933390637386 625 128.26925463715114 625 320 15 320"
      />
      
      <polygon
        fill="#dea584"
        fillRule="evenodd"
        points="15 318.6748337334659 26.96078431372549 318.715283675479 38.92156862745098 318.75325290975604 50.88235294117647 318.79130910153185 62.84313725490196 318.82820365316377 74.80392156862746 318.8628355273914 86.76470588235294 318.8975468474158 98.72549019607844 318.93012930018403 110.68627450980392 318.9627864243622 122.64705882352942 303.5212465233359 134.60784313725492 302.1344744974975 146.5686274509804 302.6798088438621 158.52941176470588 303.19169670076013 170.49019607843135 301.0449293134759 182.45098039215688 286.4980092414054 194.41176470588235 274.27288812397774 206.37254901960785 248.7011570652899 218.33333333333331 240.14776604081945 230.29411764705884 224.1325329542215 242.2549019607843 205.998235382455 254.2156862745098 177.6798727903817 266.17647058823525 182.02411027986597 278.1372549019608 185.96793840726667 290.0980392156863 190.05918686813743 302.05882352941177 193.89952538671088 314.01960784313724 197.7486583258167 325.9803921568627 201.36173921442588 337.94117647058823 204.41306256623443 349.90196078431376 207.94129623510722 361.8627450980392 211.25314514427947 373.8235294117647 214.57258532850403 385.78431372549016 213.0208236712876 397.7450980392157 211.35783471566214 409.7058823529412 214.6740792436383 421.66666666666663 217.58229194181789 433.62745098039215 219.70014882541204 445.5882352941177 220.2357077102394 457.54901960784315 223.0226261562425 469.5098039215686 225.88874849675432 481.4705882352941 228.67393734155675 493.4313725490196 210.94557214255346 505.39215686274514 200.73547971161418 517.3529411764705 188.3020501872398 529.3137254901961 177.57136434612354 541.2745098039215 172.06966652929444 553.2352941176471 175.62024432851007 565.1960784313726 178.334989323751 577.156862745098 180.8104929780959 589.1176470588235 183.88809582816125 601.0784313725491 187.42155458597574 613.0392156862745 179.15855959260338 625 181.02038520829882 625 320 15 320"
      />
      
      <polygon
        fill="#f1e05a"
        fillRule="evenodd"
        points="15 318.6748337334659 26.96078431372549 318.715283675479 38.92156862745098 318.75325290975604 50.88235294117647 318.79130910153185 62.84313725490196 318.82820365316377 74.80392156862746 318.8628355273914 86.76470588235294 318.8975468474158 98.72549019607844 318.93012930018403 110.68627450980392 318.9627864243622 122.64705882352942 315.0440063217098 134.60784313725492 315.1808493512898 146.5686274509804 315.3279514559633 158.52941176470588 315.46603156099906 170.49019607843135 312.9445944858844 182.45098039215688 298.045987987576 194.41176470588235 294.77163902228517 206.37254901960785 288.5476318616608 218.33333333333331 281.15588480056414 230.29411764705884 276.1843597236384 242.2549019607843 265.12207107361155 254.2156862745098 246.7129483376469 266.17647058823525 248.94998792127095 278.1372549019608 250.98083383301946 290.0980392156863 253.08761159283904 302.05882352941177 255.0651753476161 314.01960784313724 257.0472684040282 325.9803921568627 258.90780557186577 337.94117647058823 260.7726046756761 349.90196078431376 262.5804930885277 361.8627450980392 264.2775043246709 373.8235294117647 265.9784082775391 385.78431372549016 262.9073730739907 397.7450980392157 259.75632869602236 409.7058823529412 261.59523152569176 421.66666666666663 263.2078793466302 433.62745098039215 264.08716225364054 445.5882352941177 263.3457827356949 457.54901960784315 264.8167935970712 469.5098039215686 266.44771204151306 481.4705882352941 267.9948641873958 493.4313725490196 249.2411045664872 505.39215686274514 244.53085367077932 517.3529411764705 230.7605862865205 529.3137254901961 221.2832883894299 541.2745098039215 214.4473022352811 553.2352941176471 216.7043267655713 565.1960784313726 218.2846679023246 577.156862745098 219.5407390517461 589.1176470588235 221.47368457017757 601.0784313725491 223.8598658128684 613.0392156862745 218.80655294328403 625 219.7903694583742 625 320 15 320"
      />
      

      
        <g id="labels">
        
          
          <text x="15" y="330">
            Apr 2018
          </text>
          
        
          
        
          
        
          
        
          
        
          
        
          
        
          
          <text x="97.11538461538461" y="330">
            Nov 2018
          </text>
          
        
          
        
          
        
          
        
          
        
          
        
          
        
          
          <text x="179.23076923076923" y="330">
            Jun 2019
          </text>
          
        
          
        
          
        
          
        
          
        
          
        
          
        
          
          <text x="261.3461538461538" y="330">
            Jan 2020
          </text>
          
        
          
        
          
        
          
        
          
        
          
        
          
        
          
          <text x="343.46153846153845" y="330">
            Aug 2020
          </text>
          
        
          
        
          
        
          
        
          
        
          
        
          
        
          
          <text x="425.5769230769231" y="330">
            Mar 2021
          </text>
          
        
          
        
          
        
          
        
          
        
          
        
          
        
          
          <text x="507.6923076923077" y="330">
            Oct 2021
          </text>
          
        
          
        
          
        
          
        
          
        
          
        
          
        
          
          <text x="589.8076923076923" y="330">
            May 2022
          </text>
          
        
          
        
          
        
        </g>
      

      
        <text text-anchor="middle" y="370" x="320" id="legend">
          
          <tspan xml:space="preserve" fill="#f1e05a">   ◉</tspan> JavaScript
          
          <tspan xml:space="preserve" fill="#dea584">   ◉</tspan> Rust
          
          <tspan xml:space="preserve" fill="#2b7489">   ◉</tspan> TypeScript
          
          <tspan xml:space="preserve" fill="#00ADD8">   ◉</tspan> Go
          
          <tspan xml:space="preserve" fill="#b07219">   ◉</tspan> Java
          
          <tspan xml:space="preserve" fill="#3572A5">   ◉</tspan> Python
          
          <tspan xml:space="preserve" fill="#f34b7d">   ◉</tspan> C++
          
          <tspan xml:space="preserve" fill="#555555">   ◉</tspan> C
          
        </text>
      
        <text text-anchor="middle" y="400" x="320" id="legend">
          
          <tspan xml:space="preserve" fill="#178600">   ◉</tspan> C#
          
        </text>
      

    </svg>