<svg
      xmlns="http://www.w3.org/2000/svg"
      viewBox="0 0 640 430"
      style="background-color: #fffc"
    >
      <style>
        text {
          font-size: 12px;
          font-family: Open Sans, Helvetica Neue, Helvetica, Arial, sans-serif;
        }
        #labels text {
          dominant-baseline: hanging;
          font-size: 10px;
          fill: rgba(0,0,0,0.5);
        }
        #legend {
          font-weight: 600;
        }
        #legend tspan {
          font-size: 15px;
        }
        #branding-text {
          font-size: 9px;
          dominant-baseline: hanging;
          opacity: 0.5;
        }
        #branding-logo {
          opacity: 0.5;
        }
      </style>

      
      
      <polygon
        fill="#178600"
        fillRule="evenodd"
        points="15 267.461708011782 26.730769230769234 248.64036871713125 38.46153846153847 250.74936379395928 50.19230769230769 252.86320073523922 61.92307692307693 252.82191209579568 73.65384615384616 254.80732427992223 85.38461538461539 256.7972953665301 97.11538461538461 258.66521702970783 108.84615384615385 260.5374234182673 120.57692307692308 214.21230362666736 132.30769230769232 215.2914912998865 144.03846153846155 218.4876587338439 155.76923076923077 220.3702904726702 167.5 206.1344962635328 179.23076923076923 171.77431658263447 190.96153846153845 156.25425099368914 202.6923076923077 105.29407674755575 214.42307692307693 98.75402681876503 226.15384615384616 65.09658863481798 237.88461538461536 49.07823395430353 249.61538461538464 15 261.3461538461538 24.309970643544773 273.0769230769231 32.76185965213983 284.8076923076923 41.52960659969773 296.53846153846155 49.759644638419104 308.2692307692308 58.00860452554565 320 65.75158512134956 331.7307692307693 72.18227021664845 343.46153846153845 79.7467836101163 355.1923076923077 86.84735637598831 366.9230769230769 93.96420018724612 378.65384615384613 93.99136498203953 390.3846153846154 95.9617066561693 402.1153846153846 102.80034474054855 413.84615384615387 108.79757818553 425.5769230769231 114.23600929133386 437.3076923076923 117.88851691159894 449.03846153846155 123.7995313030211 460.7692307692307 129.5981158958216 472.5 135.3225063321096 484.2307692307693 115.35717960881186 495.96153846153845 60.52057093296662 507.6923076923077 38.19568372964693 519.4230769230769 24.171388856643375 531.1538461538462 23.04668727562489 542.8846153846154 31.14612993013418 554.6153846153846 37.850001598975894 566.3461538461538 44.61376858250168 578.0769230769231 51.71654501418658 589.8076923076923 59.284510289062666 601.5384615384615 44.55078805928929 613.2692307692307 47.73013984951223 625 52.73796643078896 625 320 15 320"
      />
      
      <polygon
        fill="#555555"
        fillRule="evenodd"
        points="15 273.44751100265967 26.730769230769234 254.44345848465076 38.46153846153847 256.3809461414269 50.19230769230769 258.3228822532109 61.92307692307693 258.1149401532797 73.65384615384616 259.9439198834451 85.38461538461539 261.7770992912548 97.11538461538461 263.4978452719091 108.84615384615385 265.2225383969934 120.57692307692308 218.7544085432243 132.30769230769232 219.70818091421992 144.03846153846155 222.76953157877716 155.76923076923077 224.52561495798602 167.5 210.1629815972667 179.23076923076923 175.6837420864205 190.96153846153845 160.04434357262204 202.6923076923077 108.96847894020951 214.42307692307693 102.31983419097455 226.15384615384616 68.55355189995177 237.88461538461536 52.433028277554456 249.61538461538464 18.252390990822278 261.3461538461538 27.463084506531743 273.0769230769231 35.8248462761311 284.8076923076923 44.49909736858484 296.53846153846155 52.641373908628964 308.2692307692308 60.802370499677465 320 68.46278285609927 331.7307692307693 74.81071000972759 343.46153846153845 82.2949920668377 355.1923076923077 89.32025378805884 366.9230769230769 96.36161378553442 378.65384615384613 96.31792432994655 390.3846153846154 98.21724910626304 402.1153846153846 104.98703792793887 413.84615384615387 110.92389327227772 425.5769230769231 116.29741990444404 437.3076923076923 119.8890036162069 449.03846153846155 125.73895430509128 460.7692307692307 131.48022022409063 472.5 137.14716053180373 484.2307692307693 117.12613728024738 495.96153846153845 69.03872441509606 507.6923076923077 46.453824761929695 519.4230769230769 32.18546452642971 531.1538461538462 30.816138024822067 542.8846153846154 38.678422899160466 554.6153846153846 45.174315291515086 566.3461538461538 51.71451239872573 578.0769230769231 58.607429718829394 589.8076923076923 65.9650546239694 601.5384615384615 51.033892416665935 613.2692307692307 54.01535161752264 625 58.88285643449768 625 320 15 320"
      />
      
      <polygon
        fill="#f34b7d"
        fillRule="evenodd"
        points="15 280.3108532267111 26.730769230769234 267.90365068560794 38.46153846153847 269.44333009696373 50.19230769230769 270.98654510063693 61.92307692307693 270.39205084879575 73.65384615384616 271.85818739361025 85.38461538461539 273.3276915996558 97.11538461538461 274.70706576573224 108.84615384615385 276.08960407685976 120.57692307692308 229.2897625837768 132.30769230769232 229.95263540747527 144.03846153846155 232.7012815834952 155.76923076923077 234.16383695651626 167.5 219.50700271941122 179.23076923076923 184.7516056934764 190.96153846153845 168.83541626265267 202.6923076923077 117.49120851261145 214.42307692307693 110.59067891074127 226.15384615384616 76.57193406632203 237.88461538461536 60.21443090751484 249.61538461538464 25.796271714071395 261.3461538461538 34.77669211488046 273.0769230769231 42.92940514542647 284.8076923076923 51.386793419659455 296.53846153846155 59.325508263858694 308.2692307692308 67.28247526918955 320 74.75137138850431 331.7307692307693 80.90734306147152 343.46153846153845 88.20552940156506 355.1923076923077 95.05610809915572 366.9230769230769 101.92238370624605 378.65384615384613 101.71434968346102 390.3846153846154 103.44895144288051 402.1153846153846 110.0590452495247 413.84615384615387 115.85585447080663 425.5769230769231 121.07883527653752 437.3076923076923 124.52910739819848 449.03846153846155 130.23742113845861 460.7692307692307 135.84573758243027 472.5 141.37942272706553 484.2307692307693 121.22921189871693 495.96153846153845 79.82201234434464 507.6923076923077 56.90795821325065 519.4230769230769 42.33063087893163 531.1538461538462 40.65162812296995 542.8846153846154 48.21369098301585 554.6153846153846 54.44629919763128 566.3461538461538 60.70347513178314 578.0769230769231 67.33072776506029 589.8076923076923 74.42207877166189 601.5384615384615 59.24097361384139 613.2692307692307 61.97191630122137 625 66.66178593227352 625 320 15 320"
      />
      
      <polygon
        fill="#3572A5"
        fillRule="evenodd"
        points="15 287.1797063659033 26.730769230769234 281.3647455638979 38.46153846153847 282.50659062985403 50.19230769230769 283.6510565156825 61.92307692307693 284.76058789751494 73.65384615384616 285.8020695035707 85.38461538461539 286.84594288626585 97.11538461538461 287.8257932107218 108.84615384615385 288.8078890882747 120.57692307692308 245.74319908112042 132.30769230769232 245.95176547982467 144.03846153846155 248.21204794079262 155.76923076923077 249.21619155305154 167.5 234.09989073406987 179.23076923076923 198.91321001121986 190.96153846153845 182.5647450842677 202.6923076923077 130.8014569690946 214.42307692307693 123.50755102560564 226.15384615384616 89.09452588906515 237.88461538461536 72.36692502383235 249.61538461538464 37.57781573683445 261.3461538461538 46.19861152534929 273.0769230769231 54.0248462807229 284.8076923076923 62.143553584584936 296.53846153846155 69.76435731266966 308.2692307692308 77.40268367563533 320 84.57248358098408 331.7307692307693 90.42867152833551 343.46153846153845 97.43622441360375 355.1923076923077 104.01399466905895 366.9230769230769 110.60683607109559 378.65384615384613 110.14213803483216 390.3846153846154 111.61948598489971 402.1153846153846 117.9801795296207 413.84615384615387 123.55827283415181 425.5769230769231 128.54614184345465 437.3076923076923 131.7757220889566 449.03846153846155 137.26283659492353 460.7692307692307 142.66352070115732 472.5 147.98909670599394 484.2307692307693 127.63712921817353 495.96153846153845 92.84135234134257 507.6923076923077 69.52989037670577 519.4230769230769 54.57952940658265 531.1538461538462 52.52663489842445 542.8846153846154 59.72621997282954 554.6153846153846 65.64094953715829 566.3461538461538 71.5564130838317 578.0769230769231 77.86291479592987 589.8076923076923 84.63277644291381 601.5384615384615 69.14990014154182 613.2692307692307 71.57837780787199 625 76.05377690661058 625 320 15 320"
      />
      
      <polygon
        fill="#b07219"
        fillRule="evenodd"
        points="15 289.56634302810613 26.730769230769234 283.67853151827865 38.46153846153847 284.75199387457593 50.19230769230769 285.82792019623577 61.92307692307693 286.8710039590694 73.65384615384616 287.8501132350889 85.38461538461539 288.8314714381049 97.11538461538461 289.7526404152066 108.84615384615385 290.67592049868244 120.57692307692308 251.8293813192031 132.30769230769232 251.86989759023493 144.03846153846155 253.94953318230313 155.76923076923077 254.7841084119964 167.5 239.4978502570991 179.23076923076923 213.21074493089458 190.96153846153845 198.6720608439712 202.6923076923077 150.73240505429678 214.42307692307693 143.51138616762543 226.15384615384616 108.48775328861092 237.88461538461536 93.3035670600637 249.61538461538464 57.87538131902784 261.3461538461538 65.87660434047265 273.0769230769231 73.14037435664696 284.8076923076923 80.67558861359987 296.53846153846155 87.74868936882453 308.2692307692308 94.83805550382985 320 101.49255842524718 331.7307692307693 106.83227297984416 343.46153846153845 113.33911685985316 355.1923076923077 119.44688441739908 366.9230769230769 125.56864665652668 378.65384615384613 124.66175704175663 390.3846153846154 125.69590506289796 402.1153846153846 131.6269229240624 413.84615384615387 136.82820700797947 425.5769230769231 141.41101898005104 437.3076923076923 144.26038491251802 449.03846153846155 149.3664129841906 460.7692307692307 154.4093809595431 472.5 159.37642218536726 484.2307692307693 138.67686217570835 495.96153846153845 110.33906174204 507.6923076923077 86.4934898010778 519.4230769230769 71.04177942132534 531.1538461538462 68.48638519469415 542.8846153846154 75.19880969943432 554.6153846153846 80.68631443192098 566.3461538461538 86.14252656240077 578.0769230769231 92.01794446523002 589.8076923076923 98.35573177690156 601.5384615384615 87.98297360493336 613.2692307692307 93.17345993643994 625 97.16673576151788 625 320 15 320"
      />
      
      <polygon
        fill="#00ADD8"
        fillRule="evenodd"
        points="15 303.3856696710147 26.730769230769234 303.8928127031214 38.46153846153847 304.3688509894138 50.19230769230769 304.84598394703295 61.92307692307693 305.30855133376696 73.65384615384616 305.7427484249565 85.38461538461539 306.1779448270607 97.11538461538461 306.5864471888761 108.84615384615385 306.9958874311671 120.57692307692308 267.8754576152887 132.30769230769232 267.4729159158183 144.03846153846155 269.0762790856823 155.76923076923077 269.4637903163437 167.5 256.22246744908887 179.23076923076923 233.82194059601298 190.96153846153845 218.65411332522098 202.6923076923077 176.9487425146856 214.42307692307693 170.5159557344685 226.15384615384616 135.07606001491644 237.88461538461536 119.10607470725327 249.61538461538464 82.89027880317221 261.3461538461538 90.12793929127702 273.0769230769231 96.69851868414344 284.8076923076923 103.51463458711984 296.53846153846155 109.91273831436092 308.2692307692308 116.32555733724644 320 122.34501338679522 331.7307692307693 127.73910120070047 343.46153846153845 133.60777385034368 355.1923076923077 139.11651250745032 366.9230769230769 144.63786763991487 378.65384615384613 143.1674011721936 390.3846153846154 143.63667307068252 402.1153846153846 149.0200592564913 413.84615384615387 153.74109226282363 425.5769230769231 157.80764982733294 437.3076923076923 160.17241680761524 449.03846153846155 164.7927395426149 460.7692307692307 169.3797943527843 472.5 173.88987077523515 484.2307692307693 155.2328340331808 495.96153846153845 133.20720919247572 507.6923076923077 108.66360158082935 519.4230769230769 92.55666076960892 531.1538461538462 89.34454204684118 542.8846153846154 95.42027729077179 554.6153846153846 100.34944299054254 566.3461538461538 105.20544599225099 578.0769230769231 110.51746974198406 589.8076923076923 116.29056617719775 601.5384615384615 105.38775625739228 613.2692307692307 110.04697178105303 625 113.66353323666121 625 320 15 320"
      />
      
      <polygon
        fill="#2b7489"
        fillRule="evenodd"
        points="15 303.3856696710147 26.730769230769234 303.8928127031214 38.46153846153847 304.3688509894138 50.19230769230769 304.84598394703295 61.92307692307693 305.30855133376696 73.65384615384616 305.7427484249565 85.38461538461539 306.1779448270607 97.11538461538461 306.5864471888761 108.84615384615385 306.9958874311671 120.57692307692308 274.9487811752147 132.30769230769232 274.3509333306679 144.03846153846155 275.74434954023985 155.76923076923077 275.9347893760056 167.5 273.2722566441165 179.23076923076923 257.2238759108345 190.96153846153845 243.33318046600158 202.6923076923077 217.7029371382635 214.42307692307693 210.0656796012793 226.15384615384616 173.4185465271547 237.88461538461536 156.35006783719606 249.61538461538464 118.99742622270534 261.3461538461538 125.13293551190401 273.0769230769231 130.70294546187145 284.8076923076923 136.48110465648386 296.53846153846155 141.9048942468286 308.2692307692308 147.34117235897443 320 152.44398313076 331.7307692307693 156.91932111735198 343.46153846153845 161.89727149793723 355.1923076923077 166.56992851093574 366.9230769230769 171.25328969837008 378.65384615384613 168.99622078143844 390.3846153846154 168.67707787361806 402.1153846153846 173.29612234621703 413.84615384615387 177.34685568425425 425.5769230769231 180.69286157154968 437.3076923076923 182.3812666859067 449.03846153846155 186.32367556109017 460.7692307692307 190.27439632480232 472.5 194.14667964829476 484.2307692307693 174.87131338940375 495.96153846153845 159.06674720418295 507.6923076923077 133.73379282599086 519.4230769230769 116.88591243421672 531.1538461538462 112.93115444931681 542.8846153846154 118.28692112776602 554.6153846153846 122.58470286495785 566.3461538461538 126.76199181967999 578.0769230769231 131.43692144063186 589.8076923076923 136.57146087505404 601.5384615384615 125.06926174777809 613.2692307692307 129.12770985774446 625 132.31828272931037 625 320 15 320"
      />
      
      <polygon
        fill="#dea584"
        fillRule="evenodd"
        points="15 318.67483383580196 26.730769230769234 318.7152837746913 38.46153846153847 318.7532530060362 50.19230769230769 318.79130919487307 61.92307692307693 318.8282037436558 73.65384615384616 318.862835615209 85.38461538461539 318.8975469325528 97.11538461538461 318.93012938280486 108.84615384615385 318.96278650446106 120.57692307692308 303.5212477959084 132.30769230769232 302.1344733308241 144.03846153846155 302.6798101814147 155.76923076923077 303.19169799878216 167.5 301.04492632118814 179.23076923076923 286.4980137383528 190.96153846153845 274.27289420159565 202.6923076923077 248.70116002500706 214.42307692307693 240.14776456839377 226.15384615384616 224.13254417710044 237.88461538461536 205.99824418624684 249.61538461538464 177.6798748688724 261.3461538461538 182.0241234814002 273.0769230769231 185.9679742212936 284.8076923076923 190.0592058150111 296.53846153846155 193.89952239312896 308.2692307692308 197.74869641300126 320 201.36174201042274 331.7307692307693 204.4130651265927 343.46153846153845 207.94130488884605 355.1923076923077 211.2531503593363 366.9230769230769 214.57257755551973 378.65384615384613 213.02081920106247 390.3846153846154 211.35785201774672 402.1153846153846 214.67408737743762 413.84615384615387 217.58231003638815 425.5769230769231 219.7001438393757 437.3076923076923 220.2357128682023 449.03846153846155 223.0226400111735 460.7692307692307 225.88874112304848 472.5 228.67391893082197 484.2307692307693 210.9455926593993 495.96153846153845 200.73550801936838 507.6923076923077 188.30204444299883 519.4230769230769 177.57133715009022 531.1538461538462 172.06968431907023 542.8846153846154 175.6202618440923 554.6153846153846 178.3349779833682 566.3461538461538 180.81052919040675 578.0769230769231 183.88808278576983 589.8076923076923 187.4215603682586 601.5384615384615 179.1584959886617 613.2692307692307 181.56589123756885 625 183.58575908655905 625 320 15 320"
      />
      
      <polygon
        fill="#f1e05a"
        fillRule="evenodd"
        points="15 318.67483383580196 26.730769230769234 318.7152837746913 38.46153846153847 318.7532530060362 50.19230769230769 318.79130919487307 61.92307692307693 318.8282037436558 73.65384615384616 318.862835615209 85.38461538461539 318.8975469325528 97.11538461538461 318.93012938280486 108.84615384615385 318.96278650446106 120.57692307692308 315.04400670443664 132.30769230769232 315.18084972344894 144.03846153846155 315.3279518167625 155.76923076923077 315.466031911135 167.5 312.94459439415357 179.23076923076923 298.04599159273016 190.96153846153845 294.771643516886 202.6923076923077 288.54763174423204 214.42307692307693 281.1558801612845 226.15384615384616 276.1843631073034 237.88461538461536 265.12206257986503 249.61538461538464 246.71294508505497 261.3461538461538 248.94999595445103 273.0769230769231 250.98087099227095 284.8076923076923 253.08761294064232 296.53846153846155 255.06516763051388 308.2692307692308 257.04727644848026 320 258.90781028971344 331.7307692307693 260.77259651781736 343.46153846153845 262.58050388860056 355.1923076923077 264.27750544491903 366.9230769230769 265.9784092664348 378.65384615384613 262.9073647512744 390.3846153846154 259.7563397141914 402.1153846153846 261.59524240185146 413.84615384615387 263.2078900982531 425.5769230769231 264.08715383981496 437.3076923076923 263.34578711081963 449.03846153846155 264.816797858597 460.7692307692307 266.4477059917333 472.5 267.99484910594913 484.2307692307693 249.24112912839215 495.96153846153845 244.53089132813088 507.6923076923077 230.76058681218993 519.4230769230769 221.28325781774112 531.1538461538462 214.4473103865933 542.8846153846154 216.7043411084333 554.6153846153846 218.28464392805301 566.3461538461538 219.54076590726322 578.0769230769231 221.47367308133124 589.8076923076923 223.85987323729495 601.5384615384615 218.8064843677696 613.2692307692307 220.10586865412606 625 221.26531249051254 625 320 15 320"
      />
      

      
        <g id="labels">
        
          
          <text x="15" y="330">
            Apr 2018
          </text>
          
        
          
        
          
        
          
        
          
        
          
        
          
        
          
          <text x="95.56603773584905" y="330">
            Nov 2018
          </text>
          
        
          
        
          
        
          
        
          
        
          
        
          
        
          
          <text x="176.1320754716981" y="330">
            Jun 2019
          </text>
          
        
          
        
          
        
          
        
          
        
          
        
          
        
          
          <text x="256.6981132075472" y="330">
            Jan 2020
          </text>
          
        
          
        
          
        
          
        
          
        
          
        
          
        
          
          <text x="337.2641509433962" y="330">
            Aug 2020
          </text>
          
        
          
        
          
        
          
        
          
        
          
        
          
        
          
          <text x="417.8301886792453" y="330">
            Mar 2021
          </text>
          
        
          
        
          
        
          
        
          
        
          
        
          
        
          
          <text x="498.39622641509436" y="330">
            Oct 2021
          </text>
          
        
          
        
          
        
          
        
          
        
          
        
          
        
          
          <text x="578.9622641509434" y="330">
            May 2022
          </text>
          
        
          
        
          
        
          
        
        </g>
      

      
        <text text-anchor="middle" y="370" x="320" id="legend">
          
          <tspan xml:space="preserve" fill="#f1e05a">   ◉</tspan> JavaScript
          
          <tspan xml:space="preserve" fill="#dea584">   ◉</tspan> Rust
          
          <tspan xml:space="preserve" fill="#2b7489">   ◉</tspan> TypeScript
          
          <tspan xml:space="preserve" fill="#00ADD8">   ◉</tspan> Go
          
          <tspan xml:space="preserve" fill="#b07219">   ◉</tspan> Java
          
          <tspan xml:space="preserve" fill="#3572A5">   ◉</tspan> Python
          
          <tspan xml:space="preserve" fill="#f34b7d">   ◉</tspan> C++
          
          <tspan xml:space="preserve" fill="#555555">   ◉</tspan> C
          
        </text>
      
        <text text-anchor="middle" y="400" x="320" id="legend">
          
          <tspan xml:space="preserve" fill="#178600">   ◉</tspan> C#
          
        </text>
      

    </svg>