<svg
      xmlns="http://www.w3.org/2000/svg"
      viewBox="0 0 640 430"
      style="background-color: #fffc"
    >
      <style>
        text {
          font-size: 12px;
          font-family: Open Sans, Helvetica Neue, Helvetica, Arial, sans-serif;
        }
        #labels text {
          dominant-baseline: hanging;
          font-size: 10px;
          fill: rgba(0,0,0,0.5);
        }
        #legend {
          font-weight: 600;
        }
        #legend tspan {
          font-size: 15px;
        }
        #branding-text {
          font-size: 9px;
          dominant-baseline: hanging;
          opacity: 0.5;
        }
        #branding-logo {
          opacity: 0.5;
        }
      </style>

      
      
      <polygon
        fill="#178600"
        fillRule="evenodd"
        points="15 267.46170470075043 24.104477611940297 248.6403652650738 33.208955223880594 250.7493611369522 42.31343283582089 252.86319632730664 51.417910447761194 252.82190322866643 60.52238805970149 254.80731938148207 69.62686567164178 256.7972874346876 78.73134328358208 258.6652111479718 87.83582089552239 260.5374195869596 96.94029850746269 214.21229313166333 106.04477611940298 215.29148215914023 115.14925373134328 218.4876476688622 124.25373134328358 220.37027407451524 133.3582089552239 206.13448961767375 142.46268656716416 171.7743022623447 151.56716417910448 156.25424823895256 160.67164179104478 105.29404915647712 169.77611940298507 98.75402038016776 178.88059701492537 65.09657521117748 187.98507462686567 49.078213597813544 197.08955223880596 15 206.1940298507463 24.309963704057395 215.29850746268656 32.76180305750188 224.40298507462686 41.52961686868025 233.50746268656715 49.75962815263824 242.61194029850748 58.00858484006477 251.71641791044777 65.75159275422607 260.82089552238807 72.18229042782639 269.9253731343283 79.74676014702464 279.02985074626866 86.84734904274899 288.13432835820896 93.96416983510977 297.23880597014926 93.9913422709632 306.34328358208955 95.96167327119684 315.44776119402985 102.80032396453024 324.55223880597015 108.79755722354616 333.65671641791045 114.23599955992574 342.76119402985074 117.88849052147398 351.8656716417911 123.79949809996933 360.97014925373134 129.59810604552 370.07462686567163 135.32251664605877 379.17910447761193 115.35715213726871 388.2835820895522 60.52055716549387 397.3880597014926 38.195647914012056 406.4925373134328 24.171403550630203 415.5970149253731 23.046722255821123 424.70149253731347 31.146062710442664 433.8059701492537 37.850026869518445 442.91044776119406 44.61372370033462 452.0149253731343 51.71652549251854 461.1194029850746 59.28446650922416 470.22388059701495 44.55077945772979 479.3283582089552 47.73007355761581 488.43283582089555 54.562091227175756 497.5373134328358 59.91492619795645 506.64179104477614 66.1744741993368 515.7462686567164 72.09641894314896 524.8507462686566 77.46286600903287 533.955223880597 45.979959048513706 543.0597014925373 52.57360590753973 552.1641791044776 59.3560527102573 561.2686567164179 66.33334656769011 570.3731343283582 72.94096722936447 579.4776119402985 77.38963678235021 588.5820895522388 84.3500949423605 597.6865671641791 91.40580994933293 606.7910447761194 98.16182765639505 615.8955223880597 104.8296592560516 625 320 625 320 15 320"
      />
      
      <polygon
        fill="#555555"
        fillRule="evenodd"
        points="15 273.44750814138877 24.104477611940297 254.44345546862525 33.208955223880594 256.380943907565 42.31343283582089 258.32287825550725 51.417910447761194 258.1149316838574 60.52238805970149 259.94391537095794 69.62686567164178 261.7770917335843 78.73134328358208 263.4978397532866 87.83582089552239 265.2225349177154 96.94029850746269 218.75439838950447 106.04477611940298 219.70817210533437 115.14925373134328 222.76952083552635 124.25373134328358 224.52559887205337 133.3582089552239 210.16297525409956 142.46268656716416 175.68372805987673 151.56716417910448 160.04434110266496 160.67164179104478 108.96845162521774 169.77611940298507 102.31982802030453 178.88059701492537 68.55353873606023 187.98507462686567 52.43300817313661 197.08955223880596 18.252391235200093 206.1940298507463 27.463077803962733 215.29850746268656 35.82478991163947 224.40298507462686 44.49910786068864 233.50746268656715 52.641357639375144 242.61194029850748 60.80235102411427 251.71641791044777 68.46279069268948 260.82089552238807 74.81073041840091 269.9253731343283 82.29496879521304 279.02985074626866 89.32024664062774 288.13432835820896 96.36158361353472 297.23880597014926 96.31790179368295 306.34328358208955 98.21721589076728 315.44776119402985 104.98701731622407 324.55223880597015 110.92387247006073 333.65671641791045 116.29741032792603 342.76119402985074 119.88897737639431 351.8656716417911 125.73892124776367 360.97014925373134 131.4802105152064 370.07462686567163 137.14717098285357 379.17910447761193 117.12610994162 388.2835820895522 69.03871128765937 397.3880597014926 46.453789566794114 406.4925373134328 32.185479822577236 415.5970149253731 30.816173588798392 424.70149253731347 38.67835624542954 433.8059701492537 45.174341112391176 442.91044776119406 51.71446805009356 452.0149253731343 58.60741071492788 461.1194029850746 65.96501134609287 470.22388059701495 51.03388430223316 479.3283582089552 54.01528579788379 488.43283582089555 60.65545078082232 497.5373134328358 65.8281997004344 506.64179104477614 71.9072485070404 515.7462686567164 77.65976426764087 524.8507462686566 82.85639339693392 533.955223880597 51.20885221073564 543.0597014925373 57.65812065758564 552.1641791044776 64.28536551321668 561.2686567164179 71.11697640502004 570.3731343283582 77.57857932106148 579.4776119402985 81.89018641393477 588.5820895522388 88.71326802283858 597.6865671641791 95.6357997908153 606.7910447761194 102.26680240716257 615.8955223880597 108.80933181631036 625 320 625 320 15 320"
      />
      
      <polygon
        fill="#f34b7d"
        fillRule="evenodd"
        points="15 280.31085088113724 24.104477611940297 267.90364995412267 33.208955223880594 269.443327571412 42.31343283582089 270.98654205445416 51.417910447761194 270.39204330184964 60.52238805970149 271.8581850495058 69.62686567164178 273.32768490987246 78.73134328358208 274.7070610893469 87.83582089552239 276.0895995043554 96.94029850746269 229.28975322166127 106.04477611940298 229.95262864150624 115.14925373134328 232.70127158649512 124.25373134328358 234.16382159477928 133.3582089552239 219.50699707833408 142.46268656716416 184.75159171168787 151.56716417910448 168.8354138166534 160.67164179104478 117.49118183799959 169.77611940298507 110.59067336152509 178.88059701492537 76.57192150491483 187.98507462686567 60.214412024360115 197.08955223880596 25.79627252528047 206.1940298507463 34.776685325255585 215.29850746268656 42.92934931475645 224.40298507462686 51.38680506587508 233.50746268656715 59.32549249683666 242.61194029850748 67.28245628052775 251.71641791044777 74.75137969760576 260.82089552238807 80.90736392823302 269.9253731343283 88.20550625575328 279.02985074626866 95.05610138270464 288.13432835820896 101.92235395207086 297.23880597014926 101.71432691608854 306.34328358208955 103.44891862048388 315.44776119402985 110.05902501890981 324.55223880597015 115.85583403916681 333.65671641791045 121.07882605928492 342.76119402985074 124.52908125239955 351.8656716417911 130.2373884191363 360.97014925373134 135.8457282015618 370.07462686567163 141.37943349611857 379.17910447761193 121.22918486838591 388.2835820895522 79.82199875397168 397.3880597014926 56.9079238036166 406.4925373134328 42.3306469373656 415.5970149253731 40.65166506254923 424.70149253731347 48.21362536403734 433.8059701492537 54.446325078599784 442.91044776119406 60.70343145856265 452.0149253731343 67.33071005319394 461.1194029850746 74.4220354926434 470.22388059701495 59.24096675265628 479.3283582089552 61.97185171600688 488.43283582089555 68.36914746115389 497.5373134328358 73.31392195666882 506.64179104477614 79.16447306638264 515.7462686567164 84.70250491027161 524.8507462686566 89.68415867930364 533.955223880597 57.82820405008346 543.0597014925373 64.09470196720474 552.1641791044776 70.52547380294683 561.2686567164179 77.17266095401357 570.3731343283582 83.44941807352384 579.4776119402985 87.58751567392059 588.5820895522388 94.23668928819498 597.6865671641791 100.99062217968103 606.7910447761194 107.46336596821001 615.8955223880597 113.8472730595567 625 320 625 320 15 320"
      />
      
      <polygon
        fill="#3572A5"
        fillRule="evenodd"
        points="15 287.17970453644057 24.104477611940297 281.36474584385087 33.208955223880594 282.50658781267833 42.31343283582089 283.6510531479147 51.417910447761194 284.76058015702057 60.52238805970149 285.8020682071802 69.62686567164178 286.84593721221535 78.73134328358208 287.8257901566349 87.83582089552239 288.8078867445653 96.94029850746269 245.74319159186632 106.04477611940298 245.95175991599652 115.14925373134328 248.2120391092388 124.25373134328358 249.21617732231675 133.3582089552239 234.0998861894716 142.46268656716416 198.9131970935044 151.56716417910448 182.56474366986123 160.67164179104478 130.80143129458673 169.77611940298507 123.50754517376615 178.88059701492537 89.09451426857905 187.98507462686567 72.36690514403566 197.08955223880596 37.57781743328388 206.1940298507463 46.1986068671132 215.29850746268656 54.02479255691071 224.40298507462686 62.14356476587102 233.50746268656715 69.76434233000072 242.61194029850748 77.40266608396959 251.71641791044777 84.57249262802324 260.82089552238807 90.42869247392463 269.9253731343283 97.43620259795185 279.02985074626866 104.01398862568459 288.13432835820896 110.60680696945181 297.23880597014926 110.1421146275361 306.34328358208955 111.61945377641976 315.44776119402985 117.98015925759825 324.55223880597015 123.55825361784039 333.65671641791045 128.54613318727976 342.76119402985074 131.7756958510681 351.8656716417911 137.2628044034761 360.97014925373134 142.6635111959778 370.07462686567163 147.98910733509908 379.17910447761193 127.63710266931989 388.2835820895522 92.84133972921532 397.3880597014926 69.52985691545706 406.4925373134328 54.57954638537302 415.5970149253731 52.526672730266625 424.70149253731347 59.72615521887815 433.8059701492537 65.64097625926922 442.91044776119406 71.55637213583285 452.0149253731343 77.86289787542981 461.1194029850746 84.63273393110563 470.22388059701495 69.14989338830767 479.3283582089552 71.57831394446674 488.43283582089555 77.68237830993837 497.5373134328358 82.35190494944933 506.64179104477614 87.92657766580712 515.7462686567164 93.20564963345919 524.8507462686566 97.92774991082698 533.955223880597 65.8201647257165 543.0597014925373 71.8659911208135 552.1641791044776 78.05954850250828 561.2686567164179 84.48407034761658 570.3731343283582 90.53765034690184 579.4776119402985 94.4662589940734 588.5820895522388 100.9054630335165 597.6865671641791 107.45583580532477 606.7910447761194 113.73750290423604 615.8955223880597 119.9298959721327 625 320 625 320 15 320"
      />
      
      <polygon
        fill="#b07219"
        fillRule="evenodd"
        points="15 289.5663413779702 24.104477611940297 283.67853197208467 33.208955223880594 284.7519912261151 42.31343283582089 285.8279169920329 51.417910447761194 286.87099637714726 60.52238805970149 287.850112092584 69.62686567164178 288.8314659132429 78.73134328358208 289.7526375058989 87.83582089552239 290.67591829533296 96.94029850746269 251.82937428725188 106.04477611940298 251.86989247108275 115.14925373134328 253.94952478185184 124.25373134328358 254.78409459962313 133.3582089552239 239.49784611809207 142.46268656716416 213.21073499722047 151.56716417910448 198.67206063983446 160.67164179104478 150.7323846968678 169.77611940298507 143.51138054566212 178.88059701492537 108.48774312529105 187.98507462686567 93.30355129974174 197.08955223880596 57.87538199425387 206.1940298507463 65.87660116079945 215.29850746268656 73.1403233423051 224.40298507462686 80.67560118734397 233.50746268656715 87.74867573746033 242.61194029850748 94.83803667588154 251.71641791044777 101.49257128996464 260.82089552238807 106.83229579455022 269.9253731343283 113.33909623911103 279.02985074626866 119.44687826044964 288.13432835820896 125.5686186790818 297.23880597014926 124.66173727177383 306.34328358208955 125.69587136575086 315.44776119402985 131.62690367742746 324.55223880597015 136.8281875155731 333.65671641791045 141.41101129051583 342.76119402985074 144.26035961270074 351.8656716417911 149.36638170218038 360.97014925373134 154.40937233692273 370.07462686567163 159.376433670092 379.17910447761193 138.67683645635697 388.2835820895522 110.33904917148391 397.3880597014926 86.4934614339476 406.4925373134328 71.04179891022423 415.5970149253731 68.48642549888811 424.70149253731347 75.19874610806073 433.8059701492537 80.6863422845089 442.91044776119406 86.14248671037168 452.0149253731343 92.01792860830906 461.1194029850746 98.35568774986768 470.22388059701495 87.9829669936068 479.3283582089552 93.17340024198324 488.43283582089555 98.61828730032016 497.5373134328358 102.66906550366457 506.64179104477614 107.62357019950935 515.7462686567164 112.32050627543526 524.8507462686566 116.45913510593834 533.955223880597 83.78589330263378 543.0597014925373 89.33565263200376 552.1641791044776 94.99596002345288 561.2686567164179 100.9199357914163 570.3731343283582 106.47182004121157 579.4776119402985 109.92950227045625 588.5820895522388 115.89670215372206 597.6865671641791 121.98947222974309 606.7910447761194 127.84160684441736 615.8955223880597 133.6034807214685 625 320 625 320 15 320"
      />
      
      <polygon
        fill="#00ADD8"
        fillRule="evenodd"
        points="15 303.3856690592338 24.104477611940297 303.89281149286137 33.208955223880594 304.3688498149222 42.31343283582089 304.8459808986374 51.417910447761194 305.308547046958 60.52238805970149 305.7427486268665 69.62686567164178 306.1779406055761 78.73134328358208 306.58644618101005 87.83582089552239 306.9958864540655 96.94029850746269 267.87545178900587 106.04477611940298 267.4729132422138 115.14925373134328 269.07627182182284 124.25373134328358 269.46378015331044 133.3582089552239 256.22246583990415 142.46268656716416 233.82193221102062 151.56716417910448 218.65411334932372 160.67164179104478 176.94872094417238 169.77611940298507 170.51594895864704 178.88059701492537 135.07605503231036 187.98507462686567 119.10605833933766 197.08955223880596 82.89028326771964 206.1940298507463 90.12793538745828 215.29850746268656 96.69846943991081 224.40298507462686 103.51465333303608 233.50746268656715 109.91272380201701 242.61194029850748 116.32554330674822 251.71641791044777 122.34502527198254 260.82089552238807 127.73912558630153 269.9253731343283 133.60775220620607 279.02985074626866 139.11650528209566 288.13432835820896 144.63784236846087 297.23880597014926 143.16738406585563 306.34328358208955 143.63664454107632 315.44776119402985 149.02004131673996 324.55223880597015 153.74107149487614 333.65671641791045 157.8076414600513 342.76119402985074 160.172395886319 351.8656716417911 164.792711966046 360.97014925373134 169.3797855818394 370.07462686567163 173.88988207730003 379.17910447761193 155.23280955781019 388.2835820895522 133.207198340184 397.3880597014926 108.66357487951461 406.4925373134328 92.55668187509062 415.5970149253731 89.34458200851839 424.70149253731347 95.42021585538151 433.8059701492537 100.34947104740661 442.91044776119406 105.20540502622984 452.0149253731343 110.51745209215386 461.1194029850746 116.29052604408912 470.22388059701495 105.3877496806546 479.3283582089552 110.04691208126661 488.43283582089555 114.97674338263408 497.5373134328358 118.54406081119893 506.64179104477614 123.01398752574929 515.7462686567164 127.25606840635405 524.8507462686566 130.93879613253085 533.955223880597 97.82357088075955 543.0597014925373 102.9857283006603 552.1641791044776 108.22937431814188 561.2686567164179 113.7622444132985 570.3731343283582 118.9221222226411 579.4776119402985 122.0118456429451 588.5820895522388 127.61023560324722 597.6865671641791 133.34545948967954 606.7910447761194 138.8619731721914 615.8955223880597 144.28745712251038 625 320 625 320 15 320"
      />
      
      <polygon
        fill="#2b7489"
        fillRule="evenodd"
        points="15 303.3856690592338 24.104477611940297 303.89281149286137 33.208955223880594 304.3688498149222 42.31343283582089 304.8459808986374 51.417910447761194 305.308547046958 60.52238805970149 305.7427486268665 69.62686567164178 306.1779406055761 78.73134328358208 306.58644618101005 87.83582089552239 306.9958864540655 96.94029850746269 274.9487758804064 106.04477611940298 274.3509311738631 115.14925373134328 275.7443427774051 124.25373134328358 275.93477969918956 133.3582089552239 273.27225822577174 142.46268656716416 257.22387055738403 151.56716417910448 243.33317979809772 160.67164179104478 217.7029249957836 169.77611940298507 210.0656681581218 178.88059701492537 173.41854442552219 187.98507462686567 156.3500587238099 197.08955223880596 118.99742385149406 206.1940298507463 125.13293105536229 215.29850746268656 130.7028962263201 224.40298507462686 136.4811258794311 233.50746268656715 141.90488404806254 242.61194029850748 147.34115683941465 251.71641791044777 152.44399982386008 260.82089552238807 156.91934005647425 269.9253731343283 161.89725707209203 279.02985074626866 166.56992334837284 288.13432835820896 171.2532689730824 297.23880597014926 168.99620306948384 306.34328358208955 168.67705122549503 315.44776119402985 173.29610495734798 324.55223880597015 177.34683668999406 333.65671641791045 180.6928549238146 342.76119402985074 182.3812474333366 351.8656716417911 186.32365278523494 360.97014925373134 190.2743891238337 370.07462686567163 194.14669119924366 379.17910447761193 174.87128911645726 388.2835820895522 159.0667312924883 397.3880597014926 133.7337635523031 406.4925373134328 116.88593536774712 415.5970149253731 112.93119618324226 424.70149253731347 118.2868677763762 433.8059701492537 122.58473259253248 442.91044776119406 126.76195056361749 452.0149253731343 131.43690727239985 461.1194029850746 136.5714260853185 470.22388059701495 125.06925537669741 479.3283582089552 129.12765031847468 488.43283582089555 133.47505162588814 497.5373134328358 136.49566611533123 506.64179104477614 140.4176275428859 515.7462686567164 144.14535227333593 524.8507462686566 147.31254616727693 533.955223880597 113.69751709636435 543.0597014925373 118.42137052857072 552.1641791044776 123.19385522829418 561.2686567164179 128.28445795811473 570.3731343283582 133.00105304919185 579.4776119402985 135.6746835658518 588.5820895522388 140.85602128905242 597.6865671641791 146.18692654631243 606.7910447761194 151.3239184916015 615.8955223880597 156.36900667361806 625 320 625 320 15 320"
      />
      
      <polygon
        fill="#dea584"
        fillRule="evenodd"
        points="15 318.67483373623173 24.104477611940297 318.7152836781604 33.208955223880594 318.7532529123582 42.31343283582089 318.79130910405456 51.417910447761194 318.8282036556095 60.52238805970149 318.8628355297649 69.62686567164178 318.89754684971683 78.73134328358208 318.930129302417 87.83582089552239 318.96278642652703 96.94029850746269 303.52124655772974 106.04477611940298 302.13447326161594 115.14925373134328 302.6798079887933 124.25373134328358 303.1916967358418 133.3582089552239 301.04492617011374 142.46268656716416 286.49801058449935 151.56716417910448 274.272893312097 160.67164179104478 248.70115466776258 169.77611940298507 240.1477630245596 178.88059701492537 224.13254333967112 187.98507462686567 205.99824198624444 197.08955223880596 177.67987054108747 206.1940298507463 182.0241232995424 215.29850746268656 185.96794505286263 224.40298507462686 190.0592183320057 233.50746268656715 193.89952246697865 242.61194029850748 197.74867449559798 251.71641791044777 201.3617496474019 260.82089552238807 204.4130850879551 269.9253731343283 207.94129392265245 279.02985074626866 211.25314537125195 288.13432835820896 214.5725728168501 297.23880597014926 213.02080479702337 306.34328358208955 211.35782221071796 315.44776119402985 214.6740730976216 324.55223880597015 217.5822985214295 333.65671641791045 219.70014012256553 342.76119402985074 220.23569900627507 351.8656716417911 223.02262317572558 360.97014925373134 225.888734051727 370.07462686567163 228.67393307607483 379.17910447761193 210.9455819189415 388.2835820895522 200.7354977849162 397.3880597014926 188.30202181579406 406.4925373134328 177.57135191169726 415.5970149253731 172.06971139899287 424.70149253731347 175.6202191664579 433.8059701492537 178.33501189990085 442.91044776119406 180.81049836128645 452.0149253731343 183.88807892445655 461.1194029850746 187.42156122853774 470.22388059701495 179.158493681732 479.3283582089552 181.56584837009154 488.43283582089555 184.31260785131101 497.5373134328358 185.8307419074853 506.64179104477614 188.24677897741498 515.7462686567164 190.56094782049587 524.8507462686566 192.31132014648597 533.955223880597 178.2125011342169 543.0597014925373 181.15499901634064 552.1641791044776 184.01255992043298 561.2686567164179 187.30571423367832 570.3731343283582 190.22069127702812 579.4776119402985 191.2032276178134 588.5820895522388 194.68960709474342 597.6865671641791 198.37725753201943 606.7910447761194 201.97181697516817 615.8955223880597 205.47090141370649 625 320 625 320 15 320"
      />
      
      <polygon
        fill="#f1e05a"
        fillRule="evenodd"
        points="15 318.67483373623173 24.104477611940297 318.7152836781604 33.208955223880594 318.7532529123582 42.31343283582089 318.79130910405456 51.417910447761194 318.8282036556095 60.52238805970149 318.8628355297649 69.62686567164178 318.89754684971683 78.73134328358208 318.930129302417 87.83582089552239 318.96278642652703 96.94029850746269 315.04400633205375 106.04477611940298 315.1808493613482 115.14925373134328 315.3279518476656 124.25373134328358 315.4660315704622 133.3582089552239 312.94459386402525 142.46268656716416 298.0459880333976 151.56716417910448 294.7716416212805 160.67164179104478 288.5476293809674 169.77611940298507 281.1558880645627 178.88059701492537 276.18437000044736 187.98507462686567 265.12207118815076 197.08955223880596 246.71294594426934 206.1940298507463 248.94999443541303 215.29850746268656 250.98084670877194 224.40298507462686 253.08762764711884 233.50746268656715 255.0651754831457 242.61194029850748 257.0472780841945 251.71641791044777 258.9078120652242 260.82089552238807 260.7726175309915 269.9253731343283 262.5804995742207 279.02985074626866 264.27750444097285 288.13432835820896 265.97840839029095 297.23880597014926 262.9073540956051 306.34328358208955 259.75632882176075 315.44776119402985 261.5952316475921 324.55223880597015 263.20788583101375 333.65671641791045 264.08713690694344 342.76119402985074 263.34578285394156 351.8656716417911 264.81679371224755 360.97014925373134 266.4477019679269 370.07462686567163 267.99485793008995 379.17910447761193 249.2411142629462 388.2835820895522 244.5308754721827 397.3880597014926 230.76056737523047 406.4925373134328 221.28327586376963 415.5970149253731 214.44734701653044 424.70149253731347 216.70430788361904 433.8059701492537 218.28469357801748 442.91044776119406 219.540739261421 452.0149253731343 221.47367204411995 461.1194029850746 223.8598723793777 470.22388059701495 218.80648949600044 479.3283582089552 220.1058356848954 488.43283582089555 221.67618243528324 497.5373134328358 222.09005174784113 506.64179104477614 223.39929046621765 515.7462686567164 224.67455464801554 524.8507462686566 225.38362111444695 533.955223880597 210.27529047588536 543.0597014925373 212.33248463276726 552.1641791044776 214.2383689226945 561.2686567164179 216.63820490669713 570.3731343283582 218.6578341881152 579.4776119402985 218.79993267144062 588.5820895522388 221.44393716303347 597.6865671641791 224.31492236968091 606.7910447761194 227.14290626574413 615.8955223880597 229.8736581828488 625 320 625 320 15 320"
      />
      

      
        <g id="labels">
        
          
          <text x="15" y="330">
            Apr 2018
          </text>
          
        
          
        
          
        
          
        
          
        
          
        
          
        
          
        
          
        
          
          <text x="95.73529411764706" y="330">
            Jan 2019
          </text>
          
        
          
        
          
        
          
        
          
        
          
        
          
        
          
        
          
        
          
          <text x="176.47058823529412" y="330">
            Oct 2019
          </text>
          
        
          
        
          
        
          
        
          
        
          
        
          
        
          
        
          
        
          
          <text x="257.2058823529412" y="330">
            Jul 2020
          </text>
          
        
          
        
          
        
          
        
          
        
          
        
          
        
          
        
          
        
          
          <text x="337.94117647058823" y="330">
            Apr 2021
          </text>
          
        
          
        
          
        
          
        
          
        
          
        
          
        
          
        
          
        
          
          <text x="418.6764705882353" y="330">
            Jan 2022
          </text>
          
        
          
        
          
        
          
        
          
        
          
        
          
        
          
        
          
        
          
          <text x="499.4117647058824" y="330">
            Oct 2022
          </text>
          
        
          
        
          
        
          
        
          
        
          
        
          
        
          
        
          
        
          
          <text x="580.1470588235294" y="330">
            Jul 2023
          </text>
          
        
          
        
          
        
          
        
          
        
        </g>
      

      
        <text text-anchor="middle" y="370" x="320" id="legend">
          
          <tspan xml:space="preserve" fill="#f1e05a">   ◉</tspan> JavaScript
          
          <tspan xml:space="preserve" fill="#dea584">   ◉</tspan> Rust
          
          <tspan xml:space="preserve" fill="#2b7489">   ◉</tspan> TypeScript
          
          <tspan xml:space="preserve" fill="#00ADD8">   ◉</tspan> Go
          
          <tspan xml:space="preserve" fill="#b07219">   ◉</tspan> Java
          
          <tspan xml:space="preserve" fill="#3572A5">   ◉</tspan> Python
          
          <tspan xml:space="preserve" fill="#f34b7d">   ◉</tspan> C++
          
          <tspan xml:space="preserve" fill="#555555">   ◉</tspan> C
          
        </text>
      
        <text text-anchor="middle" y="400" x="320" id="legend">
          
          <tspan xml:space="preserve" fill="#178600">   ◉</tspan> C#
          
        </text>
      

    </svg>