<svg
      xmlns="http://www.w3.org/2000/svg"
      viewBox="0 0 640 430"
      style="background-color: #fffc"
    >
      <style>
        text {
          font-size: 12px;
          font-family: Open Sans, Helvetica Neue, Helvetica, Arial, sans-serif;
        }
        #labels text {
          dominant-baseline: hanging;
          font-size: 10px;
          fill: rgba(0,0,0,0.5);
        }
        #legend {
          font-weight: 600;
        }
        #legend tspan {
          font-size: 15px;
        }
        #branding-text {
          font-size: 9px;
          dominant-baseline: hanging;
          opacity: 0.5;
        }
        #branding-logo {
          opacity: 0.5;
        }
      </style>

      
      
      <polygon
        fill="#178600"
        fillRule="evenodd"
        points="0 264.8778523865286 12.8 245.13087068456963 25.6 247.34358773417557 38.4 249.56138343747065 51.2 249.51806220091376 64 251.60111983261916 76.8 253.6889572361718 89.60000000000001 255.64874410778816 102.4 257.6130304368181 115.19999999999999 209.00961187515 128 210.14187948168706 140.8 213.49523690354715 153.6 215.47045315786545 166.4 200.5345427439574 179.20000000000002 164.48451899860902 192 148.20116642270474 204.8 94.7347457360722 217.60000000000002 87.87306129181832 230.39999999999998 52.560330160745025 243.2 35.75419443878866 256 0 268.8 9.767811708396835 281.6 18.635342285652882 294.40000000000003 27.83432895181386 307.2 36.46911853564734 320 45.123747194859845 332.8 53.24755836337425 345.6 59.99452006821787 358.40000000000003 67.93103751490378 371.2 75.38078083269414 384 82.84765418756436 396.8 82.8761562946907 409.6 84.94338153742959 422.40000000000003 92.11836488181103 435.20000000000005 98.41053688898728 448 104.11644712066516 460.79999999999995 107.94859381760028 473.6 114.15030668063343 486.4 120.2340708840407 499.20000000000005 126.24000104625344 512 105.29272409328254 524.8 47.75927525477937 537.6 24.336472344748074 550.4 9.62237767422107 563.2 8.442404852306652 576 16.940153271242025 588.8000000000001 23.973723961492738 601.5999999999999 31.070112602043366 614.4 38.52223809160034 627.2 46.462379856308985 640 39.400561325562535 640 320 0 320"
      />
      
      <polygon
        fill="#555555"
        fillRule="evenodd"
        points="0 271.15803979955274 12.8 251.21935895759933 25.6 253.25213377684923 38.4 255.2895744922949 51.2 255.0714037048112 64 256.9903354657099 76.8 258.91367010678346 89.60000000000001 260.7190431311189 102.4 262.5285614295367 115.19999999999999 213.77509950798185 128 214.77578383260584 140.8 217.9876941370881 153.6 219.83013832783874 166.4 204.7611507571219 179.20000000000002 168.5862117670562 192 152.17765742060178 204.8 98.58985664364127 217.60000000000002 91.61423663794096 230.39999999999998 56.18730839876366 243.2 39.273979021454295 256 3.412345009336889 268.8 13.075997097114282 281.6 21.848967938145393 294.40000000000003 30.94986058195218 307.2 39.49257251802794 320 48.05491180759708 332.8 56.092093994423806 345.6 62.752227685649245 358.40000000000003 70.60456798358973 371.2 77.97529642645037 384 85.36297364039774 396.8 85.31713685396511 409.6 87.30985255664083 422.40000000000003 94.41260060131646 435.20000000000005 100.64142508632136 448 106.27923881381957 460.79999999999995 110.0474653376532 473.6 116.18511135841732 486.4 122.20873793045149 499.20000000000005 128.15439254151386 512 107.14867988054323 524.8 56.69635526930767 537.6 33.00075238285797 550.4 18.030589108028153 563.2 16.59396060440531 576 24.84288771929846 588.8000000000001 31.658250620827403 601.5999999999999 38.520074120275694 614.4 45.752019534900455 627.2 53.47147629803442 640 46.25039348514565 640 320 0 320"
      />
      
      <polygon
        fill="#f34b7d"
        fillRule="evenodd"
        points="0 278.3589242109597 12.8 265.34152932741654 25.6 266.95693151688005 38.4 268.57604050907565 51.2 267.9523094365119 64 269.4905532247167 76.8 271.0323236182883 89.60000000000001 272.47953801583236 102.4 273.9300721724719 115.19999999999999 224.82858822684014 128 225.52406643656622 140.8 228.4078919725311 153.6 229.94237232072965 166.4 214.56471561310303 179.20000000000002 178.10003622418708 192 161.40107826174489 204.8 107.53173780257305 217.60000000000002 100.29184580436151 230.39999999999998 64.6000381245496 243.2 47.43807512095799 256 11.327237102462163 268.8 20.749291142332083 281.6 29.302932135436038 294.40000000000003 38.17629655230007 307.2 46.50543553885393 320 54.85371031010635 332.8 62.689958074996696 345.6 69.14869583064825 358.40000000000003 76.80578814241107 371.2 83.99324190586495 384 91.19722467004206 396.8 90.97896011046757 409.6 92.79885231376386 422.40000000000003 99.73405147237472 435.20000000000005 105.81594230443363 448 111.29580629557995 460.79999999999995 114.91577099567246 473.6 120.90481476794722 486.4 126.78895335133402 499.20000000000005 132.59479891787998 512 111.4535457794093 524.8 68.00996870291769 537.6 43.96902471242106 550.4 28.67469986893849 563.2 26.913165096654495 576 34.84710414479133 588.8000000000001 41.386235438832045 601.5999999999999 47.95111799163641 614.4 54.90433321336383 627.2 62.34442061058877 640 54.921721791585526 640 320 0 320"
      />
      
      <polygon
        fill="#3572A5"
        fillRule="evenodd"
        points="0 285.565589898844 12.8 279.4646467686345 25.6 280.6626469410467 38.4 281.86339816218936 51.2 283.02749611718156 64 284.12020158586745 76.8 285.21540978089536 89.60000000000001 286.24345024289295 102.4 287.2738480310604 115.19999999999999 242.09121196321826 128 242.31003942249407 140.8 244.68148396913324 153.6 245.73500833257322 166.4 229.87528827461512 179.20000000000002 192.9581144669993 192 175.80562150952267 204.8 121.49659146444009 217.60000000000002 113.84397403165116 230.39999999999998 77.73849651743066 243.2 60.188232235858095 256 23.688202638833218 268.8 32.73294556990356 281.6 40.94405194275879 294.40000000000003 49.46207757447735 307.2 57.45767177227333 320 65.47163501431086 332.8 72.99407688196482 345.6 79.13828741660512 358.40000000000003 86.49045279248662 371.2 93.39168127470802 384 100.30878288733149 396.8 99.82122946160217 409.6 101.37121733591161 422.40000000000003 108.04475061809424 435.20000000000005 113.8971689884801 448 119.13035828170683 460.79999999999995 122.51877671427349 473.6 128.27574324457692 486.4 133.94203804059134 499.20000000000005 139.52953890047672 512 118.17660795712419 524.8 81.66960556360866 537.6 57.21170904763528 550.4 41.526002606496036 563.2 39.372189924975714 576 46.92582437064715 588.8000000000001 53.131443602656816 601.5999999999999 59.337810206244285 614.4 65.95449783182616 627.2 73.05728488141708 640 65.39116199672802 640 320 0 320"
      />
      
      <polygon
        fill="#b07219"
        fillRule="evenodd"
        points="0 288.06960240113824 12.8 281.89222573327453 25.6 283.0184801043093 38.4 284.1473209553909 51.2 285.241703368275 64 286.26896900831775 76.8 287.29858749965143 89.60000000000001 288.26506063983845 102.4 289.23375004732384 115.19999999999999 248.4767153189465 128 248.51922787140467 140.8 250.7011412567284 153.6 251.57675779001448 166.4 235.5387218196558 179.20000000000002 207.95880843849386 192 192.70510080246166 204.8 142.40775500867474 217.60000000000002 134.8316039070561 230.39999999999998 98.08549136476404 243.2 82.15455020168548 256 44.984008746568406 268.8 53.378710721121024 281.6 60.99969009167228 294.40000000000003 68.90552623196075 307.2 76.32647984816424 320 83.7644847569353 332.8 90.74629111584397 345.6 96.34862519768916 358.40000000000003 103.17545380777693 371.2 109.58356732438614 384 116.00642322959104 396.8 115.05493238494398 409.6 116.13992089144486 422.40000000000003 122.36264551530525 435.20000000000005 127.81972302198108 448 132.6279357306277 460.79999999999995 135.61744074312145 473.6 140.97457616921614 486.4 146.26556420147583 499.20000000000005 151.47689805221563 512 129.75928116980134 524.8 100.02785866795216 537.6 75.00958841960431 550.4 58.79787331293289 563.2 56.116847755911806 576 63.1593628609711 588.8000000000001 68.91674615612231 601.5999999999999 74.641273153327 614.4 80.80567674630996 627.2 87.45514119064464 640 79.46185790049788 640 320 0 320"
      />
      
      <polygon
        fill="#00ADD8"
        fillRule="evenodd"
        points="0 302.5685696026193 12.8 303.1006521482822 25.6 303.60010287462904 38.4 304.1007027766121 51.2 304.58601943074683 64 305.04157186151684 76.8 305.49816807450486 89.60000000000001 305.9267614299236 102.4 306.35633812329957 115.19999999999999 265.31194670399105 128 264.8896108323195 140.8 266.5718265046927 153.6 266.9783942386451 166.4 253.08586437222482 179.20000000000002 229.58367176605776 192 213.66988074361961 204.8 169.91341812559708 217.60000000000002 163.16426673557203 230.39999999999998 125.98142270273868 243.2 109.22603184118918 256 71.22915188793885 268.8 78.82273431289175 281.6 85.71643698372844 294.40000000000003 92.86780652534321 307.2 99.58056646303248 320 106.3087493716568 332.8 112.62427897808121 345.6 118.28366042002716 358.40000000000003 124.44093225813214 371.2 130.2205563696758 384 136.01347688280342 396.8 134.47069356364196 409.6 134.96302642727233 422.40000000000003 140.61118193402532 435.20000000000005 145.5643887361344 448 149.8309600901052 460.79999999999995 152.31203670040264 473.6 157.15957758419833 486.4 161.97222910563013 499.20000000000005 166.70412509100063 512 147.12948567195832 524.8 124.02067166167657 537.6 98.27003403786222 550.4 81.3708699901286 563.2 78.00081592655684 576 84.37533445624271 588.8000000000001 89.54690666967625 601.5999999999999 94.6417113324743 614.4 100.21501680762663 627.2 106.27202063366695 640 97.85116866859724 640 320 0 320"
      />
      
      <polygon
        fill="#2b7489"
        fillRule="evenodd"
        points="0 302.5685696026193 12.8 303.1006521482822 25.6 303.60010287462904 38.4 304.1007027766121 51.2 304.58601943074683 64 305.04157186151684 76.8 305.49816807450486 89.60000000000001 305.9267614299236 102.4 306.35633812329957 115.19999999999999 272.7331404275066 128 272.10589216685855 140.8 273.56783559515054 153.6 273.7676398763837 166.4 270.97416969408545 179.20000000000002 254.13651786704068 192 239.56267258247894 204.8 212.6719152753131 217.60000000000002 204.65905806306372 230.39999999999998 166.2096048798121 243.2 148.3017055990773 256 109.11205734161683 268.8 115.54929163406791 281.6 121.39321641700437 294.40000000000003 127.45557941153518 307.2 133.14611269006323 320 138.84972597304267 332.8 144.20352460878607 345.6 148.89897103518334 358.40000000000003 154.12171983466084 371.2 159.02415011826403 384 163.93785442531188 396.8 161.56978587430694 409.6 161.23493402015325 422.40000000000003 166.08115782016733 435.20000000000005 170.33108729960202 448 173.84167393550993 460.79999999999995 175.6131275775911 473.6 179.74941249629114 486.4 183.8944341152684 499.20000000000005 187.957171392517 512 167.7337954107833 524.8 151.15198977987734 537.6 124.57317895755037 550.4 106.89664828496728 563.2 102.74742428710886 576 108.36656988815577 588.8000000000001 112.87570506242164 601.5999999999999 117.25841087993527 614.4 122.16329633594259 627.2 127.55033731143047 640 118.64598803108049 640 320 0 320"
      />
      
      <polygon
        fill="#dea584"
        fillRule="evenodd"
        points="0 318.6096615813709 12.8 318.6521008660346 25.6 318.69193744086635 38.4 318.7318652497978 51.2 318.77057428870665 64 318.80690937092527 76.8 318.8433278061134 89.60000000000001 318.87751267559037 102.4 318.9117758888441 115.19999999999999 302.71081551928853 128 301.25583887645575 140.8 301.82799403011904 153.6 302.3650592533356 166.4 300.1127101375459 179.20000000000002 284.850372664018 192 272.0240150391165 204.8 245.19464906411798 217.60000000000002 236.22060120612642 230.39999999999998 219.4177365539107 243.2 200.3916010837915 256 170.68051790871718 268.8 175.23840254810295 281.6 179.37620692197697 294.40000000000003 183.66867112789697 307.2 187.69785282387292 320 191.7363168882039 332.8 195.52708037191329 345.6 198.72847557906707 358.40000000000003 202.43021568689156 371.2 205.90491245764417 384 209.38760723969716 396.8 207.7595333951859 409.6 206.01477140434537 422.40000000000003 209.49410935927554 435.20000000000005 212.54535234008404 448 214.76735683402714 460.79999999999995 215.32927473359376 473.6 218.25324414167642 486.4 221.26030804494974 499.20000000000005 224.18247881884184 512 205.58223628165376 524.8 194.8700278811467 537.6 181.82512117451515 550.4 170.56660619102888 563.2 164.79439301337982 576 168.51958950173608 588.8000000000001 171.3678299318406 601.5999999999999 173.96508575447055 614.4 177.1940422087491 627.2 180.90130378291346 640 175.79486376689098 640 320 0 320"
      />
      
      <polygon
        fill="#f1e05a"
        fillRule="evenodd"
        points="0 318.6096615813709 12.8 318.6521008660346 25.6 318.69193744086635 38.4 318.7318652497978 51.2 318.77057428870665 64 318.80690937092527 76.8 318.8433278061134 89.60000000000001 318.87751267559037 102.4 318.9117758888441 115.19999999999999 314.80026877575784 128 314.94384179459445 140.8 315.09817816635876 153.6 315.24304896688705 166.4 312.59760644526 179.20000000000002 296.9662838093934 192 293.5309018559421 204.8 287.0007904485495 217.60000000000002 279.24552062788445 230.39999999999998 274.0294908257916 243.2 262.4231682116837 256 243.10866486156368 268.8 245.4557255255172 281.6 247.5864598535951 294.40000000000003 249.79684969897767 307.2 251.87165471880593 320 253.95123383339615 332.8 255.90327889723068 345.6 257.85979349690007 358.40000000000003 259.75658783114727 371.2 261.53703531207356 384 263.3215869917005 396.8 260.09952786207316 409.6 256.7935340286359 422.40000000000003 258.7228607330232 435.20000000000005 260.41481581250997 448 261.3373288102854 460.79999999999995 260.55952137646244 473.6 262.10286372154945 486.4 263.8139806335378 499.20000000000005 265.43722628400394 512 245.76115672014856 524.8 240.8192673544891 537.6 226.37179332004217 550.4 216.42829165173154 563.2 209.25617603687994 576 211.62419516384847 588.8000000000001 213.2822513653771 601.5999999999999 214.6000965442616 614.4 216.62810501630113 627.2 219.1316662237114 640 213.19307437424385 640 320 0 320"
      />
      

      
        <g id="labels">
        
          
          <text x="0" y="330">
            Apr 2018
          </text>
          
        
          
        
          
        
          
        
          
        
          
        
          
        
          
          <text x="87.84313725490196" y="330">
            Nov 2018
          </text>
          
        
          
        
          
        
          
        
          
        
          
        
          
        
          
          <text x="175.68627450980392" y="330">
            Jun 2019
          </text>
          
        
          
        
          
        
          
        
          
        
          
        
          
        
          
          <text x="263.52941176470586" y="330">
            Jan 2020
          </text>
          
        
          
        
          
        
          
        
          
        
          
        
          
        
          
          <text x="351.37254901960785" y="330">
            Aug 2020
          </text>
          
        
          
        
          
        
          
        
          
        
          
        
          
        
          
          <text x="439.2156862745098" y="330">
            Mar 2021
          </text>
          
        
          
        
          
        
          
        
          
        
          
        
          
        
          
          <text x="527.0588235294117" y="330">
            Oct 2021
          </text>
          
        
          
        
          
        
          
        
          
        
          
        
          
        
          
          <text x="614.9019607843137" y="330">
            May 2022
          </text>
          
        
          
        
        </g>
      

      
        <text text-anchor="middle" y="370" x="320" id="legend">
          
          <tspan xml:space="preserve" fill="#f1e05a">   ◉</tspan> JavaScript
          
          <tspan xml:space="preserve" fill="#dea584">   ◉</tspan> Rust
          
          <tspan xml:space="preserve" fill="#2b7489">   ◉</tspan> TypeScript
          
          <tspan xml:space="preserve" fill="#00ADD8">   ◉</tspan> Go
          
          <tspan xml:space="preserve" fill="#b07219">   ◉</tspan> Java
          
          <tspan xml:space="preserve" fill="#3572A5">   ◉</tspan> Python
          
          <tspan xml:space="preserve" fill="#f34b7d">   ◉</tspan> C++
          
          <tspan xml:space="preserve" fill="#555555">   ◉</tspan> C
          
        </text>
      
        <text text-anchor="middle" y="400" x="320" id="legend">
          
          <tspan xml:space="preserve" fill="#178600">   ◉</tspan> C#
          
        </text>
      

    </svg>