<svg
      xmlns="http://www.w3.org/2000/svg"
      viewBox="0 0 640 430"
      style="background-color: #fffc"
    >
      <style>
        text {
          font-size: 12px;
          font-family: Open Sans, Helvetica Neue, Helvetica, Arial, sans-serif;
        }
        #labels text {
          dominant-baseline: hanging;
          font-size: 10px;
          fill: rgba(0,0,0,0.5);
        }
        #legend {
          font-weight: 600;
        }
        #legend tspan {
          font-size: 15px;
        }
        #branding-text {
          font-size: 9px;
          dominant-baseline: hanging;
          opacity: 0.5;
        }
        #branding-logo {
          opacity: 0.5;
        }
      </style>

      
      
      <polygon
        fill="#178600"
        fillRule="evenodd"
        points="15 267.4617032296198 25 248.64036395107604 35 250.74935916876223 45 252.86320007073314 55 252.82190506268293 65 254.80731801599853 75 256.7972898720999 85 258.66521102344984 95 260.53742135656194 105 214.21229401484837 114.99999999999999 215.2914860252645 125 218.4876500441575 135 220.37027388775354 145 206.13448674878813 155 171.77429968032044 165 156.2542419669904 175 105.29405413190744 184.99999999999997 98.7540031297269 195 65.0965595149008 205 49.07822477183453 214.99999999999997 15 225 24.309956623897847 235 32.76181373115804 244.99999999999997 41.5295988228163 255 49.75962499781002 265 58.00855774443505 275 65.75160187929214 285 72.18226830654444 295 79.74678188694796 305 86.84733125512787 315 93.96417554171421 325 93.99134352124645 335 95.96170315135117 345 102.80034360223257 354.99999999999994 108.7975636975307 365 114.23600229631415 375 117.88850767784629 385 123.7995040030984 395 129.59812100340264 405 135.32249972690505 414.99999999999994 115.35714493357253 425 60.5205637878924 435 38.195699283736815 445 24.17138055700474 455 23.046701181339984 465 31.146066076861757 474.99999999999994 37.84996493001586 485 44.61372090676019 495 51.716510544532184 505 59.284401844433205 515 44.55078430369974 525 47.73009174532592 535 54.562046972527185 545 59.91492200346784 555 66.17448459404218 565 72.09641019086692 575 77.46284575341997 585 45.9799626093822 595 52.57368644013337 605 59.35603451556665 615 66.33337287569171 625 72.94094446516371 625 320 15 320"
      />
      
      <polygon
        fill="#555555"
        fillRule="evenodd"
        points="15 273.4475066202847 25 254.44345410617944 35 256.38094189235886 45 258.32288195335275 55 258.11493347368423 65 259.9439139625907 75 261.777094129422 85 263.4978395884187 95 265.22253664820335 105 218.754399234769 114.99999999999999 219.7081759345852 125 222.7695231750738 135 224.5255986506003 145 210.16297235158152 155 175.68372544521404 165 160.0443347990607 175 108.96845656997169 184.99999999999997 102.319810740094 195 68.55352301092256 205 52.433019319149594 214.99999999999997 18.252391208047015 225 27.463070697478884 235 35.824800559723826 244.99999999999997 44.49908979003345 255 52.6413544604884 265 60.802323905160335 275 68.46279979512067 285 74.81070827517502 295 82.29499051386222 305 89.32022883236127 315 96.36158930012397 325 96.31790302454257 335 98.21724575209089 345 104.98703693567046 354.99999999999994 110.92387892629344 365 116.29741304710444 375 119.88899451606522 385 125.73892713470119 395 131.48022545737598 405 137.14715404846646 414.99999999999994 117.12610272315536 425 69.03871783894277 435 46.45384086757451 445 32.18545676204508 455 30.81615244945283 465 38.67835954896407 474.99999999999994 45.17427911174036 485 51.71446519723747 495 58.60739570941189 505 65.96494662552837 515 51.03388909407795 525 54.01530393312083 535 60.655406475302414 545 65.82819545657793 555 71.90725885388483 565 77.65975546891238 575 82.85637309629232 585 51.208855727949924 595 57.65820114773044 605 64.28534727737286 615 71.11700267308478 625 77.5785565181429 625 320 15 320"
      />
      
      <polygon
        fill="#f34b7d"
        fillRule="evenodd"
        points="15 280.3108493027335 25 267.9036472061326 35 269.4433267203224 45 270.9865456465751 55 270.3920462623489 65 271.8581835416704 75 273.3276852995235 85 274.7070608308971 95 276.089601144118 105 229.28975525213957 114.99999999999999 229.95263238522966 125 232.70127384312582 135 234.16382129286004 145 219.5069947343909 155 184.75158902132068 165 168.83540743965548 175 117.49118671160025 184.99999999999997 110.590656648849 195 76.57190571283442 205 60.214423105408855 214.99999999999997 25.79627243514608 225 34.77667879429782 235 42.929359903527256 244.99999999999997 51.38678693771692 255 59.325488943853884 265 67.28242847088873 275 74.75138874753571 285 80.90734173410843 295 88.20552792505742 305 95.05608288996658 315 101.92235959223521 325 101.71432810189523 335 103.44894843812978 345 110.05904459601177 354.99999999999994 115.85584019959029 365 121.07882899317892 375 124.52909816235635 385 130.2373944594931 395 135.8457431072852 405 141.37941652639776 414.99999999999994 121.22917825225105 425 79.82200521522913 435 56.90797501711904 445 42.33062442871989 455 40.65164384109045 465 48.21362826967277 474.99999999999994 54.44626363712524 485 60.70342789407596 495 67.33069433826523 505 74.42197133805905 515 59.240970839398074 525 61.97186914823243 535 68.36910372781989 545 73.31391765031663 555 79.164483352639 565 84.70249605274574 575 89.68413832165936 585 57.82820751203502 595 64.09478176702788 605 70.52545487842164 615 77.17268717152149 625 83.44939522159171 625 320 15 320"
      />
      
      <polygon
        fill="#3572A5"
        fillRule="evenodd"
        points="15 287.17970226410625 25 281.3647429834788 35 282.5065881256979 45 283.6510553611342 55 284.7605842707317 65 285.8020665829322 75 286.84593748900716 85 287.8257891520765 95 288.80788700497743 105 245.74319348498057 114.99999999999999 245.95176225297894 125 248.21204123637546 135 249.21617689473058 145 234.09988499686725 155 198.91319301173706 165 182.56473717824187 175 130.8014360570647 184.99999999999997 123.50752962642136 195 89.09449837195186 205 72.36691612362736 214.99999999999997 37.577818517959315 225 46.19859896762796 235 54.02480305304948 244.99999999999997 62.143546547908386 255 69.7643386898676 265 77.40263818984042 275 84.57250159596009 285 90.42867020030977 295 97.43622355360719 305 104.0139700581602 315 110.60681317369753 325 110.14211574298213 335 111.6194835258527 345 117.98017940515427 354.99999999999994 123.55825907737409 365 128.54613542224683 375 131.77571206394055 385 137.26281038518016 395 142.66352604478186 405 147.9890909467813 414.99999999999994 127.63709599968755 425 92.8413460817788 435 69.52990802358335 445 54.57952377446543 455 52.52665268283738 465 59.726158664984325 474.99999999999994 65.64091472433446 485 71.55636657098398 495 77.86288207257152 505 84.63266969127565 515 69.14989675573835 525 71.57833065990636 535 77.68233449885142 545 82.35190056764213 555 87.92658787891168 565 93.2056407049435 575 97.92772948435984 585 65.82016748436106 595 71.86607085575685 605 78.05952951508374 615 84.48409650408408 625 90.5376280723774 625 320 15 320"
      />
      
      <polygon
        fill="#b07219"
        fillRule="evenodd"
        points="15 289.5663390857107 25 283.67852909239554 35 284.7519915203885 45 285.82791918707846 55 286.8710004732393 65 287.85011045123764 75 288.83146617345824 85 289.75263648525384 95 290.6759185401496 105 251.8293761295547 114.99999999999999 251.8698953952416 125 253.9495268610882 135 254.78409412555237 145 239.49784488042204 155 213.21073079608792 165 198.67205401374068 175 150.7323880197793 184.99999999999997 143.51136483131225 195 108.48772706675649 205 93.30355955820104 214.99999999999997 57.87538418264177 225 65.87659437019926 235 73.14033240568509 244.99999999999997 80.67558281466376 255 87.74867322035209 265 94.8380086361905 275 101.49257820688692 285 106.83227338398734 295 113.33911451565899 305 119.44685956408145 315 125.56862348524672 325 124.66173699283073 335 125.69590227083444 345 131.62692434763645 354.99999999999994 136.8281941374905 365 141.41101341807854 375 144.26037572134305 385 149.36638758283584 395 154.4093883608344 405 159.3764171867054 414.99999999999994 138.67682969455768 425 110.33905537796505 435 86.49350985411101 445 71.041776161879 455 68.48640404504661 465 75.1987481518218 474.99999999999994 80.68628062396556 485 86.14248038716349 495 92.0179126872753 505 98.35562594180911 515 87.98297020380667 525 93.17341677713296 535 98.61824204127674 545 102.6690609522364 555 107.62357770183092 565 112.3204965507513 575 116.45911579792883 585 83.78589463811886 595 89.33573349426871 605 94.99594216780184 615 100.91996308383622 625 106.47179763365821 625 320 15 320"
      />
      
      <polygon
        fill="#00ADD8"
        fillRule="evenodd"
        points="15 303.3856666516015 25 303.8928084444102 35 304.3688499454213 45 304.8459829349078 55 305.3085490793665 65 305.74274874589537 75 306.1779419941415 85 306.58644501982536 95 306.99588656263234 105 267.8754554071002 114.99999999999999 267.4729160361085 125 269.0762731381863 135 269.463779556684 145 256.2224650991909 155 233.82193038415193 165 218.65410655640667 175 176.94872723113733 184.99999999999997 170.51593620176988 195 135.0760387517992 205 119.10606447262606 214.99999999999997 82.89028524726677 225 90.12792839439209 235 96.698478306612 244.99999999999997 103.51463031358617 255 109.91272364620838 265 116.32551508766542 275 122.34503456115448 285 127.73910109144003 295 133.60777158670783 305 139.11648769468232 315 144.63784701542343 325 143.16738363241532 335 143.6366740232088 345 149.02006184173962 354.99999999999994 153.74107924876353 365 157.80764536047886 375 160.17241186211726 385 164.79272026425193 395 169.3798014807683 405 173.88986738250034 414.99999999999994 155.2328026577908 425 133.20720690208643 435 108.66362120483268 445 92.55665894712504 455 89.34455719761482 465 95.4202177303205 474.99999999999994 100.34940540319323 485 105.20539663411722 495 110.51743728984377 505 116.29046344971388 515 105.38775274554794 525 110.04692847554517 535 114.9766979870196 545 118.5440535808963 555 123.01399617275138 565 127.25605855697825 575 130.93877797680554 585 97.82357337221873 595 102.98580777579573 605 108.22935635200969 615 113.76227032533265 625 118.92210098431428 625 320 15 320"
      />
      
      <polygon
        fill="#2b7489"
        fillRule="evenodd"
        points="15 303.3856666516015 25 303.8928084444102 35 304.3688499454213 45 304.8459829349078 55 305.3085490793665 65 305.74274874589537 75 306.1779419941415 85 306.58644501982536 95 306.99588656263234 105 274.94878007603296 114.99999999999999 274.3509345469205 125 275.74434403809914 135 275.9347796851239 145 273.2722560695459 155 257.2238634424614 165 243.33317534548328 175 217.70292457665676 184.99999999999997 210.0656601637369 195 173.4185303712424 205 156.35006009006668 214.99999999999997 118.99742552959512 225 125.13292377005149 235 130.70290735546973 244.99999999999997 136.48110258475552 255 141.90488617150203 265 147.3411321809026 275 152.44400631540645 285 156.91932295701608 295 161.8972736700749 305 166.56991189760944 315 171.25327339784195 325 168.996206876502 335 168.6770804985738 345 173.29612527967524 354.99999999999994 177.34684424680506 365 180.6928560868418 375 182.3812613139661 385 186.3236609036865 395 190.27440484832078 405 194.1466776084967 414.99999999999994 174.8712845988226 425 159.06674664093242 435 133.7338096683188 445 116.88590778057068 455 112.93117626810144 465 118.28686946040946 474.99999999999994 122.58467058219395 485 126.7619394451971 495 131.43688783934616 505 136.57136204845526 515 125.06925955044642 525 129.12766846320943 535 133.47500862217726 545 136.4956574619871 555 140.41763349825143 565 144.14534100978753 575 147.3125278748528 585 113.69752454797663 595 118.42144987483928 605 123.19383777381358 615 128.2844812025683 625 133.00103105674 625 320 15 320"
      />
      
      <polygon
        fill="#dea584"
        fillRule="evenodd"
        points="15 318.6748337472951 25 318.715283688886 35 318.7532529227669 45 318.7913091141455 55 318.82820366539244 65 318.86283553925864 75 318.8975468589208 85 318.930129311349 95 318.9627864351864 105 303.52124669530514 114.99999999999999 302.13447385637846 125 302.67980647827284 135 303.1916964942176 145 301.0449276015329 155 286.49800959102606 165 274.27289114751716 175 248.70115271667242 184.99999999999997 240.1477573253693 195 224.1325441400354 205 205.99823338923215 214.99999999999997 177.67985899757096 225 182.0241053539082 235 185.9679398060009 244.99999999999997 190.0592009558742 255 193.89952415633286 265 197.7486596016095 275 201.36175573055084 285 204.41307650417676 295 207.941300587456 305 211.2531430962173 315 214.57257687995178 325 213.0208082364953 335 211.35786131282816 345 214.6740994403475 354.99999999999994 217.5823031959889 365 219.7001409599344 375 220.235704931852 385 223.0226239853562 395 225.8887494788822 405 228.67391919707183 414.99999999999994 210.94557710013504 425 200.73550641963314 435 188.3020674762382 445 177.57133400323772 455 172.06970372182306 465 175.6202203718348 474.99999999999994 178.33496852166965 485 180.81048679163342 495 183.88805268765708 505 187.42149676714425 515 179.15850376975771 525 181.56584952583046 535 184.31255805732587 545 185.83073029592003 555 188.24676543592432 565 190.56091070604361 575 192.3113078442317 585 178.21252332525356 595 181.15507147301878 605 184.01254832404706 615 187.3057395317234 625 190.2206751727183 625 320 15 320"
      />
      
      <polygon
        fill="#f1e05a"
        fillRule="evenodd"
        points="15 318.6748337472951 25 318.715283688886 35 318.7532529227669 45 318.7913091141455 55 318.82820366539244 65 318.86283553925864 75 318.8975468589208 85 318.930129311349 95 318.9627864351864 105 315.0440063734296 114.99999999999999 315.18084984719104 125 315.3279515047199 135 315.4660312263638 145 312.9445939229284 155 298.045988216684 165 294.77164183190337 175 288.5476270972128 184.99999999999997 281.1558852059342 195 276.18436018089045 205 265.12207164630763 214.99999999999997 246.71293382441957 225 248.9499822968869 235 250.98084728498898 244.99999999999997 253.08762502282264 255 255.06517347892452 265 257.0472690609915 275 258.9078151216014 285 260.7726052937624 295 262.5804905048227 305 264.27750808910525 315 265.978405658374 325 262.9073609381009 335 259.75634205641245 345 261.5952512327404 354.99999999999994 263.2078863051515 365 264.0871501054387 375 263.3457795074186 385 264.8167973558776 395 266.447712600375 405 267.9948456325648 414.99999999999994 249.24111167076316 425 244.53087355590873 435 230.76060631535387 445 221.28325122452532 455 214.447335166055 465 216.704296014301 474.99999999999994 218.2846498662602 485 219.5407273684226 495 221.473641037437 505 223.85980952352804 515 218.80649670667913 525 220.10583651887725 535 221.67613232936256 545 222.09005256525745 555 223.39927854100551 565 224.67451724876054 575 225.38361553851735 585 210.27531048948617 595 212.3325555559855 605 214.23835707396375 615 216.63823759887424 625 218.65782230248786 625 320 15 320"
      />
      

      
        <g id="labels">
        
          
          <text x="15" y="330">
            Apr 2018
          </text>
          
        
          
        
          
        
          
        
          
        
          
        
          
        
          
        
          
          <text x="93.70967741935483" y="330">
            Dec 2018
          </text>
          
        
          
        
          
        
          
        
          
        
          
        
          
        
          
        
          
          <text x="172.41935483870967" y="330">
            Aug 2019
          </text>
          
        
          
        
          
        
          
        
          
        
          
        
          
        
          
        
          
          <text x="251.1290322580645" y="330">
            Apr 2020
          </text>
          
        
          
        
          
        
          
        
          
        
          
        
          
        
          
        
          
          <text x="329.83870967741933" y="330">
            Dec 2020
          </text>
          
        
          
        
          
        
          
        
          
        
          
        
          
        
          
        
          
          <text x="408.5483870967742" y="330">
            Aug 2021
          </text>
          
        
          
        
          
        
          
        
          
        
          
        
          
        
          
        
          
          <text x="487.258064516129" y="330">
            Apr 2022
          </text>
          
        
          
        
          
        
          
        
          
        
          
        
          
        
          
        
          
          <text x="565.9677419354839" y="330">
            Dec 2022
          </text>
          
        
          
        
          
        
          
        
          
        
          
        
        </g>
      

      
        <text text-anchor="middle" y="370" x="320" id="legend">
          
          <tspan xml:space="preserve" fill="#f1e05a">   ◉</tspan> JavaScript
          
          <tspan xml:space="preserve" fill="#dea584">   ◉</tspan> Rust
          
          <tspan xml:space="preserve" fill="#2b7489">   ◉</tspan> TypeScript
          
          <tspan xml:space="preserve" fill="#00ADD8">   ◉</tspan> Go
          
          <tspan xml:space="preserve" fill="#b07219">   ◉</tspan> Java
          
          <tspan xml:space="preserve" fill="#3572A5">   ◉</tspan> Python
          
          <tspan xml:space="preserve" fill="#f34b7d">   ◉</tspan> C++
          
          <tspan xml:space="preserve" fill="#555555">   ◉</tspan> C
          
        </text>
      
        <text text-anchor="middle" y="400" x="320" id="legend">
          
          <tspan xml:space="preserve" fill="#178600">   ◉</tspan> C#
          
        </text>
      

    </svg>