<svg
      xmlns="http://www.w3.org/2000/svg"
      viewBox="0 0 640 430"
      style="background-color: #fffc"
    >
      <style>
        text {
          font-size: 12px;
          font-family: Open Sans, Helvetica Neue, Helvetica, Arial, sans-serif;
        }
        #labels text {
          dominant-baseline: hanging;
          font-size: 10px;
          fill: rgba(0,0,0,0.5);
        }
        #legend {
          font-weight: 600;
        }
        #legend tspan {
          font-size: 15px;
        }
        #branding-text {
          font-size: 9px;
          dominant-baseline: hanging;
          opacity: 0.5;
        }
        #branding-logo {
          opacity: 0.5;
        }
      </style>

      
      
      <polygon
        fill="#178600"
        fillRule="evenodd"
        points="15 267.46170834074996 25.70175438596491 248.64037171028832 36.40350877192982 250.74936804708062 47.10526315789473 252.8632005190308 57.807017543859644 252.82191124326093 68.50877192982456 254.80732468812553 79.21052631578947 256.7972983086126 89.91228070175438 258.66521423083066 100.61403508771929 260.53742251742193 111.3157894736842 214.21230428905602 122.01754385964912 215.2914917645424 132.71929824561403 218.48765809629273 143.42105263157893 220.37029109650064 154.12280701754386 206.13450143259456 164.82456140350877 171.7743194205027 175.52631578947367 156.254254565321 186.22807017543857 105.29406822486953 196.9298245614035 98.75404602847053 207.6315789473684 65.09656731383839 218.33333333333331 49.078248382374795 229.03508771929825 15 239.73684210526315 24.309971221835326 250.43859649122805 32.7618385336238 261.140350877193 41.52961916527994 271.84210526315786 49.75964728540379 282.5438596491228 58.0085947074748 293.2456140350877 65.75161663281179 303.9473684210526 72.18227367811136 314.64912280701753 79.74680453029768 325.35087719298247 86.84734637734388 336.05263157894734 93.9642041489065 346.7543859649123 93.99135175573869 357.45614035087715 95.96168195900376 368.15789473684214 102.8003492834664 378.859649122807 108.79757848943618 389.56140350877195 114.2359959382714 400.2631578947368 117.888522887846 410.96491228070175 123.79951789007671 421.66666666666663 129.598135548982 432.3684210526316 135.3225307238132 443.0701754385965 115.35716561214434 453.7719298245614 60.520591018655466 464.4736842105263 38.19570586487731 475.17543859649123 24.171398347989623 485.8771929824561 23.046710142295467 496.57894736842104 31.146090997359124 507.2807017543859 37.85002500954056 517.9824561403509 44.6137187434565 528.6842105263157 51.71653587209829 539.3859649122807 59.284484548381386 550.0877192982456 44.55081588399105 560.7894736842105 47.73014091774252 571.4912280701755 54.56207845807336 582.1929824561404 59.914985563810376 592.8947368421052 66.17452255201721 603.5964912280701 72.0964162052907 614.2982456140351 77.46287747580084 625 45.91493702264967 625 320 15 320"
      />
      
      <polygon
        fill="#555555"
        fillRule="evenodd"
        points="15 273.44751129414766 25.70175438596491 254.44346144147187 36.40350877192982 256.3809503592861 47.10526315789473 258.3228820028167 57.807017543859644 258.11493926760267 68.50877192982456 259.94392025948565 79.21052631578947 261.77710220215636 89.91228070175438 263.49784244277254 100.61403508771929 265.22253746681224 111.3157894736842 218.7544091771726 122.01754385964912 219.70818135122073 132.71929824561403 222.7695309144151 143.42105263157893 224.52561555579794 154.12280701754386 210.16298674110413 164.82456140350877 175.68374489980994 175.52631578947367 160.04434712052222 186.22807017543857 108.96847039451606 196.9298245614035 102.3198533783528 207.6315789473684 68.55353055732647 218.33333333333331 52.43304268461969 229.03508771929825 18.252390970457498 239.73684210526315 27.463085065079156 250.43859649122805 35.82482513843621 261.140350877193 44.49910991557363 271.84210526315786 52.64137653756973 282.5438596491228 60.80236066411345 293.2456140350877 68.46281435058538 303.9473684210526 74.81071345473254 314.64912280701753 82.2950129710635 325.35087719298247 89.32024377393034 336.05263157894734 96.36161773218345 346.7543859649123 96.31791108907797 357.45614035087715 98.21722439497444 368.15789473684214 104.98704245716476 378.859649122807 110.92389356287 389.56140350877195 116.29740653847409 400.2631578947368 119.88900957992792 410.96491228070175 125.73894088000321 421.66666666666663 131.48023986546625 432.3684210526316 137.1471849120823 443.0701754385965 117.12612327250358 453.7719298245614 69.03874444744855 464.4736842105263 46.453846845451835 475.17543859649123 32.1854739675959 485.8771929824561 30.816160842844283 496.57894736842104 38.67838391922197 507.2807017543859 45.174338656218595 517.9824561403509 51.71446251521934 528.6842105263157 58.60742053359388 539.3859649122807 65.96502884145792 550.0877192982456 51.033920200773764 560.7894736842105 54.015352646398185 571.4912280701755 60.65543751572426 582.1929824561404 65.82825858495153 592.8947368421052 71.90729639307656 603.5964912280701 77.65976107692978 614.2982456140351 82.85640442467218 625 51.150155502966015 625 320 15 320"
      />
      
      <polygon
        fill="#f34b7d"
        fillRule="evenodd"
        points="15 280.31085347522435 25.70175438596491 267.90365355814816 36.40350877192982 269.44333423303294 47.10526315789473 270.9865447709493 57.807017543859644 270.3920511594155 68.50877192982456 271.85818896821945 79.21052631578947 273.327691891894 89.91228070175438 274.7070628664093 100.61403508771929 276.0896030786346 111.3157894736842 229.2897631517581 122.01754385964912 229.95263705350024 132.71929824561403 232.70128085694557 143.42105263157893 234.16383749397855 154.12280701754386 219.50700780474114 164.82456140350877 184.75160781350263 175.52631578947367 168.8354197555077 186.22807017543857 117.49119959526058 196.9298245614035 110.59069804633171 207.6315789473684 76.57191267348969 218.33333333333331 60.21444526585691 229.03508771929825 25.796271646470643 239.73684210526315 34.776692627633736 250.43859649122805 42.929383963246494 261.140350877193 51.38680656010587 271.84210526315786 59.32551053265439 282.5438596491228 67.2824647564656 293.2456140350877 74.7514028436145 303.9473684210526 80.90734646830245 314.64912280701753 88.20554995048968 325.35087719298247 95.05609804911228 336.05263157894734 101.92238761807639 346.7543859649123 101.71433577221791 357.45614035087715 103.4489266988337 368.15789473684214 110.05904974699226 378.859649122807 115.85585447588355 389.56140350877195 121.07882251721361 400.2631578947368 124.5291130782316 410.96491228070175 130.23740768520344 421.66666666666663 135.84575719647123 432.3684210526316 141.37944676255137 443.0701754385965 121.22919786528178 453.7719298245614 79.82202976283824 464.4736842105263 56.907980231314355 475.17543859649123 42.33064089315883 485.8771929824561 40.65165151599223 496.57894736842104 48.21365194337238 507.2807017543859 54.44632186769354 517.9824561403509 60.703424555407594 528.6842105263157 67.33071916178878 539.3859649122807 74.42205293619685 550.0877192982456 59.24100198314551 560.7894736842105 61.97191791686174 571.4912280701755 68.36913356816578 582.1929824561404 73.31398023185284 592.8947368421052 79.16452036168528 603.5964912280701 84.70250114628584 614.2982456140351 89.68416915126605 625 57.77751504100263 625 320 15 320"
      />
      
      <polygon
        fill="#3572A5"
        fillRule="evenodd"
        points="15 287.1797065714072 25.70175438596491 281.3647483521516 36.40350877192982 282.5065934109581 47.10526315789473 283.6510561066962 57.807017543859644 284.76058684499645 68.50877192982456 285.80207099087045 79.21052631578947 286.84594309385966 89.91228070175438 287.8257902292561 100.61403508771929 288.8078880104141 111.3157894736842 245.74319827290896 122.01754385964912 245.9517657525015 132.71929824561403 248.2120464805376 143.42105263157893 249.21619199626366 154.12280701754386 234.09989572802658 164.82456140350877 198.91321204257335 175.52631578947367 182.56474721798693 186.22807017543857 130.80144796840173 196.9298245614035 123.50756880714746 207.6315789473684 89.09450441782272 218.33333333333331 72.36693739632707 229.03508771929825 37.57781686863342 239.73684210526315 46.19861196658434 250.43859649122805 54.02482630223858 261.140350877193 62.14356538450829 271.84210526315786 69.76435951610259 282.5438596491228 77.40267309954379 293.2456140350877 84.57251497459947 303.9473684210526 90.42867487554875 314.64912280701753 97.43624554131532 325.35087719298247 104.01398456292577 336.05263157894734 110.60684056513315 346.7543859649123 110.1421227976488 357.45614035087715 111.61946118969314 368.15789473684214 117.98018397749016 378.859649122807 123.55827279100009 389.56140350877195 128.5461290373743 400.2631578947368 131.77572708703028 410.96491228070175 137.26282309767882 421.66666666666663 142.66354027250884 432.3684210526316 147.9891207000934 443.0701754385965 127.6371157812001 453.7719298245614 92.84136967831571 464.4736842105263 69.5299123157373 475.17543859649123 54.57953934411347 485.8771929824561 52.52665821709144 496.57894736842104 59.72618149768533 507.2807017543859 65.64097213712535 517.9824561403509 71.55636434925518 528.6842105263157 77.86290612671118 539.3859649122807 84.63275054351459 550.0877192982456 69.1499271756316 560.7894736842105 71.57837936336162 571.4912280701755 77.68236365885906 582.1929824561404 82.35196185236234 592.8947368421052 87.92662392958746 603.5964912280701 93.2056445407379 614.2982456140351 97.92775907518134 625 65.77914224373205 625 320 15 320"
      />
      
      <polygon
        fill="#b07219"
        fillRule="evenodd"
        points="15 289.5663432186662 25.70175438596491 283.6785342920446 36.40350877192982 284.7519966416204 47.10526315789473 285.82791977361904 57.807017543859644 286.8710028933366 68.50877192982456 287.8501147095648 79.21052631578947 288.83147163326635 89.91228070175438 289.7526374216759 100.61403508771929 290.6759194091252 111.3157894736842 251.8293804728831 122.01754385964912 251.86989782585545 132.71929824561403 253.9495316861229 143.42105263157893 254.78410882034507 154.12280701754386 239.49785458067169 164.82456140350877 213.2107494190636 175.52631578947367 198.67206287683462 186.22807017543857 150.73239847514594 196.9298245614035 143.51140255074375 207.6315789473684 108.48773169593798 218.33333333333331 93.30357930146386 229.03508771929825 57.875381050564044 239.73684210526315 65.87660720483359 250.43859649122805 73.14035425847098 261.140350877193 80.67560029748503 271.84210526315786 87.748690186479 282.5438596491228 94.83804481856691 293.2456140350877 101.4925903495025 303.9473684210526 106.83227686093124 314.64912280701753 113.33913534164947 325.35087719298247 119.44687294146328 336.05263157894734 125.56865105688101 346.7543859649123 124.66174425999833 357.45614035087715 125.69587890638235 368.15789473684214 131.62692792306777 378.859649122807 136.8282081549079 389.56140350877195 141.41100609341737 400.2631578947368 144.2603898324191 410.96491228070175 149.3663981379897 421.66666666666663 154.409400457348 432.3684210526316 159.37644610816506 443.0701754385965 138.67684866960977 453.7719298245614 110.33907642311198 464.4736842105263 86.49351290706164 475.17543859649123 71.0417905289477 485.8771929824561 68.48640714025964 496.57894736842104 75.19877112740869 507.2807017543859 80.68633821085137 517.9824561403509 86.14247773649342 528.6842105263157 92.01793570737976 539.3859649122807 98.35570451840644 550.0877192982456 87.98299924793031 560.7894736842105 93.17346644939101 571.4912280701755 98.61827094507095 582.1929824561404 102.66912138935825 592.8947368421052 107.6236123136274 603.5964912280701 112.3205008999463 614.2982456140351 116.4591427618495 625 83.76660236526504 625 320 15 320"
      />
      
      <polygon
        fill="#00ADD8"
        fillRule="evenodd"
        points="15 303.38566977504513 25.70175438596491 303.8928134405613 36.40350877192982 304.3688510872881 47.10526315789473 304.8459821321651 57.807017543859644 305.3085501525876 68.50877192982456 305.7427497873979 79.21052631578947 306.17794491360735 89.91228070175438 306.58644599969523 100.61403508771929 306.9958862394225 111.3157894736842 267.8754573050812 122.01754385964912 267.47291732691036 132.71929824561403 269.07627685820125 143.42105263157893 269.4637919059454 154.12280701754386 256.2224716679404 164.82456140350877 233.82194495512522 175.52631578947367 218.65411395979726 186.22807017543857 176.94873258845712 196.9298245614035 170.515967492404 207.6315789473684 135.07604589477933 218.33333333333331 119.10608424075181 229.03508771929825 82.89027837807788 239.73684210526315 90.12794391354302 250.43859649122805 96.69850098479782 261.140350877193 103.51464612799856 271.84210526315786 109.91274153957485 282.5438596491228 116.32554970036401 293.2456140350877 122.34504263414368 303.9473684210526 127.73910495087966 314.64912280701753 133.60779220522798 325.35087719298247 139.11650090835334 336.05263157894734 144.63787192086747 346.7543859649123 143.16738954773206 357.45614035087715 143.63664934817038 368.15789473684214 149.02006541975945 378.859649122807 153.74109203068247 389.56140350877195 157.8076368380319 400.2631578947368 160.17242353763783 410.96491228070175 164.79272459982224 421.66666666666663 169.37981503002186 432.3684210526316 173.88989524374202 443.0701754385965 155.2328204234171 453.7719298245614 133.2072262766984 464.4736842105263 108.66362009190127 475.17543859649123 92.55667174251602 485.8771929824561 89.34456386180352 496.57894736842104 95.42024113846901 507.2807017543859 100.34946028050385 517.9824561403509 105.20539704698135 528.6842105263157 110.51745895854461 539.3859649122807 116.2905407161584 550.0877192982456 105.38778179140937 560.7894736842105 110.04697691518106 571.4912280701755 114.97672696898653 582.1929824561404 118.54411158516876 592.8947368421052 123.01402966026671 603.5964912280701 127.25606181511964 614.2982456140351 130.938801336637 625 97.82126288471491 625 320 15 320"
      />
      
      <polygon
        fill="#2b7489"
        fillRule="evenodd"
        points="15 303.38566977504513 25.70175438596491 303.8928134405613 36.40350877192982 304.3688510872881 47.10526315789473 304.8459821321651 57.807017543859644 305.3085501525876 68.50877192982456 305.7427497873979 79.21052631578947 306.17794491360735 89.91228070175438 306.58644599969523 100.61403508771929 306.9958862394225 111.3157894736842 274.9487814573025 122.01754385964912 274.35093533527817 132.71929824561403 275.74434727100675 143.42105263157893 275.9347909250892 154.12280701754386 273.2722594830413 164.82456140350877 257.2238763039066 175.52631578947367 243.33317839971068 186.22807017543857 217.70292695685305 196.9298245614035 210.06568347255626 207.6315789473684 173.41853471327593 218.33333333333331 156.3500815935857 229.03508771929825 118.99742111543247 239.73684210526315 125.13293673206223 250.43859649122805 130.70292754960744 261.140350877193 136.48111599094335 271.84210526315786 141.90489918147856 282.5438596491228 147.34116070837885 293.2456140350877 152.44400964330464 303.9473684210526 156.9193246848195 314.64912280701753 161.89729476836592 325.35087719298247 166.56991992286376 336.05263157894734 171.25329381267045 346.7543859649123 168.9962026294014 357.45614035087715 168.67705399431566 368.15789473684214 173.29612326480193 378.859649122807 177.34685212138157 389.56140350877195 180.69284971212286 400.2631578947368 182.3812713671142 410.96491228070175 186.32366048348177 421.66666666666663 190.27441687120853 432.3684210526316 194.14670144362438 443.0701754385965 174.8712983835042 453.7719298245614 159.06676094356212 464.4736842105263 133.73380417765262 475.17543859649123 116.88592643771074 485.8771929824561 112.93117866293122 496.57894736842104 118.28688801520826 507.2807017543859 122.58472001569328 517.9824561403509 126.76194082967967 528.6842105263157 131.4369041603569 539.3859649122807 136.5714378333655 550.0877192982456 125.06928461222017 560.7894736842105 129.12771805532293 571.4912280701755 133.47503497965954 582.1929824561404 136.4957141548819 592.8947368421052 140.41766762417305 603.5964912280701 144.14534430732436 614.2982456140351 147.31255003857 625 113.71441611966267 625 320 15 320"
      />
      
      <polygon
        fill="#dea584"
        fillRule="evenodd"
        points="15 318.67483384409945 25.70175438596491 318.71528378273547 36.40350877192982 318.75325301384265 47.10526315789473 318.79130920244125 57.807017543859644 318.828203750993 68.50877192982456 318.8628356223293 79.21052631578947 318.8975469394558 89.91228070175438 318.9301293895038 100.61403508771929 318.96278651095554 111.3157894736842 303.52124789908993 122.01754385964912 302.134475161468 132.71929824561403 302.6798102898649 143.42105263157893 303.19169937719687 154.12280701754386 301.0449277130449 164.82456140350877 286.4980139481252 175.52631578947367 274.272891941576 186.22807017543857 248.7011541055955 196.9298245614035 240.14777589033034 207.6315789473684 224.13253841152505 218.33333333333331 205.99825763176483 229.03508771929825 177.6798693941599 239.73684210526315 182.02411797948625 250.43859649122805 185.96795596298813 261.140350877193 190.05921681399184 271.84210526315786 193.89952318270588 282.5438596491228 197.74868444677946 293.2456140350877 201.36176185082076 303.9473684210526 204.41307476252717 314.64912280701753 207.94131832219765 325.35087719298247 211.25313830855652 336.05263157894734 214.57258776442535 346.7543859649123 213.0208109587236 357.45614035087715 211.35782787119905 368.15789473684214 214.6740944027834 378.859649122807 217.58231067767554 389.56140350877195 219.70013873813858 400.2631578947368 220.23571349287542 410.96491228070175 223.02262470377488 421.66666666666663 225.88875890011636 432.3684210526316 228.6739405099596 443.0701754385965 210.9455850666393 453.7719298245614 200.735521497839 464.4736842105263 188.30205799932145 475.17543859649123 177.57136350530018 485.8771929824561 172.06971452823788 496.57894736842104 175.62022455303327 507.2807017543859 178.33500115087236 517.9824561403509 180.8104842278306 528.6842105263157 183.8880651770724 539.3859649122807 187.4215561057184 550.0877192982456 179.1585185144246 560.7894736842105 181.56589528729697 571.4912280701755 184.3125807010885 582.1929824561404 185.83079866288875 592.8947368421052 188.2468151654391 603.5964912280701 190.56092334458668 614.2982456140351 192.31132035490702 625 178.30742747779544 625 320 15 320"
      />
      
      <polygon
        fill="#f1e05a"
        fillRule="evenodd"
        points="15 318.67483384409945 25.70175438596491 318.71528378273547 36.40350877192982 318.75325301384265 47.10526315789473 318.79130920244125 57.807017543859644 318.828203750993 68.50877192982456 318.8628356223293 79.21052631578947 318.8975469394558 89.91228070175438 318.9301293895038 100.61403508771929 318.96278651095554 111.3157894736842 315.04400673546854 122.01754385964912 315.1808501992334 132.71929824561403 315.32795184601645 143.42105263157893 315.4660319395244 154.12280701754386 312.9445944383309 164.82456140350877 298.045991730195 175.52631578947367 294.7716411285137 186.22807017543857 288.5476293948313 196.9298245614035 281.1558912264491 207.6315789473684 276.1843633816545 218.33333333333331 265.1220820210284 229.03508771929825 246.7129391780926 239.73684210526315 248.94999639932996 250.43859649122805 250.98085232688786 261.140350877193 253.08762991081989 271.84210526315786 255.0651744029513 282.5438596491228 257.04727684265816 293.2456140350877 258.9078170380902 303.9473684210526 260.77260580085715 314.64912280701753 262.5805042481322 325.35087719298247 264.2775057938249 336.05263157894734 265.9784032388419 346.7543859649123 262.9073689282685 357.45614035087715 259.7563241767851 368.15789473684214 261.5952364017037 378.859649122807 263.20789045385635 389.56140350877195 264.0871382752913 400.2631578947368 263.345793831408 410.96491228070175 264.8167950212018 421.66666666666663 266.4477165124082 432.3684210526316 267.994862163276 443.0701754385965 249.241116839751 453.7719298245614 244.53090453237712 464.4736842105263 230.76059373681022 475.17543859649123 221.28327753340074 485.8771929824561 214.44734287675328 496.57894736842104 216.70430356012668 507.2807017543859 218.2846763941856 517.9824561403509 219.54072197534776 528.6842105263157 221.47364823485862 539.3859649122807 223.8598611075783 550.0877192982456 218.80650409893752 560.7894736842105 220.1058692796122 571.4912280701755 221.67614587784055 582.1929824561404 222.09011064443825 592.8947368421052 223.39933015869786 603.5964912280701 224.67451784650723 614.2982456140351 225.3836224503125 625 210.4090076907528 625 320 15 320"
      />
      

      
        <g id="labels">
        
          
          <text x="15" y="330">
            Apr 2018
          </text>
          
        
          
        
          
        
          
        
          
        
          
        
          
        
          
        
          
          <text x="99.13793103448276" y="330">
            Dec 2018
          </text>
          
        
          
        
          
        
          
        
          
        
          
        
          
        
          
        
          
          <text x="183.27586206896552" y="330">
            Aug 2019
          </text>
          
        
          
        
          
        
          
        
          
        
          
        
          
        
          
        
          
          <text x="267.41379310344826" y="330">
            Apr 2020
          </text>
          
        
          
        
          
        
          
        
          
        
          
        
          
        
          
        
          
          <text x="351.55172413793105" y="330">
            Dec 2020
          </text>
          
        
          
        
          
        
          
        
          
        
          
        
          
        
          
        
          
          <text x="435.6896551724138" y="330">
            Aug 2021
          </text>
          
        
          
        
          
        
          
        
          
        
          
        
          
        
          
        
          
          <text x="519.8275862068965" y="330">
            Apr 2022
          </text>
          
        
          
        
          
        
          
        
          
        
          
        
          
        
          
        
          
          <text x="603.9655172413793" y="330">
            Dec 2022
          </text>
          
        
          
        
        </g>
      

      
        <text text-anchor="middle" y="370" x="320" id="legend">
          
          <tspan xml:space="preserve" fill="#f1e05a">   ◉</tspan> JavaScript
          
          <tspan xml:space="preserve" fill="#dea584">   ◉</tspan> Rust
          
          <tspan xml:space="preserve" fill="#2b7489">   ◉</tspan> TypeScript
          
          <tspan xml:space="preserve" fill="#00ADD8">   ◉</tspan> Go
          
          <tspan xml:space="preserve" fill="#b07219">   ◉</tspan> Java
          
          <tspan xml:space="preserve" fill="#3572A5">   ◉</tspan> Python
          
          <tspan xml:space="preserve" fill="#f34b7d">   ◉</tspan> C++
          
          <tspan xml:space="preserve" fill="#555555">   ◉</tspan> C
          
        </text>
      
        <text text-anchor="middle" y="400" x="320" id="legend">
          
          <tspan xml:space="preserve" fill="#178600">   ◉</tspan> C#
          
        </text>
      

    </svg>