<svg
      xmlns="http://www.w3.org/2000/svg"
      viewBox="0 0 640 430"
      style="background-color: #fffc"
    >
      <style>
        text {
          font-size: 12px;
          font-family: Open Sans, Helvetica Neue, Helvetica, Arial, sans-serif;
        }
        #labels text {
          dominant-baseline: hanging;
          font-size: 10px;
          fill: rgba(0,0,0,0.5);
        }
        #legend {
          font-weight: 600;
        }
        #legend tspan {
          font-size: 15px;
        }
        #branding-text {
          font-size: 9px;
          dominant-baseline: hanging;
          opacity: 0.5;
        }
        #branding-logo {
          opacity: 0.5;
        }
      </style>

      
      
      <polygon
        fill="#178600"
        fillRule="evenodd"
        points="15 267.4616988433786 24.104477611940297 248.6403579935061 33.208955223880594 250.74935720677473 42.31343283582089 252.8631931925433 51.417910447761194 252.82189945421544 60.52238805970149 254.80731320987127 69.62686567164178 256.7972858686935 78.73134328358208 258.6652046296499 87.83582089552239 260.5374163922363 96.94029850746269 214.21228225470676 106.04477611940298 215.29147346400202 115.14925373134328 218.48764156924145 124.25373134328358 220.37026722513212 133.3582089552239 206.13448870107828 142.46268656716416 171.77428985180765 151.56716417910448 156.25422893300666 160.67164179104478 105.29405912390686 169.77611940298507 98.75400375621024 178.88059701492537 65.09654332657118 187.98507462686567 49.07820406326459 197.08955223880596 15 206.1940298507463 24.30991602313179 215.29850746268656 32.76177065308366 224.40298507462686 41.529566025508416 233.50746268656715 49.75961039368491 242.61194029850748 58.008553696051706 251.71641791044777 65.75155009689217 260.82089552238807 72.18226607806042 269.9253731343283 79.74674686928876 279.02985074626866 86.84729396563671 288.13432835820896 93.96416176344238 297.23880597014926 93.99133802084714 306.34328358208955 95.96166598620258 315.44776119402985 102.80028154462028 324.55223880597015 108.7975282405888 333.65671641791045 114.23596792999368 342.76119402985074 117.8884769903612 351.8656716417911 123.79949462543013 360.97014925373134 129.5980928213166 370.07462686567163 135.3224986319789 379.17910447761193 115.3571323047409 388.2835820895522 60.52053639558437 397.3880597014926 38.19563756177007 406.4925373134328 24.171344400764212 415.5970149253731 23.04667129705342 424.70149253731347 31.146062013869027 433.8059701492537 37.84996110841598 442.91044776119406 44.613699825464266 452.0149253731343 51.716459500145675 461.1194029850746 59.284466017156035 470.22388059701495 44.55079950249194 479.3283582089552 47.730058829090865 488.43283582089555 54.5620025315543 497.5373134328358 59.91498049956607 506.64179104477614 66.17444971644858 515.7462686567164 72.09639649668554 524.8507462686566 77.46279622192134 533.955223880597 45.97989389827728 543.0597014925373 52.57367302582202 552.1641791044776 59.35607132111676 561.2686567164179 66.33337015890342 570.3731343283582 72.94096967317199 579.4776119402985 77.38961918970276 588.5820895522388 84.35011670438959 597.6865671641791 91.40575330497899 606.7910447761194 98.16173523433156 615.8955223880597 104.82963544958537 625 97.55761636519412 625 320 15 320"
      />
      
      <polygon
        fill="#555555"
        fillRule="evenodd"
        points="15 273.4475027337776 24.104477611940297 254.44344863308953 33.208955223880594 256.38094040053284 42.31343283582089 258.3228755309729 51.417910447761194 258.1149283071134 60.52238805970149 259.94390958530016 69.62686567164178 261.7770905417622 78.73134328358208 263.4978335980782 87.83582089552239 265.22253207502183 96.94029850746269 218.7543878538321 106.04477611940298 219.7081637420569 115.14925373134328 222.76951505763654 124.25373134328358 224.52559233489262 133.3582089552239 210.162974640196 142.46268656716416 175.68371594308573 151.56716417910448 160.04432208149873 160.67164179104478 108.96846186873432 169.77611940298507 102.31981166427428 178.88059701492537 68.55350711120292 187.98507462686567 52.43299889065986 197.08955223880596 18.25239147957791 206.1940298507463 27.463030359955496 215.29850746268656 35.82475773736769 224.40298507462686 44.49905724063814 233.50746268656715 52.641340096948966 242.61194029850748 60.802320090018895 251.71641791044777 68.4627482390693 260.82089552238807 74.81070626613038 269.9253731343283 82.29495570894417 279.02985074626866 89.32019174932378 288.13432835820896 96.36157572200392 297.23880597014926 96.3178977183797 306.34328358208955 98.21720877524976 315.44776119402985 104.98697506061762 324.55223880597015 110.92384364687021 333.65671641791045 116.29737885288401 342.76119402985074 119.88896399559388 351.8656716417911 125.73891791894863 360.97014925373134 131.48019743242037 370.07462686567163 137.1471531058744 379.17910447761193 117.12609024200793 388.2835820895522 69.03869115778605 397.3880597014926 46.453779835051535 406.4925373134328 32.18542127487211 415.5970149253731 30.816123213810897 424.70149253731347 38.67835611481655 433.8059701492537 45.17427590162225 442.91044776119406 51.71444470875821 452.0149253731343 58.60734524032165 461.1194029850746 65.96501135598689 470.22388059701495 51.03390483412221 479.3283582089552 54.01527154161647 488.43283582089555 60.65536254304311 497.5373134328358 65.82825444635495 506.64179104477614 71.90722445490073 515.7462686567164 77.65974223919554 524.8507462686566 82.85632401508067 533.955223880597 51.20878745338729 543.0597014925373 57.65818815790766 552.1641791044776 64.28538449445432 561.2686567164179 71.1170003556652 570.3731343283582 77.57858211332939 579.4776119402985 81.89016915944913 588.5820895522388 88.71329011270731 597.6865671641791 95.63574346429391 606.7910447761194 102.26671029353824 615.8955223880597 108.8093083088684 625 101.41967226010004 625 320 15 320"
      />
      
      <polygon
        fill="#f34b7d"
        fillRule="evenodd"
        points="15 280.31084535263824 24.104477611940297 267.9036441299577 33.208955223880594 269.4433263190298 42.31343283582089 270.9865402814409 51.417910447761194 270.3920421207519 60.52238805970149 271.85818015906113 69.62686567164178 273.3276826761828 78.73134328358208 274.70705577637585 87.83582089552239 276.08959938794504 96.94029850746269 229.28974347759333 106.04477611940298 229.9526210479757 115.14925373134328 232.70126591827125 124.25373134328358 234.16381578181432 133.3582089552239 219.5069971665207 142.46268656716416 184.75158027623704 151.56716417910448 168.83539545602986 160.67164179104478 117.49119272189623 169.77611940298507 110.59065699036381 178.88059701492537 76.57189111912683 187.98507462686567 60.214403326561694 197.08955223880596 25.796272699904705 206.1940298507463 34.77663906736234 215.29850746268656 42.92931831089123 224.40298507462686 51.38675432676672 233.50746268656715 59.32547545664232 242.61194029850748 67.28242583333386 251.71641791044777 74.75133771649695 260.82089552238807 80.90734023405071 269.9253731343283 88.20549393188224 279.02985074626866 95.05604692238077 288.13432835820896 101.92234647836466 297.23880597014926 101.71432388284626 306.34328358208955 103.44891189806549 315.44776119402985 110.05898314440336 324.55223880597015 115.8558053319195 333.65671641791045 121.07879519814242 342.76119402985074 124.52906847488072 351.8656716417911 130.23738561930207 360.97014925373134 135.8457150011821 370.07462686567163 141.37941561885023 379.17910447761193 121.2291654770703 388.2835820895522 79.82197943433187 397.3880597014926 56.90791485737566 406.4925373134328 42.33058978853194 415.5970149253731 40.65161542657984 424.70149253731347 48.213625949884374 433.8059701492537 54.44626120109314 442.91044776119406 60.70340879263915 452.0149253731343 67.3306445974531 461.1194029850746 74.42203677456538 470.22388059701495 59.24098726462324 479.3283582089552 61.971837420994234 488.43283582089555 68.3690604395506 497.5373134328358 73.3139779016357 506.64179104477614 79.16445019612053 515.7462686567164 84.70248404758794 524.8507462686566 89.68408981047432 533.955223880597 57.828139153514314 543.0597014925373 64.09476995115799 552.1641791044776 70.5254932530531 561.2686567164179 77.17268535967014 570.3731343283582 83.44942130691427 579.4776119402985 87.58749821093534 588.5820895522388 94.236711156497 597.6865671641791 100.99056625550975 606.7910447761194 107.46327360845959 615.8955223880597 113.84724993065501 625 106.30871984347303 625 320 15 320"
      />
      
      <polygon
        fill="#3572A5"
        fillRule="evenodd"
        points="15 287.17969952405275 24.104477611940297 281.36474103112425 33.208955223880594 282.50658754184207 42.31343283582089 283.65105232648614 51.417910447761194 284.76058005554455 60.52238805970149 285.8020630912797 69.62686567164178 286.84593599425875 78.73134328358208 287.82578519279264 87.83582089552239 288.80788631061034 96.94029850746269 245.74318244749014 106.04477611940298 245.95175225143714 115.14925373134328 248.21203460646137 124.25373134328358 249.21617264035416 133.3582089552239 234.09988864730707 142.46268656716416 198.91318799529677 151.56716417910448 182.56472634083065 160.67164179104478 130.8014431785875 169.77611940298507 123.50752977315145 178.88059701492537 89.09448482371235 187.98507462686567 72.36689735935005 197.08955223880596 37.57781849314864 206.1940298507463 46.19856019426919 215.29850746268656 54.02476111356384 224.40298507462686 62.143514835002975 233.50746268656715 69.76432734732947 242.61194029850748 77.40263639718697 251.71641791044777 84.57245138485214 260.82089552238807 90.42867013173989 269.9253731343283 97.43619096765593 279.02985074626866 104.0139348384375 288.13432835820896 110.60680078486209 297.23880597014926 110.14211286412501 306.34328358208955 111.6194476679182 315.44776119402985 117.98011861485409 324.55223880597015 123.55822485275169 333.65671641791045 128.54610352379993 342.76119402985074 131.7756842546296 351.8656716417911 137.26280149493192 360.97014925373134 142.66349914445695 370.07462686567163 147.98908995446772 379.17910447761193 127.63708439606671 388.2835820895522 92.84132138782144 397.3880597014926 69.52984891760161 406.4925373134328 54.57948824714106 415.5970149253731 52.52662398656037 424.70149253731347 59.72615730633743 433.8059701492537 65.64091322290514 442.91044776119406 71.55635028537645 452.0149253731343 77.86283321105543 461.1194029850746 84.63273598023801 470.22388059701495 69.14991400822564 479.3283582089552 71.57830037126348 488.43283582089555 77.68229262469657 497.5373134328358 82.3519609369263 506.64179104477614 87.92655513561863 515.7462686567164 93.205628773099 524.8507462686566 97.92768102481881 533.955223880597 65.82009915647652 543.0597014925373 71.86605841551514 552.1641791044776 78.0595678821241 561.2686567164179 84.48409530263706 570.3731343283582 90.53765411288711 579.4776119402985 94.46624204794244 588.5820895522388 100.90548540289615 597.6865671641791 107.45577973035105 606.7910447761194 113.73741101591105 615.8955223880597 119.92987266368155 625 112.21157480427794 625 320 15 320"
      />
      
      <polygon
        fill="#b07219"
        fillRule="evenodd"
        points="15 289.5663365449093 24.104477611940297 283.6785273332111 33.208955223880594 284.75199112399366 42.31343283582089 285.8279163341693 51.417910447761194 286.87099643424347 60.52238805970149 287.85010713056926 69.62686567164178 288.83146484447474 78.73134328358208 289.7526326868359 87.83582089552239 290.675918001738 96.94029850746269 251.8293656001787 106.04477611940298 251.8698852511994 115.14925373134328 253.949520710177 124.25373134328358 254.78409033602213 133.3582089552239 239.49784834493403 142.46268656716416 213.21072506354483 151.56716417910448 198.6720445210738 160.67164179104478 150.73239616868364 169.77611940298507 143.51136537492363 178.88059701492537 108.48771450100583 187.98507462686567 93.30354508819167 197.08955223880596 57.87538585240486 206.1940298507463 65.87655723968845 215.29850746268656 73.14029206208909 224.40298507462686 80.67555264893414 233.50746268656715 87.74866083292417 242.61194029850748 94.83800957232592 251.71641791044777 101.49252940837783 260.82089552238807 106.8322746848977 269.9253731343283 113.3390845305552 279.02985074626866 119.44682690596736 288.13432835820896 125.56861361869116 297.23880597014926 124.66173659933668 306.34328358208955 125.69586886126152 315.44776119402985 131.62686596982587 324.55223880597015 136.82816102072928 333.65671641791045 141.41098259367593 342.76119402985074 144.26035022750352 351.8656716417911 149.36637715673368 360.97014925373134 154.40936116796118 370.07462686567163 159.37641714508044 379.17910447761193 138.67681773943625 388.2835820895522 110.33903341800104 397.3880597014926 86.493450891192 406.4925373134328 71.04174200893132 415.5970149253731 68.48637668119423 424.70149253731347 75.1987506312679 433.8059701492537 80.68627846886713 442.91044776119406 86.14246404613039 452.0149253731343 92.01786373434399 461.1194029850746 98.35569464962367 470.22388059701495 87.98299030177219 479.3283582089552 93.17338829138933 488.43283582089555 98.6182070076683 497.5373134328358 102.66912301773027 506.64179104477614 107.62354787614154 515.7462686567164 112.32048812449506 524.8507462686566 116.4590688855094 533.955223880597 83.78582781013094 543.0597014925373 89.33572123933902 552.1641791044776 94.99598067563502 561.2686567164179 100.9199613448082 570.3731343283582 106.47182373128692 579.4776119402985 109.92948712278587 588.5820895522388 115.8967256495119 597.6865671641791 121.98941979313614 606.7910447761194 127.841517289015 615.8955223880597 133.60345716725178 625 125.48104562865228 625 320 15 320"
      />
      
      <polygon
        fill="#00ADD8"
        fillRule="evenodd"
        points="15 303.38566526452814 24.104477611940297 303.8928083728462 33.208955223880594 304.3688486404305 42.31343283582089 304.84598166975115 51.417910447761194 305.30854594307306 60.52238805970149 305.7427450092668 69.62686567164178 306.17794084018556 78.73134328358208 306.5864438999739 87.83582089552239 306.99588547696374 96.94029850746269 267.87544494418614 106.04477611940298 267.4729071947086 115.14925373134328 269.0762701599098 124.25373134328358 269.4637757195402 133.3582089552239 256.22246677705897 142.46268656716416 233.82192637236687 151.56716417910448 218.65409873197245 160.67164179104478 176.94873438582854 169.77611940298507 170.51593581697503 178.88059701492537 135.07602840581498 187.98507462686567 119.10605215677884 197.08955223880596 82.89028709568282 206.1940298507463 90.12789583488137 215.29850746268656 96.69844247614418 224.40298507462686 103.5146020546099 233.50746268656715 109.91271310918063 242.61194029850748 116.32551463479388 251.71641791044777 122.34498495720527 260.82089552238807 127.7391015914495 269.9253731343283 133.6077420205944 279.02985074626866 139.11645922505753 288.13432835820896 144.6378412872314 297.23880597014926 143.1673835107239 306.34328358208955 143.63664211144902 315.44776119402985 149.02000300626725 324.55223880597015 153.74104627083085 333.65671641791045 157.80761399521964 342.76119402985074 160.17238642354886 351.8656716417911 164.7927085797013 360.97014925373134 169.37977553772322 370.07462686567163 173.88986855255328 379.17910447761193 155.23279208487043 388.2835820895522 133.20718685130552 397.3880597014926 108.66356409281983 406.4925373134328 92.55663040989046 415.5970149253731 89.34453666781735 424.70149253731347 95.42022444432718 433.8059701492537 100.34940488970128 442.91044776119406 105.20538634067594 452.0149253731343 110.51739179112886 461.1194029850746 116.29053365484617 470.22388059701495 105.38777175023893 479.3283582089552 110.04690139851292 488.43283582089555 114.97666431912222 497.5373134328358 118.54411824490847 506.64179104477614 123.01396826853994 515.7462686567164 127.2560494678857 524.8507462686566 130.93873100007318 533.955223880597 97.82350644301826 543.0597014925373 102.98579602387866 552.1641791044776 108.229395964655 561.2686567164179 113.76227093163448 570.3731343283582 118.92212812137586 579.4776119402985 122.01182949336172 588.5820895522388 127.61026252550721 597.6865671641791 133.34540599658268 606.7910447761194 138.86188317166622 615.8955223880597 144.28743564423507 625 135.8492639623149 625 320 15 320"
      />
      
      <polygon
        fill="#2b7489"
        fillRule="evenodd"
        points="15 303.38566526452814 24.104477611940297 303.8928083728462 33.208955223880594 304.3688486404305 42.31343283582089 304.84598166975115 51.417910447761194 305.30854594307306 60.52238805970149 305.7427450092668 69.62686567164178 306.17794084018556 78.73134328358208 306.5864438999739 87.83582089552239 306.99588547696374 96.94029850746269 274.9487695670614 106.04477611940298 274.3509256431577 115.14925373134328 275.744341616517 124.25373134328358 275.9347757516366 133.3582089552239 273.2722585342573 142.46268656716416 257.22386647710266 151.56716417910448 243.3331670350796 160.67164179104478 217.7029287679258 169.77611940298507 210.06566308081216 178.88059701492537 173.41852704585034 187.98507462686567 156.35005342993207 197.08955223880596 118.99743675832138 206.1940298507463 125.13290049883673 215.29850746268656 130.7028820029339 224.40298507462686 136.4810745316965 233.50746268656715 141.9048713029551 242.61194029850748 147.34113431741798 251.71641791044777 152.44396177065644 260.82089552238807 156.91932207367188 269.9253731343283 161.89725092184912 279.02985074626866 166.56988571997638 288.13432835820896 171.25326734534028 297.23880597014926 168.99620700141514 306.34328358208955 168.67704876759635 315.44776119402985 173.29606847092765 324.55223880597015 177.34681451280622 333.65671641791045 180.69282663218993 342.76119402985074 182.38123963929283 351.8656716417911 186.32365419960462 360.97014925373134 190.27438064969408 370.07462686567163 194.14668046972088 379.17910447761193 174.87127311911155 388.2835820895522 159.06672556615058 397.3880597014926 133.73375210298968 406.4925373134328 116.88588891352063 415.5970149253731 112.9311526147898 424.70149253731347 118.28687171762448 433.8059701492537 122.58467192504762 442.91044776119406 126.76193349777708 452.0149253731343 131.43684663346386 461.1194029850746 136.57143140043001 470.22388059701495 125.06927892510862 479.3283582089552 129.1276423425774 488.43283582089555 133.47497777180996 497.5373134328358 136.49572235154682 506.64179104477614 140.41760895676452 515.7462686567164 144.14533460389288 524.8507462686566 147.31248226510837 533.955223880597 113.69745767086772 543.0597014925373 118.4214394115908 552.1641791044776 123.19387799920688 561.2686567164179 128.28448429444936 570.3731343283582 133.00106000578788 579.4776119402985 135.6746665331104 588.5820895522388 140.85604856998788 597.6865671641791 146.1868740180964 606.7910447761194 151.32382942744073 615.8955223880597 156.3689873762949 625 147.57375200931781 625 320 15 320"
      />
      
      <polygon
        fill="#dea584"
        fillRule="evenodd"
        points="15 318.67483363666156 24.104477611940297 318.7152835816295 33.208955223880594 318.75325281868027 42.31343283582089 318.79130901323606 51.417910447761194 318.8282035675632 60.52238805970149 318.8628354443207 69.62686567164178 318.8975467668808 78.73134328358208 318.93012922202917 87.83582089552239 318.962786348593 96.94029850746269 303.52124557418483 106.04477611940298 302.1344723648473 115.14925373134328 302.6798063054395 124.25373134328358 303.19169674607116 133.3582089552239 301.0449260190392 142.46268656716416 286.4980087038153 151.56716417910448 274.27288732991855 160.67164179104478 248.70115631295187 169.77611940298507 240.14775893438534 178.88059701492537 224.1325297705425 187.98507462686567 205.99824360575144 197.08955223880596 177.67986875964166 206.1940298507463 182.02409065185176 215.29850746268656 185.96792861612636 224.40298507462686 190.0591837417154 233.50746268656715 193.89951362863894 242.61194029850748 197.74866849281534 251.71641791044777 201.36172800147415 260.82089552238807 204.41307322007268 269.9253731343283 207.94128168328723 279.02985074626866 211.2531111002588 288.13432835820896 214.57256489525503 297.23880597014926 213.02080567102104 306.34328358208955 211.35783314512196 315.44776119402985 214.67404608610434 324.55223880597015 217.58228127720446 333.65671641791045 219.70011985454587 342.76119402985074 220.23569405653518 351.8656716417911 223.02262225489903 360.97014925373134 225.88872825357433 370.07462686567163 228.67392494085635 379.17910447761193 210.94556863214228 388.2835820895522 200.7354926431421 397.3880597014926 188.30201828613454 406.4925373134328 177.571344392833 415.5970149253731 172.06967863993358 424.70149253731347 175.62022104976398 433.8059701492537 178.33495542137476 442.91044776119406 180.81048535654025 452.0149253731343 183.88802222659126 461.1194029850746 187.42155444979753 470.22388059701495 179.1585085625957 479.3283582089552 181.5658379684406 488.43283582089555 184.3125441829094 497.5373134328358 185.83080185063469 506.64179104477614 188.24676398507543 515.7462686567164 190.56091454107437 524.8507462686566 192.3112659912802 533.955223880597 178.21246183427945 543.0597014925373 181.1550535154849 552.1641791044776 184.01260317575912 561.2686567164179 187.30575137059557 570.3731343283582 190.2207216305361 579.4776119402985 191.20321475737006 588.5820895522388 194.6896295084319 597.6865671641791 198.37721911063437 606.7910447761194 201.97173171658397 615.8955223880597 205.470876893607 625 202.0839934736726 625 320 15 320"
      />
      
      <polygon
        fill="#f1e05a"
        fillRule="evenodd"
        points="15 318.67483363666156 24.104477611940297 318.7152835816295 33.208955223880594 318.75325281868027 42.31343283582089 318.79130901323606 51.417910447761194 318.8282035675632 60.52238805970149 318.8628354443207 69.62686567164178 318.8975467668808 78.73134328358208 318.93012922202917 87.83582089552239 318.962786348593 96.94029850746269 315.0440062143048 106.04477611940298 315.1808494448568 115.14925373134328 315.32795111466675 124.25373134328358 315.46603122978934 133.3582089552239 312.9445933338969 142.46268656716416 298.04598829357417 151.56716417910448 294.77163972567473 160.67164179104478 288.54763147379714 169.77611940298507 281.15588705565267 178.88059701492537 276.18435652287377 187.98507462686567 265.12207088424833 197.08955223880596 246.71294298397407 206.1940298507463 248.94996999931635 215.29850746268656 250.98083833989313 224.40298507462686 253.0876130706896 233.50746268656715 255.06516805773975 242.61194029850748 257.04726380528507 251.71641791044777 258.9077947431866 260.82089552238807 260.7726130807706 269.9253731343283 262.5804761622915 279.02985074626866 264.2774805199681 288.13432835820896 265.9784043312222 297.23880597014926 262.9073625374829 306.34328358208955 259.7563306610276 315.44776119402985 261.5952208933311 324.55223880597015 263.2078720149994 333.65671641791045 264.0871390716181 342.76119402985074 263.3457747775531 351.8656716417911 264.8167927488223 360.97014925373134 266.4477043099694 370.07462686567163 267.9948578420427 379.17910447761193 249.24110894627233 388.2835820895522 244.5308698015914 397.3880597014926 230.76056066996722 406.4925373134328 221.28326208055307 415.5970149253731 214.44731362212787 424.70149253731347 216.704300122198 433.8059701492537 218.28464137439636 442.91044776119406 219.54073171312348 452.0149253731343 221.4736137142624 461.1194029850746 223.85986515561072 470.22388059701495 218.80650735593116 479.3283582089552 220.105828179058 488.43283582089555 221.67611138894276 497.5373134328358 222.0901144154388 506.64179104477614 223.3992704761444 515.7462686567164 224.67452838791337 524.8507462686566 225.3835694442243 533.955223880597 210.27525676800323 543.0597014925373 212.33254656720186 552.1641791044776 214.23841190278452 561.2686567164179 216.63825443295536 570.3731343283582 218.65787113442497 579.4776119402985 218.79991233578124 588.5820895522388 221.443961586986 597.6865671641791 224.31488971670723 606.7910447761194 227.1428228984626 615.8955223880597 229.87363231339634 625 225.76554588155602 625 320 15 320"
      />
      

      
        <g id="labels">
        
          
          <text x="15" y="330">
            Apr 2018
          </text>
          
        
          
        
          
        
          
        
          
        
          
        
          
        
          
        
          
        
          
          <text x="95.73529411764706" y="330">
            Jan 2019
          </text>
          
        
          
        
          
        
          
        
          
        
          
        
          
        
          
        
          
        
          
          <text x="176.47058823529412" y="330">
            Oct 2019
          </text>
          
        
          
        
          
        
          
        
          
        
          
        
          
        
          
        
          
        
          
          <text x="257.2058823529412" y="330">
            Jul 2020
          </text>
          
        
          
        
          
        
          
        
          
        
          
        
          
        
          
        
          
        
          
          <text x="337.94117647058823" y="330">
            Apr 2021
          </text>
          
        
          
        
          
        
          
        
          
        
          
        
          
        
          
        
          
        
          
          <text x="418.6764705882353" y="330">
            Jan 2022
          </text>
          
        
          
        
          
        
          
        
          
        
          
        
          
        
          
        
          
        
          
          <text x="499.4117647058824" y="330">
            Oct 2022
          </text>
          
        
          
        
          
        
          
        
          
        
          
        
          
        
          
        
          
        
          
          <text x="580.1470588235294" y="330">
            Jul 2023
          </text>
          
        
          
        
          
        
          
        
          
        
        </g>
      

      
        <text text-anchor="middle" y="370" x="320" id="legend">
          
          <tspan xml:space="preserve" fill="#f1e05a">   ◉</tspan> JavaScript
          
          <tspan xml:space="preserve" fill="#dea584">   ◉</tspan> Rust
          
          <tspan xml:space="preserve" fill="#2b7489">   ◉</tspan> TypeScript
          
          <tspan xml:space="preserve" fill="#00ADD8">   ◉</tspan> Go
          
          <tspan xml:space="preserve" fill="#b07219">   ◉</tspan> Java
          
          <tspan xml:space="preserve" fill="#3572A5">   ◉</tspan> Python
          
          <tspan xml:space="preserve" fill="#f34b7d">   ◉</tspan> C++
          
          <tspan xml:space="preserve" fill="#555555">   ◉</tspan> C
          
        </text>
      
        <text text-anchor="middle" y="400" x="320" id="legend">
          
          <tspan xml:space="preserve" fill="#178600">   ◉</tspan> C#
          
        </text>
      

    </svg>